<?xml version="1.0" encoding="utf-8"?>
<!-- Generator: Adobe Illustrator 19.0.0, SVG Export Plug-In . SVG Version: 6.00 Build 0)  -->
<svg version="1.1" id="Isolation_Mode" xmlns="http://www.w3.org/2000/svg" xmlns:xlink="http://www.w3.org/1999/xlink" x="0px"
	 y="0px" viewBox="0 0 189.2 134.1" style="enable-background:new 0 0 189.2 134.1;" xml:space="preserve">
<style type="text/css">
	.st0{fill:#FF006F;}
</style>
<path class="st0" d="M76.6,129c14.7-6.9,24.7-19.8,28.5-34.4c7.3-47.1,33.9-31,49.3-30.3c5.5,0.5,11.2-0.4,16.6-2.9
	c15.7-7.4,22.6-26,15.5-41.8l0,0c0,0,0,0,0,0c0,0,0,0,0,0l0,0c-7.7-15.5-26.5-22-42.2-14.6c-5.4,2.5-9.7,6.4-12.8,11
	c-9.2,12.3-13.7,43.1-54.7,18.8c-13.7-6.3-30-6.8-44.6,0.2C6.1,47.3-5.2,78.3,6.7,104.5l0,0c0,0,0,0,0,0c0,0,0,0,0,0l0,0
	C19.4,130.4,50.5,141.4,76.6,129z"/>
</svg>
