<?xml version="1.0" encoding="utf-8"?>
<!-- Generator: Adobe Illustrator 19.2.1, SVG Export Plug-In . SVG Version: 6.00 Build 0)  -->
<svg version="1.1" id="Layer_1" xmlns="http://www.w3.org/2000/svg" xmlns:xlink="http://www.w3.org/1999/xlink" x="0px" y="0px"
	 viewBox="0 0 260 190" style="enable-background:new 0 0 260 190;" xml:space="preserve">
<style type="text/css">
	.st0{fill:#FFFFFF;}
</style>
<g>
	<path class="st0" d="M186.1,120.7c2.4,5.7,8.6,24-4.6,38C179.1,153.9,172.6,137.8,186.1,120.7L186.1,120.7z M73.9,76.5
		c4.1,1.9,13.9,7.7,14.3,19.2c-3.7-1.4-12.7-6.2-14.2-19L73.9,76.5L73.9,76.5z M90.7,97.5c0.7-15.5-13.5-22.4-17-23.8
		C73.1,68.3,72,63.4,70.5,59C83.2,71.3,99,69.9,100.2,69.7c0.1,0,0.2,0,0.3-0.1c0.7-0.2,1-0.9,0.8-1.6c-7.9-24.2-34.4-25.6-39-25.6
		C57.5,35.1,52,29.9,47.9,26.6c15.1,5.1,30.3,12.7,46,20.6c8.2,4.1,16.6,8.3,25,12.2c2,8.5,2.4,19.6,2.8,31.6c0,1.1,0.1,2.1,0.1,3.2
		c-36.6,19.8-29.3,55.4-29.3,55.5l0,0c0,0.1,0,0.2,0.1,0.2c0.3,0.6,1,0.9,1.6,0.7c18.7-7.7,26-23.4,28.7-36.1
		c0.7,8.2,1.9,16.3,4,23.9c-21.7,12.1-17.3,33.4-17.3,33.4l0,0c0,0.1,0,0.2,0.1,0.2c0.3,0.6,1,0.9,1.6,0.7
		c13.7-5.7,17.3-18.3,18.2-26.4c1.3,3.4,2.8,6.6,4.6,9.6c0.4,2.5,4.4,24.2,15.7,24.3c0.7,0,1.3-0.6,1.3-1.2v-0.1l0,0
		c0-0.1-2.2-21.4-14.9-24.4c-2.7-4.7-4.8-9.9-6.4-15.3c4.6,6,12.3,14,19.6,11.2c0.6-0.2,1-1,0.7-1.6c0,0,0-0.1-0.1-0.1
		c0-0.1-9.5-18.5-22.2-17.4c-1.2-5.8-1.9-11.9-2.4-18c2.8,7.9,7.7,16.6,15.4,16.7c0.7,0,1.3-0.6,1.3-1.2v-0.1l0,0
		c0-0.1-2.6-25.2-17.5-29.1c0-2.6-0.2-4.3-0.2-4.6c0-1.3-0.1-2.6-0.1-3.9c-0.4-11.2-0.7-21.7-2.4-30.2c2.7,1.3,7.6,4,13.8,8.1
		c-10.1,21.8,4.6,36.2,5.6,37.1c0.1,0.1,0.2,0.1,0.2,0.2c0.6,0.4,1.4,0.2,1.7-0.4c7.9-12.8,3.2-25.3-0.9-32.3
		c4.9,3.6,10.3,7.9,15.9,13v0.1c0,0.2,0.1,0.3,0.2,0.4l0,0c0,0,1.6,2.1,4.5,4.8c-23,28.1-6.7,54.9-5.9,56.2c0.1,0.1,0.1,0.2,0.2,0.3
		c0.5,0.5,1.3,0.5,1.8,0c18.2-17.5,13.4-40.4,9.7-51.3c5.7,6.3,11.3,13.4,16.5,21.4c-17.8,21.4-5.4,41.9-4.7,43.1
		c0.1,0.1,0.1,0.2,0.2,0.3c0.5,0.5,1.3,0.5,1.8,0c10.8-10.4,11-23.2,9.2-32.3c2.3,4.3,4.4,8.8,6.3,13.5c-8.2,27.9,13,41.8,13,41.8
		l0,0c0.1,0,0.1,0.1,0.2,0.1c0.6,0.3,1.4,0,1.6-0.7c9.3-22.7-10.1-40-12.5-42.1c-2.3-5.7-4.9-11.1-7.8-16.2c5.5,4.2,14,8.3,24.4,4.7
		c0.7-0.2,1-0.9,0.8-1.6c0-0.1-0.1-0.2-0.1-0.2l0,0c0,0-9.4-16.4-30.3-11.8c-3.8-6-7.9-11.4-12.1-16.4c8.4,4.4,19.4,7,31.9,2.1
		c0.6-0.3,1-1,0.7-1.6c0-0.1-0.1-0.2-0.1-0.2l0,0c0-0.1-15.5-24.7-47.6-16.1c-7.9-7.3-15.5-13-21.9-17.3
		c15.6,5.9,31.8,10.1,48.8,10.7c12.6,15,28.3,9.1,29.4,8.6c0.1,0,0.2-0.1,0.3-0.1c0.6-0.4,0.7-1.2,0.3-1.7c-2.6-3.9-5.8-6.4-9.2-8
		c2.9-0.5,5.9-1,8.8-1.7c0.1,0.1,0.2,0.1,0.3,0.2c24.5,12.3,40.9-4.6,41.5-5.3c0.1-0.1,0.1-0.1,0.2-0.2c0.4-0.6,0.2-1.4-0.4-1.7
		c-18.4-11.5-36.4,1.1-40.6,4.4c-0.2-0.1-0.4-0.1-0.6,0c-4.9,1.2-9.8,2.1-14.7,2.6c-0.3-0.1-0.6-0.1-0.9-0.2
		c9.8-3.5,21.3-10.8,25.7-26.2c0.2-0.7-0.2-1.4-0.9-1.5c-0.1,0-0.2,0-0.2,0c-0.1,0-29.1-2.5-41.5,28.4c-11.6-0.6-22.9-3-33.8-6.4
		c13.5-1.3,43-7.5,53-37.8c0.2-0.7-0.1-1.4-0.8-1.6c-0.1,0-0.2,0-0.3-0.1c-0.1,0-40.3-5.3-59.5,37c-7.4-2.6-14.7-5.7-21.8-8.9
		c-1.4-5.6-3.6-10.1-7-13.1c-4.7-4.2-10-4.1-16.4-4c-3.9,0-8.3,0.1-13.2-0.8c-6.9-3.4-13.7-6.6-20.5-9.5c12.7,1.2,25.7-0.8,38.5-3.7
		c3.3,4,22.1,25.4,47.8,16c0.6-0.2,1-1,0.7-1.6c0-0.1-0.1-0.2-0.1-0.2l0,0c0-0.1-10.1-16.8-31.5-18.4l2.2-0.6
		c8-2.1,15.7-4.2,22.9-5.6c2.3,3.1,13,15.9,28.6,11.2c0.7-0.2,1-0.9,0.8-1.6c0-0.1-0.1-0.2-0.1-0.2l0,0c0,0-8.1-15.3-27.4-12.3h-0.1
		l-0.3,0.1c-0.3,0-0.5,0.1-0.8,0.1l0,0h-0.2c6-3.8,9.8-8.6,12.3-13.2h-2.9c-3.7,6.1-10.1,12.5-21.4,15.8c0.7-3.1,2.5-9.7,6.7-15.8
		h-3c-4.4,7-6,14.2-6.4,16.5c-3.1,0.8-6.2,1.6-9.4,2.5c-5.1,1.4-10.4,2.8-15.7,4.1c-0.7,0.2-1.5,0.3-2.3,0.5
		c-0.3,0.1-0.5,0.1-0.8,0.2C115,18.2,122.5,9.1,127,0.7h-2.9c-5.7,10.1-16.2,21-35.2,26.3c0.9-4.4,3.7-15.8,11-26.3h-3
		c-7.5,11.5-10,23.5-10.6,26.9c-12,1.6-24,1.6-35.3-2C34,19,17.6,16.1,1,19.1c-0.7,0.1-1.1,0.8-1,1.5s0.8,1.1,1.5,1
		c12.9-2.3,25.8-0.9,38.7,2.7c1,0.6,6.6,3.9,12.8,10.5c-5.9,4.8-33.6,30-21,64.1c0.2,0.6,1,1,1.6,0.7c0.1,0,0.2-0.1,0.2-0.1l0,0
		c0.1-0.1,31.4-19.2,23.4-59.8c1.1,1.4,2.2,3,3.3,4.6c1.5,3.4,3.2,6.4,5,8.9c2.8,6.2,5,13.4,5.8,21.7c0,0.7,0.1,1.4,0.2,2
		c0.2,3.7,0.2,7.6-0.1,11.8c-29,16.7-22.5,45.2-22.4,45.3l0,0c0,0.1,0,0.2,0.1,0.2c0.3,0.6,1,0.9,1.6,0.6
		C77.2,122.9,74,91.5,73.8,89.3c0.1-1.1,0.2-2.3,0.2-3.4c4.8,9.9,14.4,12.5,15.1,12.7c0.1,0,0.2,0,0.3,0
		C90.1,98.7,90.7,98.1,90.7,97.5L90.7,97.5z M64,44.9c6.9,0.4,27.2,3.2,34.4,22.3c-4.9,0.1-20.2-0.7-30.8-15.5
		C66.5,49.3,65.3,47.1,64,44.9L64,44.9z M33.8,96.4C23.4,65.5,47.7,42.4,54.1,37C62.8,73.1,39.7,92.2,33.8,96.4L33.8,96.4z
		 M71.4,91.4c0.4,6.8,0.2,30.2-20.4,40.3C50.3,125.9,49.1,104.9,71.4,91.4L71.4,91.4z M170.5,25c-11.9,2.7-20.5-6-23.5-9.7
		C160.8,13.4,168.2,21.6,170.5,25L170.5,25z M147.7,40.5c-21.8,7-38.2-9.6-42.7-14.8c0.3-0.1,0.5-0.1,0.8-0.2
		C130.7,20.2,144.2,35.8,147.7,40.5L147.7,40.5z M199.7,145c-5.5,21.1,7,33.3,11.2,36.6C217.2,163.6,204.2,149.3,199.7,145
		L199.7,145z M219.6,73.8c4.8-3.6,20-13.2,35.7-4.5C251.4,72.7,238.2,82.2,219.6,73.8L219.6,73.8z M202,77.5c4.1,0.9,8.4,3,11.7,7.3
		c-3.9,1.1-14.3,2.8-23.6-6.7C194.1,78.1,198,77.9,202,77.5L202,77.5z M192.7,74.5c-1.7,0.2-3.1,0.4-4.1,0.6
		c-0.6,0.1-1.2,0.1-1.6,0.2c10.2-24,31.1-25.9,37-25.9C218.3,66.9,202.3,72.6,192.7,74.5L192.7,74.5z M200.5,31.8
		c-11.6,31.9-46.5,34.7-55.1,34.9C161.8,31.8,193.2,31.4,200.5,31.8L200.5,31.8z M204.4,100.8c-15,5.1-27.6-1.1-35.5-7.1
		c-2.3-2.5-4.6-4.8-6.9-7C187,80.7,200.9,96.1,204.4,100.8L204.4,100.8z M214.3,128.6c-2.6-3.4-10.6-12.2-25.4-9.5
		C192.1,122.9,201.5,132,214.3,128.6L214.3,128.6z M148.3,177.5c-7-1.7-10.4-15.2-11.4-20.3C144.9,160.4,147.6,173,148.3,177.5
		L148.3,177.5z M139.3,127.2c-9.1-1.8-13.3-19.3-14.4-25.2C135.2,105.7,138.5,122.1,139.3,127.2L139.3,127.2z M146.9,148.3
		c-7.2,1-15.2-10.3-18-14.7C137.5,133.6,144.7,144.4,146.9,148.3L146.9,148.3z M122,99.7c0,10.7-2.8,36.8-27.3,47.9
		c-0.8-6.8-2.2-34.1,27.2-50.7C121.9,97.8,122,98.8,122,99.7L122,99.7z M127.2,141c0.1,5.6-0.9,21.7-15.4,28.7
		C111.4,164.9,111.4,150.3,127.2,141L127.2,141z M137.4,70.7c3.4,4.5,12,18.1,4.3,32.2C138.6,99.3,130.1,87.4,137.4,70.7L137.4,70.7
		z M164.4,93.4c-19.2,23.6-9.3,46.1-6.3,51.7C176.8,126,167.4,100.3,164.4,93.4L164.4,93.4z M118,56.2c-7.8-3.6-15.5-7.5-23-11.3
		c-1.4-0.7-2.8-1.4-4.1-2.1c2.4,0.1,4.6,0.1,6.7,0.1c6-0.1,10.8-0.1,14.8,3.4C114.9,48.6,116.7,52,118,56.2z"/>
	<g>
		<path class="st0" d="M185.2,118.3c0.8-0.5,3.2,0.8,3.9,1.1c1.1,0.6,7.7,3.1,9.5,3.9l5.8,2.1c2.6,0.8,5.2,1.6,7.9,2.2
			c1,0.2,3.6,0.4,4,1.2c-0.6,1.7-8-0.3-9.6-0.7l-11.9-4.1c-0.4-0.1-0.5-0.3-0.9-0.4l-4.4-2c-0.3-0.2-0.4-0.3-0.9-0.4
			c-0.3-0.1-0.6-0.3-0.9-0.5c-0.3-0.2-0.5-0.3-0.8-0.4c1.2,6.3,1.6,15.3,0.4,21.4c-0.4,2.3-1.2,4.9-1.8,7.1l-0.8,2.4
			c-0.7,1.9-1.5,4.7-2.3,6.9c-0.2,0.5-0.6,1.8-1.3,2.2c-0.7-1.6,2.8-12.4,3.5-15c1.5-6.1,1.8-9.2,1.7-15.9c0-2.7-0.3-5.6-0.3-8.4
			c0-0.3,0.1-1.1,0-1.3C185.8,119.1,185.3,119.2,185.2,118.3z"/>
		<path class="st0" d="M143.3,67.3c0.2-0.7,3-1.8,3.9-2.2l13.5-5.5c10.9-4.4,20.9-10.3,29.7-17.8c2-1.7,3.8-3.5,5.5-5.3
			c0.9-0.9,4.7-4.7,5.6-5.1c0.6,1.5-9.1,10.8-9.8,11.4c-12.3,11.3-28.3,18.4-44.2,23.5C146.9,66.6,144,67.7,143.3,67.3z"/>
		<path class="st0" d="M121,0c-1.4,2-3,4-4.8,6c-3.8,4.3-7.9,8-12.7,11.8c-2.5,1.9-14,9.8-16.6,9.8c0.1-0.5,1.2-1.2,1.6-1.5
			c0.6-0.5,1.2-0.9,1.9-1.3c1.3-0.9,2.5-1.7,3.9-2.6c7.8-5.1,13.9-10.1,20.1-17c1.4-1.6,2.9-3.3,4.3-5.2C118.7,0,121,0,121,0z"/>
		<path class="st0" d="M32.9,97.7l-0.1-0.2c0.4-0.6,0.7-1.2,1.1-1.8l3.5-5.1c1-1.4,2.4-3.8,3.1-5.3c0.3-0.6,0.7-1.2,0.9-1.8l1.4-2.8
			c0.2-0.4,0.3-0.5,0.4-0.9c0.6-1.2,1.1-2.5,1.6-3.8l1.8-4.8l2.8-8.7c0.2-0.7,0.3-1.3,0.5-2c0.5-1.6,1.5-6.5,1.7-8.1
			c1-6.2,0.9-6.8,1.1-12.9c0-0.7,0.1-1.4,0.1-2.1c0-0.5-0.1-1.7,0.4-2.1c1.2,0.8,1.1,7.7,1.1,9.1c0,1.5-0.2,2.9-0.3,4.4
			c-0.4,4.7-1.3,8-2.3,12.4c-0.3,1.4-2.4,8.4-3,9.9L44.1,82c-1.5,2.8-3.6,6.9-5.4,9.4C38,92.5,34.4,97.7,32.9,97.7z"/>
		<path class="st0" d="M93,148.8c0.1-0.5,1.2-1,1.7-1.4c0.5-0.5,1-1,1.5-1.5c3.7-4.3,6.2-8.3,9.1-13.1c0.7-1.2,1.3-2.2,2-3.4
			c0.3-0.6,0.6-1.1,1-1.7c0.1-0.3,0.3-0.6,0.5-0.9l5-9.6c0.3-0.6,0.5-1.2,0.8-1.8c0.3-0.6,0.5-1.2,0.8-1.8l3.2-7.2l2.1-5.5
			c0.4-1.2,0.7-2.4,1.1-3.8c0.2-0.7,0.3-1.2,0.4-1.9c0.1-0.6-0.2-1.7,0.4-2c2.1,1.6-1,10.4-1.9,12.8c-0.1,0.4-0.2,0.6-0.3,1
			c-0.1,0.3-0.2,0.6-0.4,0.9c-0.2,0.4-0.2,0.6-0.3,1c-1,2.5-2.1,4.8-3.2,7.2l-1.7,3.6c-2,3.8-3.4,6.6-5.6,10.5
			c-2.8,4.9-9.3,15.3-13.6,17.9c-0.2,0.2-0.7,0.4-1.2,0.5C93.6,149,93.3,149.2,93,148.8z"/>
		<path class="st0" d="M164.2,91.8c0.7-0.1,1,1,1.2,1.5c2.9,9,0.7,18.7-1.3,27.4c0,0.1,0,0.1,0,0.2c0,0,0,0,0,0.1l-0.2,1
			c-0.1,0.5-0.3,1.1-0.4,1.6c-1.1,4.4-2.4,8.8-3.5,13.3c-0.7,2.7-0.9,4.1-1.4,6.8l-0.4,1.6c-0.1,0.5-0.2,1.3-0.7,1.6
			c-1.6-1,1.2-12.3,1.5-13.6c0.1-0.6,0.3-1.1,0.4-1.6l2.1-8.2c0.7-2.5,1.8-7.3,2.3-10c0.7-4,1.7-9.9,1.3-14.1
			C164.9,98.1,164.1,92.6,164.2,91.8z"/>
		<path class="st0" d="M54.5,128.4c-0.9,1.1-3.3,4.1-4.5,4.9c-0.3-0.6,0.1-1.2,0.3-1.6c4.2-7,8.8-10,12.8-18.3l5-11.4
			c1.3-3.3,2.2-7.1,2.8-10.6c0.2-1.2,0.2-2.7,0.9-3c1.2,1.7-0.1,7.7-0.6,9.8c-0.8,3-1.9,6.1-3.1,8.9c-0.2,0.6-0.3,1-0.6,1.5l-3,6.4
			c-0.7,1.4-1.2,2.1-1.9,3.4C60.1,122.3,57.2,125,54.5,128.4z"/>
		<path class="st0" d="M225.3,47.8c0.3,0.8-0.4,1.6-0.9,2.4c-1.5,2.1-3.7,4.5-5.7,6.2c-2.9,2.6-6.2,5.1-9.6,7.3
			c-3.6,2.3-7.3,4.6-11.1,6.6c-1.9,1-10.7,5.7-12.4,5.6c-1.6-0.1,0.7-1.6,1.2-1.8c1-0.5,2.1-1,3.1-1.5c2-1,4-2.1,6-3.2
			c8.1-4.4,18.9-11,25.3-17.7C221.9,50.8,224.3,48.2,225.3,47.8z"/>
		<path class="st0" d="M102.2,25.2c0.5-0.6,2.6,0.1,3.1,0.2c1.6,0.5,2.3,0.7,3.8,1.2l13.6,5.6c0.6,0.2,0.9,0.4,1.5,0.6l4.4,1.5
			c0.5,0.2,1,0.3,1.5,0.5l4.4,1.6c0.3,0.1,0.5,0.2,0.8,0.3s0.4,0.1,0.7,0.2c1.1,0.4,4.8,1.4,6.1,1.7c0.5,0.1,1,0.2,1.5,0.3
			c1.9,0.5,2.7,0.8,4.6,0.9c2.6,0.1,1.1,1.3-2.2,1c-1.2-0.1-2.1-0.3-3.2-0.5c-2.3-0.3-4.2-0.7-6.2-1.3l-8.9-3
			c-1.4-0.5-2.9-0.8-4.5-1.5L110.5,29c-0.9-0.4-1.8-0.8-2.9-1.2C106.9,27.5,102.3,25.9,102.2,25.2z"/>
		<path class="st0" d="M205.4,102c-3.4,0.5-8.9-0.8-12.3-1.6c-2.9-0.7-5.3-1.6-7.9-2.4l-6.4-2.3c-2.7-1.1-5.7-2.2-8.3-3.4l-4.8-2.2
			c-1.1-0.5-3.8-1.9-4.6-2.5s-0.2-0.8,0.4-0.7c1.7,0.4,8.5,3.3,11.2,4.3c0.9,0.3,1.9,0.9,2.8,1.1c0.7,0.2,1.5,0.6,2.1,0.8
			c1.5,0.5,4.9,1.9,6.4,2.3c0.4,0.1,0.9,0.3,1.4,0.5l4.3,1.4c0.9,0.3,1.9,0.6,2.9,0.9c3,0.9,5.9,1.6,9,2.1c1.4,0.2,3.2,0.4,4.5,0.8
			C206.9,101.4,206.1,101.8,205.4,102z"/>
		<path class="st0" d="M101.5,68.4c-1.2,0.9-4.7-0.6-5.6-1c-2.1-0.9-4.3-1.8-6.4-2.9l-3.7-2c-1.6-0.9-3.3-1.8-4.9-2.8
			c-3.3-2-6.3-3.9-9.5-6.3c-1.6-1.1-3-2.3-4.5-3.7c-4.5-4.1-3.9-7-2.4-4.7c2.6,4.1,15.8,12.1,21,15l2.5,1.4c2.1,1.3,4.3,2.2,6.2,3.3
			l6.3,2.9C101.2,68.1,101.4,67.9,101.5,68.4z"/>
		<path class="st0" d="M210.9,182.9l-0.4,0.2c-1.1-0.9-1.3-3.4-1.5-4.8c-0.8-5.1-1.6-10.3-2.9-15.4c-0.9-3.6-2.4-7.5-3.8-11
			c-1.4-3.4-2-4.7-3.8-7.7c-0.4-0.6-1.3-2-0.5-2.4c0.6,0.4,2.6,3.2,3.1,4c1.1,1.7,1.7,3.2,2.6,5.1c0.9,1.9,1.6,3.9,2.3,5.8
			c2.1,5.2,3.1,10.7,3.9,16.1c0.3,1.7,0.5,3.4,0.7,5.1C210.9,179.6,211.4,181.5,210.9,182.9z"/>
		<path class="st0" d="M140.1,10.2c-1.4,1.2-8.1,6.8-9.7,6.9c-0.2-1,2.9-3.4,3.7-4.1c1.5-1.3,2.9-2.5,4.3-3.7
			c3.1-2.7,6.9-6.1,10-9.3h2.6C147.5,3.8,143.5,7.4,140.1,10.2z"/>
		<path class="st0" d="M256.5,68.9l0.1,0.3c-1.7,2-7.5,4.1-10.3,4.8c-3.5,0.9-6.9,1.2-10.3,1.2c-3.2,0-6.3-0.2-9.5-0.4
			c-1.6-0.1-3.2-0.2-4.8-0.3c-1-0.1-4.2-0.1-4.4-1c1.1-0.8,7.9-0.5,9.5-0.5c8.6,0.3,16,0.7,24.3-2.3C252.5,70.1,255.2,69,256.5,68.9
			z"/>
		<path class="st0" d="M111.7,170.6c-1.5,0.6-0.4-1,0-1.4c2.8-3.5,3.5-4.7,5.5-8.6l4.6-9.1c0.2-0.3,0.3-0.7,0.5-1l1-2
			c1.1-2.1,3.8-7.8,5.2-9c1.1-0.9,0.4,1.3,0.3,1.5c-0.1,0.2-0.2,0.3-0.3,0.5l-0.9,2.1c-0.7,1.3-2.2,4.8-2.6,5.6l-2.9,6.1
			c-1.2,2.6-2.9,5.6-4.2,8C117.1,164.6,113.8,169.7,111.7,170.6z"/>
		<path class="st0" d="M138.2,70.5c0.7,0.5,0.9,3.3,1,4.2c0.4,3.7,1.8,9.6,2.5,13.5c0.6,3.5,1.6,9.5,1.4,13
			c-0.1,0.9-0.4,3.5-1.4,3.5c-0.4,0-0.3-0.4-0.3-0.7c0.1-0.4,0.1-0.6,0.2-1c0.3-3.3-1.4-12.2-2-15.4c-0.6-3-1-6-1.5-8.9
			c-0.4-2.2-0.7-4.2-0.6-6.4C137.5,71.5,137.5,70.7,138.2,70.5z"/>
		<path class="st0" d="M122.8,101c2.4-1.5,8.7,12.4,9.9,15.3c2.6,6.3,4.7,6.8,7.1,10.7c1.1,1.7,0.2,1.9-1.8-0.1
			c-6.5-6.4-5.8-7.6-9.3-15c-1.2-2.6-2.9-6-4.4-8.4C124,102.9,122.9,101.4,122.8,101z"/>
		<path class="st0" d="M216.4,85.7c-3,0.4-8.3-0.9-11.3-1.5c-2.7-0.6-7.9-2.3-10.6-3.4l-3.3-1.6c-0.6-0.3-1.1-0.6-1.6-1
			c-1.8-1.5,0.2-1.3,1.8-0.6c0.6,0.3,1.1,0.5,1.7,0.7l2.5,0.9c0.6,0.2,1.8,0.7,2.6,0.9c0.6,0.2,1.2,0.4,1.8,0.6s1.2,0.4,1.8,0.5
			l3.6,1c1.4,0.4,4,0.9,5.5,1.3c1.3,0.3,4.5,0.7,5.6,1.1C217.2,84.9,218,85.5,216.4,85.7z"/>
		<path class="st0" d="M172.2,25.3c0.2,0.1,0.8,1.1-1.2,0.8c-2.6-0.4-2.8-0.4-5.4-1.2l-3.5-1.2c-0.6-0.3-1.1-0.4-1.7-0.7l-6.8-2.9
			c-1.8-0.7-7-3.3-7.8-4.8c-0.2-0.4-0.2-0.8,0.2-0.9c0.6-0.1,3.3,1.5,4.2,1.9l8.3,3.8l8.6,3.3c0.3,0.1,0.5,0.1,0.8,0.3
			C168.7,24.1,171.9,25.1,172.2,25.3z"/>
		<path class="st0" d="M72.3,75.5c0.5-0.1,0.5,0,0.8,0.2c0.7,0.5,1.2,1,1.8,1.6c4.3,3.8,8.2,7.5,11.1,12.6c0.7,1.2,3.3,6.2,2.5,7.1
			c-0.7-0.2-1.6-2-2.1-2.8C82.9,87.5,81,86,76,80.7c-0.7-0.8-1.5-1.6-2.2-2.5C73.3,77.5,72.1,76.3,72.3,75.5z"/>
		<path class="st0" d="M134.5,156.1c0.8-0.4,1.6,0.4,2.5,1.2c2.5,2.3,4.2,4.9,5.8,8c2,3.9,2.7,5.9,5.2,9.5c0.4,0.6,1.7,2.3,1.5,3
			c-1,0.4-3.6-3.2-4.3-4.2c-3.6-5.3-4.3-9.5-8.9-15C135.6,157.9,134.5,157,134.5,156.1z"/>
		<path class="st0" d="M127.7,133c0.9-0.6,4.7,2.3,5.6,3c3.8,2.8,8.5,8.4,11.2,10.3c0.6,0.4,4.3,1.8,3.9,2.8c-0.5,1-4.8-1.3-5.8-2.1
			c-4.3-3.5-6.3-6.1-9.9-9.2c-0.9-0.8-1.7-1.4-2.6-2.1C129.5,135.1,127.8,133.8,127.7,133z"/>
	</g>
	<g>
		<path class="st0" d="M54.1,47.7c1,2.9,1.6,6.7,1.9,9.7c0.1,0.6,0.1,2.6,0.6,2.9c0.5-0.2,0.4-1.1,0.4-1.7c0-3.7-1.2-11.5-3.6-13.8
			c0.3-0.5,0.9-1.3,0.7-2c-0.8,0.4-2.4,3.1-3.6,4.3c-2.2,2.4-2.3,2-4.2,3.3c-0.3,0.2-0.4,0.2-0.4,0.5c0.9,0.5,3.8-1.7,4.5-2.3
			c0.6-0.6,1-1,1.5-1.7c0.2-0.3,0.5-0.6,0.7-0.9c0.2-0.3,0.4-0.6,0.6-0.9c0.5,1.6,0.8,1.4,0.5,1.9l-1.5,2c-2.6,3.6-9.2,7.3-13,9.7
			c-0.5,0.3-5.2,3-5.2,3.9c0.6,0.1,5.1-2.7,6-3.2c3.6-2.1,7.6-4.5,10.6-7.3C53.3,49.6,53,49,54.1,47.7z"/>
		<path class="st0" d="M50.6,63.9c0.9,3.5-0.4,10-1.3,13.7c-0.2,0.9-0.9,3.6-0.6,4.5c0.6-0.3,0.8-1.4,1-2.2c0.7-2.3,1.2-4.7,1.7-7.1
			c0.4-2.2,1.2-8.6-0.6-10.3c-0.3,0.2-0.1,0-0.2,0.4c-0.1,0.6-0.2,0.3-0.7,1c-0.9,1.2-2.3,3-3.4,4c-3.9,3.5-9.5,5.8-13.4,10.7
			l-1.9,2.8c-0.3,0.6-0.7,1.1-0.5,1.5c1.4-0.9,2-4.3,9.9-9.6c2-1.4,4.3-2.8,6-4.4c1-0.9,1.6-1.5,2.3-2.5
			C50.2,65.1,50.2,64.5,50.6,63.9z"/>
		<path class="st0" d="M104.1,16.2c0.4,0.2,0.5,0.1,1.3-0.1c0.5-0.1,1-0.3,1.5-0.5c0.9-0.3,2-0.7,2.9-1c1-0.3,1.9-0.6,2.9-1
			c0.7-0.2,2.3-0.6,2.3-1.4c-0.4-0.3-1.8,0.3-2.6,0.5c-0.9,0.3-1.8,0.5-2.7,0.8c-0.9,0.3-1.9,0.6-2.8,1c-0.5,0.2-2.2,1.1-2.5,1.1
			c0.3-0.3,0.8-1.3,1-1.7c1.5-3.2,1.8-5.6,2.1-9.2c0.1-1.4,0.3-3.1,0.4-4.7h-1c-0.4,4.8-0.7,9.7-2,12.9l-1.2,2.7
			c-0.2,0.4-0.2,0.5-0.3,0.9C103.7,16.5,103.8,16.4,104.1,16.2z"/>
		<path class="st0" d="M116,114.7c0.1,0.4,0,1.8,0,2.3c0.1,2.3,0.3,4.9,0.1,7.1c-0.3,3-2.3,7.7-2.1,8.4c0.6-0.2,1.8-3.3,2-4
			c0.1-0.4,0.3-0.7,0.4-1.1c0.5-1.7,0.4-1.3,0.8-3.3c0.3-1.8-0.2-8.6-0.8-10.2c-0.5,0.3,0.3,0.2-0.5,0.4c-0.6,0.2-1.4,0.9-1.9,1.3
			c-3.4,2.8-9.5,5.7-13.4,9.3c-0.8,0.7-3.6,3.4-3.4,4.6c0.6-0.3,1.6-1.5,2.1-2.1c1.8-2,4.8-4.1,7-5.6
			C108.6,120.5,115.3,116.4,116,114.7z"/>
		<path class="st0" d="M133.3,119.3C133.4,119.3,133.4,119.4,133.3,119.3l1.7,1c0.8,0.4,2.4,1.3,3.1,1.1c-0.6-1.3-3.9-2.1-5.9-4.5
			c-0.3-0.4-0.5-0.8-0.8-1.2c-0.2-0.4-0.8-0.8-0.7-1.1l3.9,2.7c2.3,1.5,2.2,1.9,3.2,2.7c0.2,0.2,0.3,0.2,0.6,0.1
			c0.1-1.2-3.3-3.7-4.3-4.3c-0.5-0.3-3.3-2.1-3.6-2.6c-0.4-0.6-0.2-1.6-0.9-0.9c-0.2-0.3-0.2-0.4-0.6-0.4c-0.3,0.4,0.1,0.9,0.4,1.3
			c0.4,0.5,0.3,0.7,0.2,1.4c-0.2,2.7-0.7,5.8,1.1,8c0.2,0.3,0.3,0.4,0.6,0.4c0.1-0.2,0.1-0.1,0.1-0.3l-0.6-1.5
			c-0.5-1.4-0.5-3.8-0.3-5.1c0.6,1,1.3,2.5,2.3,3c-0.1,0.2,0,0.1-0.1,0.2l-0.2,0.6c-0.1,0.3-0.1,0.6-0.1,0.8c-0.1,1.4,0,2.6,0.8,3.9
			c0.4,0.8,0.8,1.4,1.4,1.2c0-0.4-0.9-2.4-1.1-3.3C133.4,121.2,133.5,120.3,133.3,119.3z"/>
		<path class="st0" d="M168.1,44.9c-0.9,3.1-1.7,7.3-2.6,10.1c-0.3,1-0.8,2.4-1.3,3.2c-0.7,1.2-1.4,1.5-1.4,1.8
			c0.3,0.2,1.8-0.1,2.2-0.2c2.4-0.5,4.4-0.5,6.8-0.9c1.6-0.2,8.6-2.1,9.5-3.3c-0.1,0,0.1-0.2-0.5-0.1c-1.3,0.2-5,1.7-8.1,2.2
			c-2.4,0.4-5.8,0.5-8.1,1.3c0-0.2,0.4-0.7,0.5-0.9c0.6-1,0.9-1.8,1.2-2.9c0.2-0.7,0.5-1.3,0.7-2l1.5-6.3c0.1-0.7,0.3-1.5,0.4-2.1
			c0.1-0.5,0.5-1.7,0.2-2.2C168.5,43.1,168.2,44.3,168.1,44.9z"/>
		<path class="st0" d="M138.7,77.3l0.5,0.5l-0.1,0.2c-0.3,0.8,2.5,5.3,2.8,5.9c0.4,0.6,2.9,4.7,3.9,4.5c0.1-0.6-1-2-1.4-2.6
			c-0.7-1.1-4.3-6.7-4.7-7.6c0.2,0.2,1.6,1.2,1.9,1.4c1.5,0.8,1.6,0.1,0.7-0.6c-0.6-0.4-1.2-1-1.9-1.6c-0.3-0.3-0.6-0.6-0.9-0.8
			c-1-0.9-0.1-1.2-0.8-1.1h-0.2c-0.4,0-0.7-1.2-1.5-0.8l0.2,0.7c-0.6,0.5-1.5,1.8-2,2.4c-0.4,0.5-1.6,1.9-1.3,2.4
			c0.8,0.1,2.6-2.3,3.1-3c0.3-0.3,0.4-0.8,0.8-1.1c0.4,0.6,0.2,0.6,0,1.2c-0.6,1.9-1.2,4.1-2.6,5.5c-0.5,0.5-1.8,1.2-1.9,1.8
			c0.7,0.3,1.9-0.5,2.5-1.1c1.3-1.2,1.8-2.4,2.3-4.1c0.1-0.4,0.2-0.8,0.3-1.1C138.5,78.1,138.6,77.6,138.7,77.3z"/>
		<path class="st0" d="M189.8,86.6c-0.3-0.3-0.4-0.4-1.1-0.4c-3.4-0.4-5.3,0.5-8.6,1.6c-2.9,1-4.5,1.8-8,2.8
			c-0.9,0.3-1.7,0.6-2.6,0.9c-0.4-0.2-0.7-0.5-1.1-0.8c-0.4-0.3-0.8-0.5-1.1-0.7c0.9-0.2,4.8-0.6,5-1.8c-0.3-0.3-0.5-0.2-0.9-0.1
			l-2.9,0.7c-0.8,0.2-3.2,0.3-3.6,0.7c0.2,0.7,1.2,0.3,1.5,0.6l0.3,0.4c0.5,0.6,2.2,1.6,3.5,3.2c0.7,0.8,0.7,1.3,1.3,1.1
			c0.1-1.2-1.1-2.3-1.8-3.1c2.8-0.1,7.1-1.6,10-2.8c1.7-0.7,3.5-1.3,5.2-1.7C187,86.7,188.6,87.1,189.8,86.6z"/>
		<path class="st0" d="M45.7,74.1c0.3,2.6-0.4,7.2-0.8,10c-0.1,0.6-0.2,1-0.4,1.6c-0.1,0.5-0.4,1.1-0.2,1.7c0.6-0.3,0.6-0.6,0.8-1
			c1.1-2.6,1.6-7.8,1.5-10.7c0-0.4-0.2-2.5-0.1-2.6c0.1-0.2,0.9-1.3,1.3-2c0.2-0.4,0.9-1.7,0.4-2.3c-0.2,0.1-0.3,0.2-0.3,0.4
			l-0.7,1.5c-0.2,0.3-0.4,0.6-0.6,0.9c-0.4,0.6-0.6,0.4-0.8,0.7c-0.1,0.3,0.1,0.1-0.2,0.5l-2.6,3c-1.1,1.2-2.1,2.2-3.1,3.4
			c-0.5,0.6-1.1,1.1-1.6,1.7c-0.4,0.5-1.4,1.2-1.1,1.9c0.9,0,5.5-5.2,6.6-6.4L45.7,74.1z"/>
		<path class="st0" d="M150.3,64.9c0.6,0.3,1.2,0.2,1.9,0.2c2.6-0.1,13.5-0.3,14.2-1.6c-0.1-0.4-0.4-0.3-0.8-0.3
			c-0.3,0-0.7,0.1-1,0.2c-4.4,0.5-9.7,0.5-13.8,1.1c2-2.3,2.2-6.3,2.4-9.5c0.1-1.2,0.5-2.8,0.2-3.4c-1.6,0.9-1,8.4-2.6,11.2
			c-0.3,0.6-0.5,1-1.1,1.6c-0.8,0.7-1.4,1-1.3,1.5C149.2,65.7,149.6,65.3,150.3,64.9z"/>
		<path class="st0" d="M196.1,72.7c1.1-0.1,4.2-0.4,5.1-1.2c-0.3-0.5-0.9-0.3-1.5-0.2c-0.7,0.1-4.4,0.5-4.8,0.4
			c0.8-1.1,1.3-2.1,1.6-3.3c0.2-0.7,0.8-3,0.1-3.7c-0.5,0.3-0.4,0.4-0.5,0.9c-0.3,2.2-1.1,4.3-2.2,6.3l-2.1,0.4
			c0.1-0.5,0.4-1.1,0.6-1.6l0.5-1.5c1-3.5,1.3-4.3,2.7-7.5c0.2-0.4,0.6-1.1,0.5-1.5c-1.1,0.3-2,2.9-2.7,4c-0.5,1-1.8,6.6-2.8,8.2
			c-0.6,1.1-1,1.2-0.9,1.6c0.8,0,1.3-0.8,1.6-1.3C192.9,73.1,194.4,72.9,196.1,72.7z"/>
		<path class="st0" d="M124.6,40.2c-0.5-0.7-1.7-1.1-2.4-1.7c-1.5-1.2-3.1-3.2-4.3-4.8c-0.7-0.8-1.5-1.6-2.1-2.4
			c0.6,0,1.2,0.1,1.8,0.1c3.9,0.1,5.8-0.5,9.4-0.9c1.1-0.1,2.8-0.1,3.8-0.4c-0.1-0.5-1.2-0.5-1.6-0.5c-0.6,0-1.2,0-1.9,0
			c-2.5,0.1-5.4,0.7-8,0.9c-1.3,0.1-2.6,0-4,0.4c-0.5-0.5-1.7-1.4-2.1-1.2c0,0.5,0.9,1.2,1.3,1.6c0.5,0.5,0.9,1,1.4,1.5
			c1.5,1.8,3.6,4.8,5.4,6.1C121.9,39.3,123.8,40.7,124.6,40.2z"/>
		<path class="st0" d="M118.5,113.2c-0.1,1-0.5,4-0.1,4.7c0.6-0.3,0.5-0.9,0.7-1.5c0.3-1.4,0.6-3.8,0.7-5.1c0.1-1.6,0.9-6.2,0.6-7.1
			c-0.8,0.4-1.1,2.9-1.2,3.8c-1.4,0.6-2.4,1.4-3.6,2.2c-1.8,1.1-9.9,5.7-9.6,6.9c0.7,0.1,2.8-1.5,3.4-2c1.2-0.7,2.3-1.4,3.4-2.1
			s2.2-1.4,3.3-2.1l2.9-2.3L118.5,113.2z"/>
		<path class="st0" d="M114,106c-1.9,0.8-4.7,3.1-6.2,4.4c-1.7,1.5-3.3,3.3-4.7,5c-1.5,1.8-2.7,3.5-4.1,5.2
			c-0.4,0.6-3.6,4.7-3.4,5.5c0.8-0.2,5.2-6.4,6.4-7.9c2.4-3,4.1-5,7-7.7c0.9-0.8,1.9-1.6,2.9-2.4c0.5-0.4,2.9-1.9,3-2.3
			C114.7,105.8,114.6,105.8,114,106z"/>
		<path class="st0" d="M252.3,66.8l-0.1-0.2c-1.7,0-6.5,3-8.2,4c-2.7,1.6-4.3,2.6-7.2,3.5c-1.7,0.5-0.9,0.9,0.1,0.7
			c0.8-0.1,0.6-0.2,1.2,0.2c1.7,1.2,4.9,1.4,7.1,1.2c1.1-0.1,2.5-0.7,0.6-0.8c-1.8-0.1-2.9,0-4.9-0.3c-0.7-0.1-1.7-0.4-2.3-0.6
			c2.6-0.8,7.7-4,10.4-5.6C250,68.2,251.5,67.4,252.3,66.8z"/>
		<path class="st0" d="M158.3,114.5c1.5,0.3,5.7-5.1,6.6-6.9c0.9-1.6,0.7-1.4,1.4-2.7c1.2,2.6,2.5,9.5,3.2,10.5
			c0.7-0.4,0-2.8-0.2-3.5c-0.5-2.6-1.4-5.4-2.5-7.9c-0.2-0.4-0.3-0.4-0.3-0.8c0-0.1,0.1-1-0.7-0.5c-0.4,0.3,0.1,0.2-0.3,1.2
			c-0.7,2.3-3.5,6.2-5.3,8.1l-1.8,1.8C158.3,114.1,158.2,114.1,158.3,114.5z"/>
		<path class="st0" d="M228.1,74.6c1,0.9,3.1,1.5,5.1,2.9c0.6,0.4,1.3,1.3,2,1.2c0.2-1.3-3.2-3.2-4.5-3.8c-0.5-0.2-1.4-0.4-1.8-0.8
			c2.5-0.7,7.5-5,10.7-6.8c0.8-0.4,3.4-1.6,3.7-2.2c-0.3-0.2-0.8,0-1.3,0.2c-3.8,1.5-4.2,1.9-7.6,4.4c-3.5,2.6-3.8,3.1-7.3,4.4
			C227.5,74.6,227.5,74,228.1,74.6z"/>
		<path class="st0" d="M68.4,102.5c-0.4,2.9-0.3,6.7,0.9,9.8c0.2,0.6,0.3,0.9,0.6,1.1c0.4-0.5-0.2-2.6-0.3-3.4
			c-0.2-1.1-0.4-2.2-0.4-3.4v-4.8c0.1-0.5,0.7-0.7,0.7-1.3c-0.8,0.1-2,1.3-2.6,1.8c-2,1.5-3.5,2.4-5.8,3.5c-0.8,0.4-2.8,1.1-2.8,1.8
			c0.4,0.1,1.1-0.1,1.6-0.3c2.4-1,3.5-1.3,5.8-2.8c0.5-0.3,0.9-0.7,1.3-1C67.7,103.1,68,102.8,68.4,102.5z"/>
		<path class="st0" d="M182.8,48.8c0.2-0.6,0.5-1.3,0.7-2.1c0.3-0.9,1.2-4.8,0.9-5.4c-0.2-0.6-0.7-0.2-0.8,0.2l-1.7,7.4
			c-0.1,0.5,0.2,0.1-0.2,0.5c-0.2,0.2-0.2,0-0.3,0.4c0.6,0.7,7.3-2.6,8.2-3c1.2-0.6,6.1-3.5,5.7-4.7c-0.6,0.1-2.1,1.4-2.7,1.8
			c-1,0.6-2,1.2-3,1.8C188.4,46.3,184,48.4,182.8,48.8z"/>
		<path class="st0" d="M127.9,27.9c1.3-0.2,5.2-0.3,6-0.6c-0.2-0.4-0.2-0.3-0.6-0.3c-1-0.2-2.7-0.2-3.7-0.1
			c-4.8,0.3-9.9,1.6-13.8,1.7c-1.8,0-5.1-0.5-5.6-0.4c0.2,0.4,0.7,0.6,1.1,0.7C117,30.4,122.1,28.7,127.9,27.9z"/>
		<path class="st0" d="M168.1,20.2c-0.3-0.7-1.8-0.8-2.6-0.7c-1,0.1-2,0.3-3.1,0.4l-5.9,0.3l-0.3-0.5c0.9-0.2,3.6-0.7,3.9-1.7
			c-0.2-0.3-0.2-0.2-0.6-0.2l-2.2,0.7c-0.6,0.2-2.4,0.3-2.6,0.9c0.3,0.4,0.3,0.3,0.8,0.3c0.3,1.6,1.4,3.4,2.3,4.7
			c0.5,0.8,0.6,1.1,1.1,0.9c0.3-1-1.6-3.4-2-4.4c4.1,0.1,4,0.3,8.3-0.4C167,20.1,167.2,20.6,168.1,20.2z"/>
		<path class="st0" d="M161.7,105.8c-1.5,0.4-6,8.1-6.6,9.2l-1,1.9c-0.5,0.8-1,2.2-1.4,3.1c-0.2,0.5-1.7,4.8-0.5,5.5
			c0.2-0.2,0.2-0.3,0.2-0.7c0.4-3.2,1.1-4.3,2.4-7.1l3.4-6c1-1.6,2.1-3.1,3.1-4.6C161.7,106.4,161.9,106.2,161.7,105.8z"/>
		<path class="st0" d="M135.4,139c0.6,0,3.5,1,4.4,1.3c0.3,0.1,0.4,0.1,0.8-0.1c-0.5-1.1-4.5-2.1-5.7-2.4c-0.7-0.2-1.4-0.5-2-0.7
			c-0.1-0.6,0.2-1.1-0.2-1.6c-0.4,0.1-0.5,0.3-0.6,0.6c-0.1,0.6,0.1,0.3-0.4,0.8c0.2,0.7,0.5,3.6,1.5,4.9c0.2,0.3,0.2,0.3,0.6,0.2
			c0.1-0.8-0.8-2.9-0.8-3.9c0.7,0.2,1,0.5,1.8,0.6c0.1,1.6-0.2,1.6,1,3.9c0.3,0.6,0.7,1.1,1,1.7c0.3,0.5,0.7,1.3,1.2,1.2
			c0.4-0.7-1.5-3.5-2-4.7C135.6,140.1,135.6,139.7,135.4,139z"/>
		<path class="st0" d="M200.5,128.9c-0.4-1-2-2.7-2.9-5.1l1.8-0.2c3.3-0.6,5.2-1.6,9.3-0.8c0.6,0.1,1,0.2,1.6,0.4
			c0.5,0.1,1.1,0.4,1.7,0.2c-0.4-0.7-2.6-1.3-3.4-1.5c-5.4-1-7.2,0.8-10.6,1.1c-0.7,0.1-1.5-0.3-2-0.1c0.1,0.5,0.6,0.5,0.9,0.6
			c0.3,1.2,0,0.7,0.6,2.1c0.4,0.9,1.7,2.9,2.4,3.6C200.1,129.6,200.8,129.7,200.5,128.9z"/>
		<path class="st0" d="M54.8,39.7c-0.6,0.2-0.8,0.6-1.2,1l-3.1,2.9c-2.6,2.4-7.8,7.3-9.6,10.2c-0.4,0.6-1.2,1.7-1,2.4
			c0.6-0.3,2.6-3.2,3.6-4.2c1.2-1.4,2.6-2.7,3.9-4.1c1.3-1.3,2.7-2.6,4.1-4C52.3,43.2,55.1,40.7,54.8,39.7z"/>
		<path class="st0" d="M78.1,82.4c-0.7,0.7,0.2,4.3,0.5,5.3c0.2,0.8,1.7,4.8,3,4.4c0-0.5-1-1.9-1.3-2.5c-0.7-1.4-1.2-4.1-1.5-5.7
			c-0.1-0.7-0.1-0.6,0.5-0.5c2.2,0.6,5.4,2.4,7.2,3.9c0.8,0.7,1.3,1.6,1.9,1.5c0.3-1.5-3.7-4.1-4.4-4.5l-2.7-1.2
			c-1-0.4-1.4-0.4-2.3-0.4C78,82.7,78.7,82.5,78.1,82.4z"/>
		<path class="st0" d="M186.1,140.5c0.1-0.5,0.9-1.2,0.9-1.5c-0.3-1.1-3.7,3.5-3.7,3.6c-1,1.4-1.8,2.9-2.9,4.4
			c-0.5,0.7-0.9,1-0.8,1.6c2.2-0.7,4.6-6.1,6-7.4c0.2,0.8,2,8.1,3,8.5c0.5-0.4,0-1.5-0.1-2c-0.2-0.8-0.4-1.6-0.7-2.4
			C187.3,143.6,186.8,142.1,186.1,140.5z"/>
		<path class="st0" d="M166.1,41.2c-0.7,0-1.8,1.5-2.1,1.9c-1.4,1.8-2.8,5.3-3.3,7.5l-1.4,6.8c-0.1,0.5-0.2,0.9-0.3,1.4
			c-0.2,0.6-0.3,1.4-0.7,1.9c-0.3,0.4-0.4,0.2-0.3,0.6c1.5,0.1,2.1-3.7,2.3-4.8c0.4-1.8,0.7-3.7,1.2-5.4c0.3-0.9,0.5-1.8,0.8-2.6
			c0.2-0.7,0.6-1.9,1-2.5c0.5-0.8,0.6-1.3,1.3-2.4C165.2,42.7,166.2,41.7,166.1,41.2z"/>
		<path class="st0" d="M182.9,33.9c-1.4,0.6-2.7,4.5-3.1,6c-1,3.6-1.6,8.3-3,11.5c-0.2,0.4-0.9,2-0.9,2.4c0.5,0,0.8-0.7,1.1-1
			l0.6-1.1c2-3.8,2.4-10.6,4.4-15.3C182.3,35.7,183,34.6,182.9,33.9z"/>
		<path class="st0" d="M100.2,3.9c-0.6,0.2-0.7,0.6-1,1.1c-2.5,4-2.5,9.7-3.7,14.1c-0.8,2.9-2.2,3.9-2.3,4.8
			c0.4,0.1,0.5-0.1,0.8-0.3c1.1-0.9,2-2.7,2.4-4c1.2-4.3,1.4-9.3,3-13.1C99.5,5.8,100.3,4.4,100.2,3.9z"/>
		<path class="st0" d="M164.3,139.1c0-0.5-0.9-1.6-1.2-2.1c-0.5-0.8-0.8-1.7-1.2-2.6c-0.3-0.8-0.5-1.6-0.7-2.5
			c-0.1-0.6-0.1-2-0.4-2.5c-0.6,0.1-0.6,0.8-0.5,1.3c-0.8,0-0.7,0.8-1.3,2.2c-0.8,1.8-3.5,5.9-2.8,7.5c0.4-0.1,0.4-0.2,0.7-0.9
			s0.3-0.9,0.7-1.6l2.4-4.6c0.1-0.3,0.1-0.3,0.2-0.5l0.2-0.6c0.5,1.7,0.3,2.3,1.4,4.4C162.1,137.2,163.7,139.8,164.3,139.1z"/>
		<path class="st0" d="M135.3,92.4c-0.8,0.5-1,0.6-0.9,1.1c1.8-0.1,3.4-2,4.1-3.2c0.4-0.7,0.8-1.4,1-2.2l0.7-2.3
			c0.2,0.1,0.2,0,0.4,0.4c1.2,1.8,2.4,3.2,3.5,4.9c0.3,0.5,0.7,1.6,1.3,1.8c1.1-0.9-3.2-6.1-3.9-7c-0.3-0.4-0.5-0.7-0.8-1.1
			c-0.5-0.7-0.5-0.9-0.9-0.8c-0.4,0.6,0.3,0.6-0.1,1.4C138.4,87.4,138.4,90.3,135.3,92.4z"/>
		<path class="st0" d="M71.6,49.8C67.1,50,68,50,68.1,50.6v0.3c0.1,0.6,2.1,3.8,2.7,4.5s0.9,1.1,1.4,0.9c-0.1-0.8-2.9-4.9-3.5-5.6
			c0.4,0,1.2,0.1,1.6,0.1c1.9,0.1,6.2-0.2,8.2-0.3c0.7,0,2.7-0.1,3.2-0.5c-0.1-0.4-0.3-0.4-0.7-0.5C79.2,49.3,73.7,49.7,71.6,49.8z"
			/>
		<path class="st0" d="M113.8,120.9c-0.5,0.1-0.7,0.5-0.9,0.9c-1.1,1.8-1.5,3.9-2,6c-0.8,3.5-1.1,6.4-2.6,9.9
			c-0.2,0.5-0.9,1.9-0.8,2.3c0.8-0.2,1.8-2.4,2.1-3.2l0.6-1.8c0.1-0.2,0.1-0.4,0.2-0.6c0.6-1.8,1.5-6.9,2-8.7
			c0.2-0.9,0.4-1.6,0.8-2.4C113.4,122.8,114,121.3,113.8,120.9z"/>
		<path class="st0" d="M116.2,0l-0.6,2.3c-0.5,1.7-0.6,2-1.3,3.4c-0.3,0.6-1,1.7-0.9,2.3c1.6-0.4,3.3-5.6,4-8H116.2z"/>
		<path class="st0" d="M213,178.1l0.3-0.1c0.6-2.2-2.8-5.8-4.2-7.2c0.1-0.2,0.5-1.3,0.3-1.6c-0.3-0.7-0.9,0.9-1,1
			c-1,1.7-3.6,8.2-1.9,10c0.6-0.3,0.3-1,0.3-2.1c0.1-0.9,0.2-1.5,0.4-2.2c0.1-0.5,1.1-3.3,1.4-3.9l0.1-0.2c0,0,0,0,0-0.1l3.3,4.5
			C212.5,176.9,212.7,177.7,213,178.1z"/>
		<path class="st0" d="M100.9,16c-0.8,1.4-1.1,2.4-2.2,3.7c-0.2,0.3-0.3,0.6-0.5,0.7c-0.4,0.3-0.6,0.2-0.5,0.7
			c0.6,0.2,12.4-3,13.5-4.1c0.3-0.3,0.1-0.1,0.2-0.3c-0.2-0.1,0.2-0.1-0.3-0.1c-0.4,0-10.8,3.1-11.1,3.2c0.7-0.9,2.4-3.3,1.7-4.4
			C101,15.4,101,15.7,100.9,16z"/>
		<path class="st0" d="M87.7,62.5c0.1,0.5,0.4,0.4,0.7,1c1,2,1.9,2.8,3.6,4.2c0.7,0.6,1.2,1.3,1.7,0.9c0-0.8-1.6-2.1-2.1-2.6
			c-0.7-0.7-1.7-1.6-2.2-2.4c0.7,0,1.8,0.3,2.7,0.3c1.7,0.1,3.8,0.4,5.3,0.7c1.1,0.3,2.1,1,2.5,0.5c-0.1-0.7-2-1.3-2.6-1.5
			c-1.1-0.3-1.9-0.4-3.1-0.5c-1-0.1-2.2-0.2-3.3-0.2C90,62.8,88.2,62.3,87.7,62.5z"/>
		<path class="st0" d="M206.9,161.2c-0.3,0.5-1.2,4.3-1.4,5.1l-1.2,3.7c-0.6,1.6,0,1.4,0.3,1c0.1-0.1,0.2-0.3,0.3-0.5
			c0.9-1.7,1.5-3.6,2-5.5l0.5-2.3c1.5,1.7,2.9,2.2,4.4,4.4c0.2,0.3,0.9,1.5,1.1,1.7c0.2,0.2,0,0.1,0.3,0.1c0.2-0.3,0.2-0.2,0.1-0.6
			l-1-2.1c-0.5-0.7-1.1-1.4-1.7-2c-0.7-0.6-2.3-1.8-2.7-2.3C207.5,161.6,207.3,161.3,206.9,161.2z"/>
		<path class="st0" d="M120.8,26.4c0.9,0,4.6,0,5-0.3c-0.2-0.3-0.1-0.3-0.5-0.4c-5-0.8-10,0.4-14.5,0.3c-0.8,0-4.3-0.3-4.9,0
			c0.3,0.5,1.6,0.6,2.2,0.7C113,27.4,116.3,26.5,120.8,26.4z"/>
		<path class="st0" d="M143.8,33.8c-0.3-0.5-0.5-0.5-1-0.6c-0.3-0.1-0.7-0.2-1.1-0.3c-2-0.3-5.1-0.2-7.1,0c-1.6,0.2-3.3,0.3-5,0.3
			c-0.8,0-1.6,0-2.4,0c-0.7,0-1.8-0.2-2.5,0.1c0.2,0.4,0.2,0.3,0.5,0.4c1.3,0.4,2.6,0.4,4,0.4c3.5,0.1,9-0.8,12.1-0.4
			C142,33.8,143.3,34.1,143.8,33.8z"/>
		<path class="st0" d="M139.1,142.6c1,0.1,3.3,1.5,4.4,2.1c0.3,0.1,0.6,0.4,0.8,0.5c0.8,0.5,1.2,0.9,1.9,0.7
			c-0.4-1.1-3.3-2.6-4.1-3.1c-0.7-0.4-3.9-1.8-4.9-1.2c0.2,0.6,0.6,0.5,0.9,0.7c0,0.9,1.8,4,2.2,4.8c0.3,0.6,0.6,1.3,0.9,1.8
			c0.4,0.6,0.7,1,1.4,0.9C142.5,148.2,140,144.8,139.1,142.6z"/>
		<path class="st0" d="M201.6,126.2c1.1,0,8.2-0.6,9-1v-0.5c-0.6-0.4-3.6,0-4.6,0.1s-4.2,0.3-4.9,0.8c-0.3-0.4-0.7-0.7-1-0.9
			c-0.5-0.3-0.7-0.6-1.2-0.3c0.1,0.6,0.8,0.9,1.1,1.4c0.4,0.5,0.8,1.1,1.2,1.7c0.8,1.3,1.3,2.2,2.4,3c0.2,0.1,1.4,0.9,1.5,0.3
			c0-0.3-1-1-1.2-1.2C203.2,128.8,201.9,126.9,201.6,126.2z"/>
		<path class="st0" d="M43.8,62.3c-0.7-0.9-4,0.2-5.1,0.8c-1.4,0.8-2.9,2.1-3.8,3.2c-1,1.4-1.8,2.4-2.7,3.8c-0.2,0.4-0.4,0.6-0.6,1
			c-0.3,0.5-1.3,2.2-1.3,2.7l0.1,0.2c1.2-0.2,3.8-6.9,8.4-9.9c0.7-0.5,1.7-0.9,2.6-1.1C42,62.9,43.6,62.7,43.8,62.3z"/>
		<path class="st0" d="M52.3,56.7c-0.3,0.5,0.2,1.8,0.3,2.5c0.7,3.3,0.7,8,0.4,11.3c-0.1,1.3-0.6,3.6-0.4,4.4c0.5-0.3,0.5-0.6,0.7-1
			c0.4-1.4,0.5-1.6,0.7-3.1c0.4-2.9,0.4-6.2,0-9.2C53.8,60.7,53.3,57,52.3,56.7z"/>
		<path class="st0" d="M124.7,2.5c-0.7,0.1-2.8,2-3.5,2.5c-2.4,1.9-5,3.4-7.7,4.9c-1,0.5-3.9,1.8-4,2.4c0.7,0.2,2.6-0.7,3.4-1.1
			c3-1.2,7.3-4,9.7-6.2C123.1,4.6,124.8,3.3,124.7,2.5z"/>
		<path class="st0" d="M134.5,113.4c-0.5-1.4-2.3-2.3-3.2-2.9c-4-2.3-2.8-3-3.7-3.5c-0.4,0.5,0,1.8,0,2.4c0.1,2.5-1,4.3,0.1,7
			c0.2,0.4,0.3,0.7,0.6,0.9c0.4-0.4,0-1.4-0.1-1.9c-0.3-2,0.5-3.6,0.3-5.4c0.3,0.1,0.4,0.3,0.7,0.6c0.2,0.2,0.5,0.4,0.7,0.5
			c0.9,0.6,2.1,1.1,3.1,1.9c0.4,0.4,0.9,1.2,1.4,1.2C134.6,113.8,134.6,113.7,134.5,113.4z"/>
		<path class="st0" d="M227.4,77.1c0.9,0.4,3,1.6,3.8,0.7c-0.3-0.6-1.1-0.6-1.6-0.8c-0.6-0.3-1.1-0.5-1.6-0.8s-2.6-1.4-2.9-2.1
			c1.7-0.7,2.7-1.4,3.9-2.5c0.5-0.4,2.9-2.6,2.3-3c-0.2-0.1,0.1-0.1-0.3,0c-0.3,0.1-1.3,1.1-1.6,1.3c-0.5,0.5-1.2,1.1-1.8,1.5
			c-0.7,0.5-1.3,1-2,1.4c-1.3,0.8-2,0.7-2.6,1.1c0.2,0.6,0.7,0.4,1.3,0.3C225,75.7,226.4,76.7,227.4,77.1z"/>
		<path class="st0" d="M206.6,159.6l0.5,0.3c0.4,0.3,1,0.7,1.5,0.5c0.1-0.7-0.3-0.8-0.8-1.2c-0.4-0.3-0.8-0.7-1.3-0.9
			c-0.5,0.3-0.7,1.5-1.3,2.6l-1.5,2.6c-1.3,2.6-2.8,7.4-2.3,9.8c0.5-0.4,0.9-2.8,1.1-3.5c0.1-0.7,0.3-1.2,0.5-1.8l0.6-1.8
			C204.2,164.6,206.6,161.2,206.6,159.6z"/>
		<path class="st0" d="M118.4,158.7c-0.5,0.2-0.4,0.6-0.4,1.2c0,0.7,0,0.6-0.5,1.2c-0.5,0.6-1.5,1.3-2.2,1.9c-0.9,0.6-4,2.7-3.4,4.1
			c0.7-0.3,0.9-0.8,1.4-1.3c0.8-0.7,2.3-1.7,3.2-2.4c0.5-0.4,1-1,1.5-1.3c0.1,0.7-0.2,3.3-0.3,4.1c-0.1,0.5-0.3,0.9,0,1.5
			c0.5-0.2,0.5-0.5,0.7-0.9c0.1-0.4,0.2-0.7,0.3-1.1c0.3-1.6,0.3-3.2,0.3-4.8c0-0.5,0.2-0.9,0.1-1.2
			C119.1,159.7,118.7,158.9,118.4,158.7z"/>
		<path class="st0" d="M193.8,80.8c0.5,0.9,3,5.4,4,4c-0.2-0.5-0.4-0.4-0.8-0.8c-0.6-0.6-1.9-2.7-2.2-3.4c2.7-0.1,4.8-1.1,7.4-1.7
			c0.7-0.2,1.8-0.2,2.4-0.7c-0.2-0.3-0.2-0.3-0.6-0.3c-3.3-0.2-8.8,2.6-9.8,1.7c-0.4-0.3-0.6-0.9-1-0.7
			C192.7,79.3,193.6,80.4,193.8,80.8z"/>
		<path class="st0" d="M194.3,90.4c1.2,0,0.8-0.1,0.9-0.3c-0.2-0.6-2.9-0.4-3.7-0.3c-2.8,0.5-6,2.3-8.9,3.5
			c-1.5,0.6-2.9,0.7-4.4,1.3c0.2,0.4,0.4,0.4,0.9,0.3c1,0,2.2-0.2,3.1-0.5c2.8-0.8,6.6-3,9.1-3.6c0.8-0.2,1.3-0.3,2.1-0.3
			C193.7,90.5,193.9,90.4,194.3,90.4z"/>
		<path class="st0" d="M111.2,0c-0.4,2.7-0.4,5.5-1.5,9.2c-0.5,1.6-1.7,3-1.6,3.7c1.1-0.1,2.1-2.5,2.4-3.3c0.9-2.2,1.3-5.8,1.5-8.3
			c0-0.3,0.1-0.8,0.2-1.4h-1V0z"/>
		<path class="st0" d="M61.3,111.1c-0.7,0.3-1.7,0.5-2.5,0.8c-2,0.8-4.6,2.3-5.8,3.9c-1.5,1.9-1.6,3-2.2,4.5c-0.3,0.8-0.9,1.9-1,2.6
			c0.9,0,1.9-2.8,2.1-3.3c0.2-0.4,0.3-0.5,0.4-0.9c1.3-3.2,4.1-4.9,7.2-6.4c0.4-0.2,0.8-0.4,1.2-0.6
			C61.3,111.7,61.4,111.7,61.3,111.1z"/>
		<path class="st0" d="M103,127.8c-1.9,0.6-5.2,4.6-6.3,6.3c-1,1.6-1.2,2-2.1,3.6c-0.4,0.7-1.8,3.2-1.4,3.8c0.5-0.3,1-1.3,1.3-1.7
			c2-3.3,2.9-5.5,5.8-8.7C101.1,130.3,103.2,128.4,103,127.8z"/>
		<path class="st0" d="M44.3,79.2c-0.4,0.1-0.7,0.8-1.4,1.5c-1.5,1.7-10.1,8.6-9.5,11c0.6-0.2,1.2-1.1,1.5-1.6
			C37.3,86.6,45.2,81,44.3,79.2z"/>
		<path class="st0" d="M142.4,0c-0.3,2.5-0.3,5.8,0.4,6.4c0.5-0.3,0.3-1.6,0.3-2.1c0-1.4,0-2.9,0.3-4.4L142.4,0L142.4,0z"/>
		<path class="st0" d="M91.9,56.5c0.3,0.1,0.6,0.3,0.9,0.1c0.2-0.8-4.4-2.7-5.3-3.1c-1.9-0.7-9.2-2.3-10.2-1.7v0.1V52
			c0.2,0.2,0.5,0.2,0.7,0.3l3.1,0.6c2.8,0.5,4.5,1,7,1.9C90.3,55.6,90,55.6,91.9,56.5z"/>
		<path class="st0" d="M40.5,67.7c-0.7-0.1-3.3,2-3.8,2.5c-2.7,2.4-4.2,5.2-6.2,8.1c-0.3,0.4-1,1.2-0.8,1.7c0.9-0.2,2.4-2.5,2.8-3.1
			c2.5-3.7,3.2-4.8,6.6-7.8C39.6,68.9,40.5,68.2,40.5,67.7z"/>
		<path class="st0" d="M109.6,127.5c-1.2,0.1-7.8,5.8-9.1,6.9c-0.6,0.5-2.8,2.2-2.3,2.7c0.4,0.3,2.7-1.7,3.1-2.1l7.3-6
			C109.4,128.3,109.9,128.1,109.6,127.5z"/>
		<path class="st0" d="M174.1,85.6c1.3-0.4,2.3,0.2,3.6-0.4c-0.2-0.6-2.5-0.7-3.3-0.7c-1.1,0.1-2.8,0.7-4,1.1
			c-0.8,0.2-6.9,2-7.7,2.5l-0.3,0.3c0.2,0.3-0.1,0.2,0.4,0.2c0.4,0,3-0.7,3.4-0.8c1.3-0.3,2.6-0.7,3.9-1.1
			C171.4,86.4,172.7,86,174.1,85.6z"/>
		<path class="st0" d="M121,155.1c-0.2,0-1.3,1.1-1.7,1.4c-1.9,1.4-3.5,2.2-5.2,3.4c-0.4,0.3-0.7,0.4-0.6,0.9
			c0.8,0.4,4.7-2.2,5.6-2.9c0.6-0.5,1-0.9,1.6-1.4c0.1,1.2-0.2,4.1,0.9,5.1c0.4-0.2,0.4-0.3,0.4-0.7c0-0.3-0.1-0.5-0.1-0.9
			C121.6,158.4,121.8,155.8,121,155.1z"/>
		<path class="st0" d="M159.1,119.3c-1.2,0.2-4.2,5-4.9,6.1c-0.7,1.3-2.8,5.6-1.2,7.7c0.5-0.3,0.2,0.1,0.3-0.4
			c0.1-0.9-0.8-2.2,1.9-6.8c0.6-1.1,2.3-3.7,3.1-4.8C158.7,120.5,159.3,119.9,159.1,119.3z"/>
		<path class="st0" d="M132.1,42.8c0.6,0.3,2.5,1.5,3.1,1.2c-0.1-0.5-1.1-1-1.4-1.2c-3.6-2.1-6.1-4.4-8.5-7.9
			c-0.2-0.3-0.4-0.6-0.6-0.9c-0.6-0.8-0.5-0.6-0.7-0.5c0,0.3,0,0.2,0.1,0.5C125.5,37.8,128.8,40.9,132.1,42.8z"/>
		<path class="st0" d="M148,0c0.2,0.5,0.3,1,0.7,1.2c0.2-0.2,0.2-0.6,0.1-1.2H148z"/>
		<path class="st0" d="M165.3,107.5c-0.2,0.1-0.3-0.1-0.3,0.7c0,0.3,0,0.6,0,0.9c0,0.6,0.1,1.2,0.2,1.8c-0.7,0.3-1.1,1.4-1.9,2.4
			c-0.3,0.4-0.6,0.8-0.9,1.2c-0.3,0.4-0.8,0.9-0.4,1.4c0.7-0.1,1.7-1.4,2.1-1.9c0.6-0.7,1-1.6,1.2-2.3c0.6,2,1.2,3.4,2.4,5.2
			c0.2-0.2,0.4,0,0.1-1c-0.1-0.4-0.3-0.9-0.4-1.2c-0.3-0.8-0.6-1.7-0.9-2.5C166.3,111.2,165.8,107.9,165.3,107.5z"/>
		<path class="st0" d="M65.8,108.8c-0.7,0.3-1.7,2-2.3,2.6c-1.8,2-3.7,3.2-5.9,4.7c-0.7,0.5-2.7,1.7-2.7,2.4
			c1.1,0.3,6.3-3.6,7.2-4.4C63.1,113.3,66.3,110.1,65.8,108.8z"/>
		<path class="st0" d="M64.1,113.4c-0.5,0.2-0.7,1.2-0.8,1.7c-0.6,3-2,7.5-3.2,10.4c-0.2,0.4-0.6,1.3-0.3,1.7c1.1-0.4,2.8-5.4,3-6.5
			C63.3,119,64.7,114.8,64.1,113.4z"/>
		<path class="st0" d="M71.8,94.7c-0.6,0.2-1.2,1.4-2.3,2.2c-1.8,1.5-4.1,2.8-6.2,3.9c-0.8,0.4-2.9,1.3-3.1,1.9
			c0.3,0.2,0.7,0.1,1.3-0.1c2.7-1.1,4.9-2.1,7.3-3.8C69.5,98.3,72.4,96,71.8,94.7z"/>
		<path class="st0" d="M62.2,117.1c0,0-0.1-0.1-0.5,0.1l-1,0.9c-2.2,2.1-6.2,3.7-8.9,6.6c-0.6,0.6-0.9,0.9-0.9,1.4
			c0.4,0,0.6-0.2,0.9-0.4c2.4-1.8,2-1.8,5.3-3.8c1.1-0.7,2.2-1.4,3.1-2.2C61,119.1,62.4,117.8,62.2,117.1z"/>
		<path class="st0" d="M92.8,59.4c0.3,0.1,0.5,0.2,0.8,0.3s0.5,0.2,0.8,0.3c0.4,0.2,1.1,0.6,1.5,0.9c0.4,0.3,0.9,1.1,1.3,1.1
			c0.3-1.2-1.8-2.5-2.4-2.9c-0.6-0.3-1.1-0.4-1.7-0.6c-1.8-0.6-3.4-0.8-5.4-0.9c-0.6-0.1-1.2-0.1-1.9-0.1c-0.7,0-1.4-0.2-1.7,0.3
			c0.3,0.6,1,0.5,1.7,0.5c0.6,0.1,1.2,0.1,1.8,0.2C89.3,58.7,91.2,58.9,92.8,59.4z"/>
		<path class="st0" d="M104.4,136c-0.4,0.1-2.3,1.8-2.9,2.1c-1.1,0.8-2.1,1.4-3.1,2.2c-1.4,1.1-2.8,2.3-3.9,3.7
			c-0.3,0.4-0.8,1-0.6,1.4c0.5,0,1.7-1.6,2.5-2.3c0.9-0.8,1.9-1.6,2.9-2.3C100.4,140.1,105.4,136.9,104.4,136z"/>
		<path class="st0" d="M202,55.9c-0.9,0.1-2.2,2.1-2.5,2.8c-1.1,2.7-1.2,4-1.3,7.2c0,1.4-0.6,3.2-0.3,3.7c1.3-0.5,1.3-5.3,1.5-7.1
			c0.3-2.1,0.8-3.4,1.8-5C201.6,57,202.2,56.2,202,55.9z"/>
		<path class="st0" d="M66.5,107.4c-0.6,0.4-0.3,2.3-0.3,3.6c0,3-0.2,6-1.1,8.8c-0.2,0.6-0.4,1.2-0.2,1.7c1.3-0.6,2-5.1,2.2-6.6
			C67.2,113.3,67.4,108.8,66.5,107.4z"/>
		<path class="st0" d="M188.7,43.9c0.5-0.1,0.6-1,0.6-1.5c0.1-0.6,0.2-1.2,0.2-1.8c0.1-1.2,0.5-2.6,0.8-3.5c0.1-0.3,0.2-0.5,0.3-0.8
			c0.2-0.6,0.8-1.8,1.2-2.4l1.5-2.2c1-1.7-1-0.2-2.4,1.9c-0.6,1-1.2,2.2-1.5,3.2s-0.6,2.4-0.7,3.5l-0.2,3.3L188.7,43.9z"/>
		<path class="st0" d="M139.9,36.3c0.7,0,3.1,0.1,3.5-0.2c-0.1-0.6-1-0.6-1.5-0.7c-1.4-0.2-3.9,0-5.3,0.1c-1.2,0.1-2.4,0.2-3.7,0.2
			c-1.5,0-2.8-0.3-3.4-0.1c0.2,0.5,0.3,0.5,0.6,0.6C133.2,37.2,136.9,36.4,139.9,36.3z"/>
		<path class="st0" d="M210.2,61.8c-0.2,1,1.2-0.6,1.3-0.6c1.4-1.8,1.8-6,2.4-8.4c0.2-0.9,1-3.1,1-3.4c0-1.1-1,0.7-1,0.8
			c-0.5,0.8-0.9,2.3-1.1,3.3c-0.4,1.6-0.6,3.5-1,5.2C211.4,59.9,210.2,61.8,210.2,61.8z"/>
		<path class="st0" d="M103,0c-0.2,1.2-0.4,2.3-0.6,3.8c-0.2,1.1-0.7,2.7-0.4,3.4c0.4-0.2,0.7-1.1,0.8-1.5c0.5-1.9,0.9-3,1.2-5.1
			c0-0.2,0.1-0.4,0.1-0.7H103V0z"/>
		<path class="st0" d="M172.4,44.7c0.5-0.2,0.8-1,0.9-1.4c1-2.6,2.7-5.1,4-7.5c0.4-0.7,1.8-2.7,1.3-2.9
			C177.9,32.5,171.2,42.9,172.4,44.7z"/>
		<path class="st0" d="M203.5,152.7c-1,0.5-1.8,2.5-2.3,3.4l-1,2.2c-0.3,0.6-2.3,5.6-1.4,6.4c0.5-0.2,0.9-2.1,1.2-3
			c0.6-2,1.2-3.3,2-5.2c0.1-0.3,0.2-0.4,0.4-0.7c0.1-0.2,0.2-0.5,0.3-0.8C203,154.4,203.8,153.5,203.5,152.7z"/>
		<path class="st0" d="M211.3,67c-1.5-0.3-4.5,2.2-10.2,2.3c-0.1,0-3.8,0-2.4,0.6c0.2,0.1,1.2,0.2,1.5,0.2c2.7,0.2,5.6-0.1,8.1-1.4
			C208.8,68.6,211.3,67.8,211.3,67z"/>
		<path class="st0" d="M203.8,158.3c-1.6,0.6-3.1,3.9-3.5,5.6c-0.2,0.8-1,6.3-0.4,6.8c1-0.6,0.6-6.4,2.4-9.5l1.3-2.1
			C203.8,158.8,203.9,158.7,203.8,158.3z"/>
		<path class="st0" d="M218.1,60.8c-0.6,0.1-1.9,1.1-2.7,1.5c-3.8,1.5-8.1,1.2-8.8,1.9c0.3,0.6,2.1,0.4,2.9,0.4
			c1.1,0,2.1-0.2,3.2-0.4c1.1-0.2,2.4-0.6,3.5-1.2C216.7,62.6,218.3,61.7,218.1,60.8z"/>
		<path class="st0" d="M107.2,132.2c-0.7,0.3-0.5,1.3-1,2.9c-0.3,1.3-1.4,4.4-1.9,5.7c-0.3,0.6-1.3,2.7-0.7,2.7
			c0.8,0.1,2.5-4.5,2.8-5.3C106.6,137.4,107.9,133.4,107.2,132.2z"/>
		<path class="st0" d="M75.2,80.6c0.2,0.3,0.1,0,0.3,0.4c0.2,0.6,0.3,3.5,1.2,3.9c0.4-0.3,0.4-0.3,0.3-0.9c0-0.3-0.1-0.7-0.1-1
			c-0.1-0.7-0.3-1.4-0.4-2.1c0.8-0.3,2.4,0.2,3.1,0.4c1.6,0.4,2.2,1.4,2.8,1c-0.1-1.6-4.3-2.9-6.2-2.3c-0.2-0.4-0.2-0.5-0.6-0.5
			C75.2,80,75.8,79.6,75.2,80.6z"/>
		<path class="st0" d="M192.1,99.1c0.7,1.2,4.9-0.1,6.2-0.4c1-0.2,2.1-0.4,3.1-0.3c1.4,0.1,2.3,0.7,2.8,0.4c-0.5-1.5-4-1.4-5.4-1.2
			c-1.6,0.3-3.5,0.9-4.9,1.2C193.1,98.8,192.8,98.8,192.1,99.1z"/>
		<path class="st0" d="M190.3,49c-1.2-0.1-5.3,2.9-8.3,4c-0.8,0.3-2.2,0.5-2.9,1.1c0.6,0.9,5.3-1,6.2-1.4c1-0.5,1.9-1.1,2.8-1.7
			C188.8,50.4,190.4,49.6,190.3,49z"/>
		<path class="st0" d="M208.9,54.1c-0.9-0.1-1.9,1.8-2.1,2.2c-0.9,2-1.1,3.8-1.5,5.9s-1.2,2-1.1,2.7c1.8,0.4,2.4-4.3,2.7-5.3
			c0.4-1.8,0.4-2.5,1.5-4.3C208.6,54.9,209,54.5,208.9,54.1z"/>
		<path class="st0" d="M78.4,60.4c-0.9-2.2-3.2-4.7-4.8-6.5c-0.3-0.3-0.6-0.6-0.9-0.9c-0.4-0.4-0.5-0.7-1-0.5
			c-0.1,0.7,1,1.9,1.5,2.5c2,2.4,2.7,3.1,4.4,5.8c0.4,0.7,0.5,1,1,0.9C78.8,61.2,78.6,60.8,78.4,60.4z"/>
		<path class="st0" d="M197.9,94c0.9,0.2,2.1,0.7,2.7,0.4c-0.5-1.3-4.5-1.8-6.1-1.8c-0.2,0-0.5,0-0.7,0c-1.3,0.1-3,0.4-4.2,1
			c-0.7,0.4-0.4,0.4-0.4,0.6c0.2,0.1-0.1,0.1,0.4,0.1l1.2-0.3C193.1,93.4,195.6,93.4,197.9,94z"/>
		<path class="st0" d="M131.7,109.3c0.7,0.7,1.3,1.5,2,2.3c0.3,0.4,1.8,2.4,2.1,1.6s-6.5-9-8.4-7.6c0.1,0.5,0.7,0.6,1.1,0.8
			C129.5,107,130.9,108.4,131.7,109.3z"/>
		<path class="st0" d="M114.2,125.5c-1.3,0.7-0.6,5.8-2.9,9.7c-1.4,2.4,0.7,1.1,1.6-1c0.4-0.9,0.6-1.7,0.9-2.8
			C114,130.4,114.6,126.3,114.2,125.5z"/>
		<path class="st0" d="M76.6,48.4c-0.7-0.9-5.2-0.4-6.1-0.4c-2.7,0.1-5.4-0.8-6.1-0.4c0.3,0.5,2.1,1,2.7,1.1c0.9,0.2,1.9,0.4,3,0.3
			c1.1,0,2.2-0.2,3.3-0.3C74.1,48.7,76.1,48.8,76.6,48.4z"/>
		<path class="st0" d="M51.8,59.6c-0.6,0.2-2.2,2.8-3.6,4.1c-2,2-3.6,2.3-4.7,3.1c-0.3,0.2-0.3,0.2-0.3,0.5c1.6,0.2,4.8-2,5.8-3
			C49.7,63.6,52.3,60.4,51.8,59.6z"/>
		<path class="st0" d="M75.6,55.6c0.3,0.6,6.9,0.9,8.2,1c0.3,0,3.1,0.3,2.5-0.6c-0.2-0.4-2.1-0.3-2.7-0.4c-0.9-0.1-1.8-0.2-2.8-0.3
			c-0.9-0.1-1.9-0.2-2.8-0.2C77.7,55.2,75.2,54.8,75.6,55.6z"/>
		<path class="st0" d="M187.5,103.3c-0.2-0.7-1.1-0.8-2-1.8c-1.7-1.7-4.4-6.3-5.7-6.3c-0.9,0,0.5,1.1,1.4,2.5
			c0.6,0.9,1.2,1.7,1.8,2.6C183.8,101.2,186.1,103.8,187.5,103.3z"/>
		<path class="st0" d="M146.9,178c-0.9-2.1-1.3-2.2-2.3-5.2c-0.3-0.8-0.5-1.6-0.7-2.4c-0.1-0.5-0.2-2.1-0.5-2.3
			c-1.1,0,0,4.4,0.4,5.4c0.4,1.1,1.8,4.5,2.8,5.1C147,178.7,147,178.4,146.9,178z"/>
		<path class="st0" d="M158.3,128.7c-1,0.2-4,4.8-4.4,7.2c-0.1,0.7-0.2,2.7,0.6,3c0.4-0.4,0-1.3,0.3-2.8c0.5-2.5,2.4-4.5,3.5-6.7
			C158.5,129.1,158.5,129,158.3,128.7z"/>
		<path class="st0" d="M114,103.3c-0.4,0.3-0.2,1,0.4,0.8c0.2-0.1,1-0.6,1.3-0.7c0.8-0.5,1.5-1,2.3-1.5c0.9-0.6,3.9-2.5,4.5-3.1
			c0.5-0.4,0.1-0.9-0.3-0.8c-0.2,0-1,0.6-1.2,0.7C119.1,99.9,115.6,102.2,114,103.3z"/>
		<path class="st0" d="M165.6,94.6c-0.9,0.4-2.7,3.4-3.5,4.5c-1.3,1.7-2.5,2.8-3.4,3.8c-0.2,0.3-0.3,0.3-0.2,0.7
			c1.7-0.6,3.6-2.9,4.6-4.2c0.8-1,1.5-2.4,2.2-3.5C165.5,95.6,165.7,95.2,165.6,94.6z"/>
		<path class="st0" d="M202.4,82.3c0.5,1.4,4.7-0.9,8.5-0.3c0.6,0.1,2.1,0.5,2.5,0.3c0-0.1,0-0.1-0.1-0.2c-0.3-0.7-3.5-1.2-4.9-1.1
			C207.4,81,203.1,81.9,202.4,82.3z"/>
		<path class="st0" d="M184.2,136.5c-1.1-0.1-4.2,4.6-5.4,6c-1.2,1.3-1.9,1.4-1.7,2.1c2.2-0.2,5.2-5.2,6.7-7
			C184,137.4,184.5,137,184.2,136.5z"/>
		<path class="st0" d="M146.9,167.4c-1.1-2.7-3.2-4.7-5.4-6.3c-0.5-0.4-2.4-1.5-1.6-0.3c0.3,0.4,2.8,2.6,3.7,3.5c1,1,1.7,2,2.4,3.2
			c0.1,0.2,0.2,0.4,0.4,0.6c0.2,0.3,0.2,0.3,0.5,0.4C147.1,168.2,147,167.9,146.9,167.4z"/>
		<path class="st0" d="M163.7,118.9c-0.4,0.3-0.3,0.3-0.3,1.2c0.1,3.2,0.9,5.6,2.3,8.5c0.2,0.4,0.5,1.1,0.9,1.1
			c0.2-0.3,0-0.8-0.1-1.2c-0.4-1.4-1.1-2.9-1.5-4.3C164.8,123.2,164.2,119.3,163.7,118.9z"/>
		<path class="st0" d="M119.6,0c-0.5,0.6-0.9,1.4-0.8,1.9c0.6-0.1,1.4-1.3,1.8-1.7c0.1-0.1,0.1-0.1,0.2-0.2C120.8,0,119.6,0,119.6,0
			z"/>
		<path class="st0" d="M151.1,0c-0.7,0.4-1.2,0.7-1.3,1c0.3,0.2,0.2,0.1,0.6,0.1c0.2,0,0.5-0.1,0.6-0.2c0.8-0.3,1.5-0.6,2.2-0.9
			C153.2,0,151.1,0,151.1,0z"/>
		<path class="st0" d="M186.9,135.6c-0.3,0.9,1.5,4.2,2,5.4c0.6,1.6,0.2,3.9,0.8,5.2c0.8-0.6,0.5-4.3,0.2-5.3
			c-0.2-0.9-1.6-3.2-2.1-4.2C187.6,136.2,187.3,135.7,186.9,135.6z"/>
		<path class="st0" d="M165.6,116.7c-0.5,0.8,2.1,5.9,2.7,7.4c0.3,0.7,0.7,2,1.2,2.3c0.7-0.6-1-4.3-1.3-5c-0.3-0.6-1.7-3.8-2.1-4.3
			C165.9,116.7,165.9,116.7,165.6,116.7z"/>
		<path class="st0" d="M172.7,48.1c-0.9,0.2-1.7,2.6-1.9,3.3c-0.3,1.3-0.4,2.8-0.7,3.8c-0.5,2-1.3,1.5-1.3,2.2
			c0.8,0.6,1.7-0.5,2.1-1.6c0.4-1,0.7-3.8,1.1-5.3c0.1-0.5,0.3-0.8,0.4-1.2C172.6,48.9,172.9,48.5,172.7,48.1z"/>
		<path class="st0" d="M159.2,15.4c-0.8-0.3-1.4,0.2-2.6,0.5c-2,0.7-4.1,1.4-6.3,1.2c-0.4,0-0.8-0.1-1.1,0.2c0.2,1,3.5,0.7,4.8,0.4
			c0.9-0.2,4.1-1.2,4.9-1.9C159.2,15.6,159.2,15.6,159.2,15.4z"/>
		<path class="st0" d="M112.5,120.5c-1.2,0.5-3,2.1-4,2.9c-0.6,0.5-1.2,1-1.9,1.4c-0.7,0.5-1.7,1-1.8,1.5c0.2,0.2,0,0.2,0.4,0.2
			c1.4,0,5.4-3.5,6.6-4.5c0.3-0.2,0.6-0.5,0.9-0.7c0.4-0.3,0.6-0.4,0.4-0.9L112.5,120.5z"/>
		<path class="st0" d="M156.8,128c1-0.2,2.9-2.8,3.6-3.6c0.6-0.7,1.1-1.2,1.6-1.9c0.3-0.3,1.7-1.8,1-2.1c-0.5-0.2-1.6,1.3-1.9,1.6
			l-4,4.8C156.8,127.3,156.6,127.5,156.8,128z"/>
		<path class="st0" d="M138.4,40.3c-1-0.6-2.2-1.4-3.1-2.2c-0.3-0.3-0.6-0.7-1.1-0.4c0,1.9,7.5,6.1,8.3,5.1c0.3-0.4-0.7-0.7-0.8-0.8
			c-0.6-0.1-0.6-0.3-1.1-0.5C139.8,41.2,139.1,40.8,138.4,40.3z"/>
		<path class="st0" d="M196,103.7c0.2-0.3-0.5-0.6-0.8-0.8c-1.6-1-1.5-0.8-3.2-2.3c-0.6-0.6-1.4-1.3-2-1.7c-1.8-1.2-3.4-0.9-1.5,0.1
			c0.4,0.2,0.7,0.4,1.1,0.7c1.7,1.5,3.1,3.1,5.2,3.8C195,103.7,195.9,104,196,103.7z"/>
		<path class="st0" d="M212.4,162.1c-0.8-1.9-3.4-4-5.1-5.1c-0.5-0.3-1.4-1.1-2-0.9c0,0.7,2.8,2.7,3.7,3.5c1.9,1.6,1.5,1.4,2.8,2.9
			C212.3,163.1,212.7,162.9,212.4,162.1z"/>
		<path class="st0" d="M174.6,95.7c-0.3-0.5-0.5-0.8-1-0.6c-0.2,1.2,2.2,3.6,2.9,4.3c3,3,5.6,2.1,3.5,1.2
			C178.2,99.9,175.8,97.3,174.6,95.7z"/>
		<path class="st0" d="M192.1,40.7c0.7-0.1,0.8-1.1,1.3-2.1l1.6-3.3c0.2-0.5,1.3-3.2,0.8-3.4c-0.5-0.2-1.1,1.7-1.3,2
			c-0.2,0.4-0.4,0.7-0.5,1.1l-1.5,3.4C192.2,38.8,191.6,40.1,192.1,40.7z"/>
		<path class="st0" d="M157.1,62.2c0.2,0.6,0.8,0.3,2,0.3c1.3-0.1,7.2,0,7.4-1.3c-0.3-0.3-0.6-0.2-1.1-0.1
			C163,61.4,157.7,61.2,157.1,62.2z"/>
		<path class="st0" d="M147.9,6.7c0.6-0.2,1.7-0.2,2.3-0.5c-0.1-0.5-0.5-0.5-1-0.5c-1.6-0.1-4.7,0.9-6.2,1.5
			c-1.3,0.5-2.1,0.5-2.1,1.2c0.5,0.5,1.6,0,2.2-0.2C144.8,7.6,146.3,7.1,147.9,6.7z"/>
		<path class="st0" d="M239.5,69.5c-0.7-0.2-2,0.9-2.6,1.3c-1.3,0.9-2.3,1.6-3.8,2.3c-0.5,0.3-1.1,0.5-1.5,0.7
			c-1.2,0.7,0.4,1.6,5.3-1.8C237.5,71.6,239.6,70.2,239.5,69.5z"/>
		<path class="st0" d="M125.2,147.9c-0.7,0.3-0.3,1,0,2.4c0.1,0.8,0.2,1.7,0.3,2.5c0,1,0,2.5-0.3,3.4c-0.1,0.4-0.3,0.7-0.1,1.2
			C126.9,157.1,126.8,149.6,125.2,147.9z"/>
		<path class="st0" d="M154.2,63.9c0.8-0.1,1.5-1.2,1.8-1.7l0.7-1.6c0.3-0.8,1-4.9,0.2-5.5c-0.6-0.4-0.6,1.7-0.6,2.1
			c-0.1,1.3-0.6,3.5-1.2,4.5C154.7,62.6,154,63.3,154.2,63.9z"/>
		<path class="st0" d="M137.8,101.2c0.6,0.7,2-0.6,2.3-1c0.8-1,1.5-3.1,1.8-4.3c0.8-3.8-0.2-2.8-0.5-2c-0.3,1-0.6,2.4-1,3.4
			c-0.3,0.7-0.5,1.4-1,2.1C138.6,100.9,138,100.6,137.8,101.2z"/>
		<path class="st0" d="M184.6,128c-1-0.2-8.4,3.5-6.6,6.1c1-0.5-0.5-1.2,2.9-3.3c0.7-0.4,1.5-0.9,2.2-1.3
			C183.7,129.2,184.9,128.6,184.6,128z"/>
		<path class="st0" d="M84.7,60.9c1.2,0.3,2,0.6,3.5,0.7c0.7,0,3.3,0.1,3.7-0.7c-0.2-0.3-0.3-0.3-1.1-0.3c-2,0.2-4-0.1-5.8-0.7
			c-1-0.3-1.6-0.7-2.3-0.5C83,60.3,84.2,60.5,84.7,60.9z"/>
		<path class="st0" d="M84.7,60.9L84.3,61c0,1.5,2.5,4.6,3.6,5.9c0.4,0.5,0.9,1.5,1.5,1.3c0.3-0.8-1.7-3.1-2.2-3.8
			C86.5,63.4,85.5,61.7,84.7,60.9z"/>
		<path class="st0" d="M241.4,68.5c-0.7,1.2,1.3,0,1.6-0.2c1.4-0.7,3.3-1.2,4.8-1.6c0.6-0.2,1.6-0.3,2-0.8c-0.3-0.5-1.3-0.3-1.9-0.2
			C246.2,66,242.2,67.1,241.4,68.5z"/>
		<path class="st0" d="M31,90.4l0.2,0.5c0.9-0.2,0.9-2.9,3.8-5.4c0.8-0.7,1.6-1,1.6-1.6c-1.1-0.8-4.6,2.7-5.4,5.5
			C31.1,89.7,31.1,90.1,31,90.4z"/>
		<path class="st0" d="M47.8,60.9c2-0.8,3.4-3.6,4.2-5.3c0.1-0.1,1-2,0.2-1.9c-0.4,0.1-1.9,3.2-2.3,3.8C48.4,60,47,60.3,47.1,61
			C47.3,61,47.5,61,47.8,60.9z"/>
		<path class="st0" d="M123.8,36.8c-0.4-0.5-0.4-0.6-1-0.5c0.2,1.3,1.8,3,2.8,3.9c2.9,3,4.8,2.7,3.2,1.4c-0.3-0.3-0.6-0.5-0.9-0.7
			C126.4,39.8,125,38.2,123.8,36.8z"/>
		<path class="st0" d="M55.6,129.2c0,0.6,0.7,0.2,0.9-0.1c0.5-0.5,1-1.4,1.3-2c0.2-0.3,0.3-0.6,0.5-1c0.3-0.5,1.5-3.4,1.1-4.5
			c-0.5-1.3-0.7,0.9-1.4,2.5l-0.4,1C57.3,126.1,55.6,129,55.6,129.2z"/>
		<path class="st0" d="M209.7,157.3c-1-2.4-5.5-5.9-6.2-5.5c0,0.1,0,0.1,0,0.3c0.2,0.6,2.5,2.3,3.1,2.9c0.5,0.5,1,1,1.6,1.6
			c0.4,0.5,1,1.7,1.6,1.6C209.9,157.8,209.9,157.7,209.7,157.3z"/>
		<path class="st0" d="M189.1,31.4c-1.5,0.3-3.4,2.4-3.7,3.4l-1.1,3.3c-0.1,0.3-0.3,0.7-0.2,1.1c1-0.1,2-3.6,2.2-4
			C187.7,32.6,189.3,32.2,189.1,31.4z"/>
		<path class="st0" d="M206.2,53c-1.7,0.7-4.2,8.1-2.2,8.5c0.2-0.2,0.2-0.2,0.2-0.5c-0.2-2.1,0.7-4,1.5-5.9c0.2-0.4,0.3-0.6,0.4-1
			C206.2,53.7,206.4,53.5,206.2,53z"/>
		<path class="st0" d="M193.6,95.7c-0.4-0.3-0.4-0.2-1-0.1c-1.2,0.3-2.1,0.6-3.4,0.8c-0.8,0.1-3.8,0.4-4.2,0.7
			c0.1,0.6,1.1,0.6,1.9,0.6C188.6,97.6,193.4,96.9,193.6,95.7z"/>
		<path class="st0" d="M199.6,36c-0.7,0-2.9,2-3.6,2.5c-0.6,0.4-1.3,0.9-1.9,1.3c-0.7,0.4-1.7,0.8-1.7,1.4c0.4,0.3,1,0,1.7-0.3
			C195.4,40.2,199.9,37.2,199.6,36z"/>
		<path class="st0" d="M131.5,38.8c-0.1,1.3,2.5,2.8,3.2,3.2s3.1,1.9,4.1,1.3c-0.1-0.5-0.4-0.6-0.8-0.8c-1.5-0.7-4.4-2.3-5.6-3.4
			C132,38.8,132,38.6,131.5,38.8z"/>
		<path class="st0" d="M217.4,55.6c0,0.4,0.2,1.2,0.6,0.7c0.2-0.2,0.2-0.7,0.3-1.1c0.2-1.2,0.9-3.1,1.4-4.1c0.2-0.3,0.3-0.6,0.5-1
			c0.2-0.3,0.4-0.6,0.6-0.9c0.8-1.3-0.6-0.5-1.2,0.2C218.5,51,217.3,53.6,217.4,55.6z"/>
		<path class="st0" d="M81.6,85.5c-0.5,0.1-0.5,0.2-0.4,0.7c0.2,1.1,1.6,5.8,2,6.7c0.4,0.8,0.4,0.7,0.7,0.8c0.3-0.3,0.2-0.5,0.1-0.9
			C83.6,91.3,82.3,86.3,81.6,85.5z"/>
		<path class="st0" d="M181.1,136.3c0.2,0,0,0.1,0.3,0c0.2-0.1,0.1,0,0.3-0.2c0,0,1.7-2.5,2.3-3.1s3.8-2.8,2.9-3.2
			c-0.3-0.1-3,1.7-3.9,2.8c-0.5,0.6-0.8,1.2-1.2,1.8C181.6,134.7,180.9,135.9,181.1,136.3z"/>
		<path class="st0" d="M117.5,153.5c-2,0.4-4.1,2.9-5.2,4.4c-0.4,0.5-1,1-0.4,1.6c0.7-0.2,2.2-2.3,2.8-2.9c0.5-0.5,1-1,1.5-1.5
			C116.6,154.6,117.6,154.2,117.5,153.5z"/>
		<path class="st0" d="M145.4,98.1c1-0.6-0.8-3.8-1.2-4.4c-0.4-0.7-0.9-1.3-1.4-1.8c-0.6-0.7-1.1-1.3-1.6-1c0.1,0.7,1.7,2.6,2.2,3.3
			C144.5,96.1,144.9,97.9,145.4,98.1z"/>
		<path class="st0" d="M196.5,81.5c0.3,1.4,5.1,5.9,6.8,4.9c-0.2-0.6-1.9-1.2-3.4-2.5c-0.6-0.5-1.1-1-1.6-1.5
			C197.5,81.8,197,81.2,196.5,81.5z"/>
		<path class="st0" d="M137.5,1.7c-0.9,0.4-0.8,4.9-0.4,6.5c0.1,0.4,0.2,0.8,0.3,1.2c0.2,0.6,0.2,0.8,0.5,1c0.5-0.5,0-3.4,0-4.4
			C137.8,5.2,137.9,2.3,137.5,1.7z"/>
		<path class="st0" d="M140,1.4c-0.5,0.4-0.1,1.5-0.1,2.1c0,2.3-0.3,3.1-0.6,5.2c-0.1,0.5-0.1,0.8,0.2,1c0.6-0.1,0.8-1.3,0.9-1.8
			C140.7,6.4,141.3,2.1,140,1.4z"/>
		<path class="st0" d="M113.8,34.5c0.7-0.4,0-1.4-0.4-2.2c-0.6-1.1-1.8-2.5-2.7-3.3c-0.7-0.7-1.1-1.2-1.6-1
			c-0.2,0.7,1.7,2.6,2.2,3.2C111.9,31.9,113.4,34.3,113.8,34.5z"/>
		<path class="st0" d="M122.6,151.8c-0.1,1.1,0,2.8,0.1,4c0,0,0,4.7,1,3.4c0.3-0.4-0.1-6.2-0.3-7.1
			C123.2,151.5,123.1,151.5,122.6,151.8z"/>
		<path class="st0" d="M174.6,91.8c-0.6,0.1-1.4-0.1-1.8,0.3c0,0.6,1,0.6,1.6,0.6c0.7,0,1.3-0.1,2.1-0.2c1.1-0.2,3.6-0.6,4.1-1.4
			l-0.1-0.3C180.1,90.7,176.1,91.6,174.6,91.8z"/>
		<path class="st0" d="M118.9,150.1c-1.6,0.6-2.8,1.3-4.3,1.8c-0.5,0.2-0.6,0.2-0.7,0.6c0.7,1,4.4-1.1,5.5-1.5
			c0.6-0.2,3-0.7,2.2-1.1C121.1,149.5,119.4,149.9,118.9,150.1z"/>
		<path class="st0" d="M83.1,87.8c0.2,0.5,4.7,2.7,5.7,3.3c1.1,0.7,1.2,0,0.9-0.4c-0.3-0.4-3-1.9-3.4-2.2
			C86.1,88.5,82.4,86.4,83.1,87.8z"/>
		<path class="st0" d="M137.7,95.6c1.2-0.1,3.6-7.3,2.5-7.7c-0.4-0.2-0.8,2-1.1,2.8l-0.7,2C138.2,93.3,137.4,95,137.7,95.6z"/>
		<path class="st0" d="M201.1,146.6c-1.1,0.5,0.5,2.9-1,6.1c-0.2,0.4-1.1,1.7-0.5,1.8c0.7,0.1,1.9-2.3,2.1-3.4
			C201.8,150.1,201.8,147.5,201.1,146.6z"/>
		<path class="st0" d="M79.8,59.8c0.6,1.5,3.8,4.7,4.9,4.4c-0.1-0.7-2.1-2.4-2.7-3c-1.4-1.4-1.9-3.2-2.6-3.3
			C79.1,58.4,79.6,59.1,79.8,59.8z"/>
		<path class="st0" d="M53,51.2c-0.1,0.8,0.7,3.1,0.9,4.1c0.2,1.1,0.4,3.1,1.2,4c0.4-0.2,0.4-0.4,0.3-0.9C55.2,56.3,55,55,54.3,53
			C54.1,52.3,53.7,51.1,53,51.2z"/>
		<path class="st0" d="M135,12.3c0.3,0.7,1.3,0.2,1.8,0.1c0.7-0.2,1.4-0.4,2.1-0.6c0.7-0.2,3.8-1.1,3.4-2.1c-0.5-0.1-3,0.9-3.7,1.1
			C137.8,11.1,135.4,11.7,135,12.3z"/>
		<path class="st0" d="M198.2,120.2c0.1,0.4,0.4,0.4,0.8,0.4c0.3,0,0.7,0,1.1,0.1c1.9,0.1,5.5,0.9,6.3,0.4c-0.2-0.4-0.4-0.4-0.8-0.5
			C203.8,120.1,199.7,119.3,198.2,120.2z"/>
		<path class="st0" d="M164,130.3l-0.3-0.8c-0.1-0.3-0.1-0.7-0.2-1c-0.2-0.4-0.5-0.1-0.6,0.2c-0.3,1.3,1.1,3.7,1.9,4.7
			c0.3,0.4,0.6,0.7,0.9,1.1c0.4,0.4,0.6,0.8,1.2,0.6c0-0.7-0.8-1.6-1.3-2.3C165,132.2,164.3,131.1,164,130.3z"/>
		<path class="st0" d="M147.5,171.8c-0.2-1.2-3.7-5.5-4.4-5.9l-0.6,0.3c0.3,0.8,2.7,3.8,3.5,4.7C146.5,171.4,147,172.3,147.5,171.8z
			"/>
		<path class="st0" d="M233.6,74.6c-1.2-0.8-0.9,1.6,2.7,2.3c0.2,0,4.3,0.8,3.7-0.3c-0.2-0.3-1.6-0.4-1.9-0.4
			C235.6,75.9,235.3,75.8,233.6,74.6z"/>
		<path class="st0" d="M185.2,145.4c-0.4,0.6,0.7,3,1,3.8c0.2,0.8,0.7,3.5,1.1,3.8c0.7-0.4,0.1-3-0.1-3.7
			C187,148.6,186,145.4,185.2,145.4z"/>
		<path class="st0" d="M201.3,81.4c1.2-0.3,3.4-0.7,4.2-1.1c-0.1-0.5-0.3-0.4-0.6-0.5c-1.4-0.1-6.4,1.2-6.6,1.3
			c-0.7,0.6,0.8,0.6,1.2,0.6C200.1,81.7,200.7,81.6,201.3,81.4z"/>
		<path class="st0" d="M185.6,150.9c-0.2-0.6-0.9-2.3-1.7-2.1c-0.2,0.6,0.4,1.2,0.6,1.8c0.8,2.1-0.1,4.5,0.6,5.6
			c0.6-0.2,0.5-1.3,0.7-2.5C185.9,152.8,186,151.8,185.6,150.9z"/>
		<path class="st0" d="M244.1,72.7c-0.4,0.2-0.4,0.2-0.3,0.6c0.5,0.1,1.4-0.2,2-0.5c0.9-0.4,2-1,2.8-1.5l1.8-1.3
			c0.3-0.3,0.3-0.3,0.2-0.6c-0.4-0.1-0.4,0-0.9,0.2L244.1,72.7z"/>
		<path class="st0" d="M141.3,170.2c0.2-0.2,0.2,0.1,0.2-0.9l-0.1-2.9c0-0.3-0.1-4.3-0.9-3.2C140.2,163.6,140.2,171.3,141.3,170.2z"
			/>
		<path class="st0" d="M145.3,4.8c0.8-0.4,0.2-2.8,0.1-4.8h-1C144.5,1.7,144.7,4.4,145.3,4.8z"/>
		<path class="st0" d="M52.7,112.4c-0.2,1,1.2-0.2,1.3-0.3c0.5-0.4,1-0.7,1.5-1s3.3-1.6,3.3-2C59,107.7,53,110.9,52.7,112.4z"/>
		<path class="st0" d="M159.1,44.5c-0.4,0-0.5,0.6-1.1,1.5c-1.2,1.8-0.6,5.4-0.1,5.9c0.3-0.2,0.2,0,0.3-0.4c0.1-0.8,0-2.4,0.1-3.4
			C158.6,46.5,160.1,45.3,159.1,44.5z"/>
		<path class="st0" d="M159.5,137.1c-0.5,0.1-0.4,0.3-0.5,0.7c-0.4,2.1-0.7,3.8,0.9,5.8c0.3,0.4,0.4,0.5,0.8,0.4
			c0.3-0.7-0.8-1.5-1-3.7C159.6,139.4,160,137.8,159.5,137.1z"/>
		<path class="st0" d="M190.7,138.9c1-0.4,0.2-2.7-0.4-3.5c-0.2-0.3-2.9-3.9-3-2.4c0,0.4,1.2,1.7,1.7,2.3c0.4,0.5,0.7,1.1,1,1.7
			C190.3,137.7,190.3,138.6,190.7,138.9z"/>
		<path class="st0" d="M42.3,84.7c-0.7,0.1-0.6,1.1-0.6,1.6c-0.1,0.6-0.2,1.2-0.3,1.8c-0.3,1.2-1.2,3.3-0.6,3.5
			C41.5,91.9,43.2,86.4,42.3,84.7z"/>
		<path class="st0" d="M151.8,2.3c-0.6-0.1-2.8,1-3.6,1.3c-0.4,0.1-3.8,1.3-2.5,1.7c0.5,0.2,4.4-1.4,5.3-1.9
			C151.7,3,152,2.8,151.8,2.3z"/>
		<path class="st0" d="M165.9,123.5c-0.2,0.9,1.3,4.2,1.8,5.3c0.3,0.6,0.4,1,0.9,1c0.4-0.7-1.2-4.2-1.7-5.2
			C166.5,123.7,166.4,123.3,165.9,123.5z"/>
		<path class="st0" d="M205.6,171c-0.7,0.1-0.9,0.9-1.1,1.3l-0.7,1.6c-0.1,0.4-0.9,3.2,0.2,3.5c0.5-0.3,0.2-1.3,0.5-2.4l0.6-1.6
			c0.1-0.3,0.1-0.5,0.2-0.8C205.6,172.1,206,171.6,205.6,171z"/>
		<path class="st0" d="M210.2,168.5c0.1,0.6,0.6,0.8,0.9,1.2c1.3,1.4,1.8,3.6,2.6,4.3c0.6-0.3,0.3-0.7,0-1.7
			C213.3,170.7,211.4,167.7,210.2,168.5z"/>
		<path class="st0" d="M220.8,56.7c-0.7-0.1-2.1,1.5-2.7,1.9c-0.6,0.5-2.6,1.3-2.9,1.9c0.4,0.5,1.3,0,1.9-0.2
			c1.8-0.7,2.3-1.4,3.5-2.8C220.9,57.2,221,57.2,220.8,56.7z"/>
		<path class="st0" d="M193.2,103.8c-0.1-0.8-0.8-0.2-2.8-1.7c-0.5-0.4-0.8-0.7-1.3-1.1c-0.2-0.2-0.4-0.4-0.7-0.6s-0.4-0.3-0.8-0.1
			c0.3,1.1,1.6,2.3,2.4,2.8c1.1,0.7,0.7,0.4,1.5,0.8C191.8,104,192.8,104.3,193.2,103.8z"/>
		<path class="st0" d="M208.6,63.1c0.8-0.1,1.1-0.9,1.2-1.3c0.3-1.1,0.4-2.3,0.6-3.4c0.1-0.3,0.4-1.5,0-1.6c-0.9-0.4-1.3,4-1.5,4.7
			c-0.1,0.3-0.2,0.6-0.2,0.8c0,0,0,0,0,0.1c0,0,0,0,0,0.1C208.4,62.9,208.5,62.8,208.6,63.1z"/>
		<path class="st0" d="M214.2,59.1c1.1-0.4,1.6-2.1,1.9-2.9c1-3.4,0-4.6-0.5-1.9l-0.9,3.2C214.3,58.2,213.9,58.4,214.2,59.1z"/>
		<path class="st0" d="M178.9,98c0.1-0.1,0.3,0-0.1-1c-0.8-1.8-1.6-2.4-3-3.4c-0.4-0.3-0.9-0.9-1.4-0.6c0.1,0.9,1.6,2,2.2,2.5
			c0.4,0.4,0.7,0.8,1.1,1.3S178.4,98,178.9,98z"/>
		<path class="st0" d="M151.9,18.3c-0.8,0.3-0.1,1.2,0.2,1.7c0.6,0.9,1.4,1.9,2.2,2.6c0.6,0.6,0.9,0.8,1.3,0.5
			c0-0.7-1.3-1.9-1.8-2.4C153.4,20.1,152.4,18.5,151.9,18.3z"/>
		<path class="st0" d="M206.4,86.9c0.6,0.2,1.6,0.4,1.4-0.1c-0.1-0.2-1.1-0.7-1.4-0.9c-0.4-0.3-0.8-0.6-1.3-1l-2-1.5
			c-0.2-0.1-0.6-0.2-0.6,0.3C202.6,84.3,205.3,86.4,206.4,86.9z"/>
		<path class="st0" d="M121,101.4c-0.6,0-2.9,2.1-4,2.8c-0.3,0.2-1.2,0.8-0.5,1C117.2,105.5,121.7,102.5,121,101.4z"/>
		<path class="st0" d="M208.6,66c0.3-0.8-2.4-0.1-2.9-0.1c-0.9,0.1-2.4,0-3.3,0.6c0.2,0.6,0.8,0.4,1.3,0.5c0.5,0,1,0,1.5,0
			C205.8,66.9,208.4,66.5,208.6,66z"/>
		<path class="st0" d="M196.9,120.6c-0.2-0.7-0.6-0.5-1.3-0.4c-1,0.2-4.3,0.5-4.4,1.1c0,0.7,2.1,0.3,2.6,0.2
			C194.7,121.5,196.4,121.2,196.9,120.6z"/>
		<path class="st0" d="M163.8,26.4c0.2-0.9-1.1-2.3-1.6-2.8c-0.5-0.4-1.9-1.4-2.5-1c0.3,0.9,1.7,1.4,3.1,3.1
			C163,26.1,163.3,26.7,163.8,26.4z"/>
		<path class="st0" d="M177.4,153.6c0.8,0.7,2.5-1.1,2.9-1.7c0.2-0.3,1.7-2,0.8-2c-0.5,0-1.6,1.4-1.9,1.8
			C178,153,177.3,153,177.4,153.6z"/>
		<path class="st0" d="M164.3,21.9c-0.8,0.1-1.9,0.1-2.7,0.6c0.3,0.7,0.5,0.6,1.2,0.5c1.1-0.1,3.3-0.1,3.9-0.9
			c-0.2-0.6-0.4-0.5-1.1-0.4C165.1,21.8,164.7,21.8,164.3,21.9z"/>
		<path class="st0" d="M119.5,3c-0.6,0.2-1.4,0.7-2.1,1c-0.6,0.3-1.5,0.6-1.7,1.1c0.2,0.4,0.4,0.3,0.9,0.2c1.1-0.3,2-0.7,3-1.4
			c0.4-0.3,1-0.7,0.7-1.2L119.5,3z"/>
		<path class="st0" d="M134.5,28.7c-0.5-0.1-0.8-0.1-1.3-0.1c-0.8-0.1-0.7-0.2-1.1,0.4c0.3,0.6,1.4,0.6,2.4,0.7
			c0.4,0,2.5,0.5,2.3-0.2C136.7,29,135,28.8,134.5,28.7z"/>
		<path class="st0" d="M134.2,89.6c1.7-0.7,3.1-4,2.1-3.9c-0.5,0.1-1.1,1.9-2.2,3c-0.5,0.4-0.8,0.5-0.5,1.1
			C133.8,89.7,134,89.7,134.2,89.6z"/>
		<path class="st0" d="M186.3,123.1c-0.6,0-0.9,0.7-1.9,1.6c-0.3,0.3-0.7,0.6-1,0.9c-0.4,0.4-0.8,0.6-0.5,1.1
			C183.9,126.7,187,124.3,186.3,123.1z"/>
		<path class="st0" d="M205.5,127.1c-0.9,0.9,2.1,3.8,3.2,3.4c0.9-0.3-0.6-0.9-1.3-1.6C207,128.5,206.1,127.1,205.5,127.1z"/>
		<path class="st0" d="M121.9,146.3c-0.6,0.3-1.4,0.7-1.4,1.3c0.5,0.3,1.3-0.3,1.9-0.4c0.7-0.2,1.4-0.1,2-0.2
			C126.1,146.6,123.7,145.5,121.9,146.3z"/>
		<path class="st0" d="M163,102.5c1.5-0.2,2.8-3.8,2.2-4c-0.5-0.2-1.3,1.9-1.9,2.9C163.1,101.7,162.8,102.1,163,102.5z"/>
		<path class="st0" d="M162.2,141.2c-0.3-0.7-1-2.9-1.5-3.3c-0.5,0.2-0.5,0.3-0.4,0.9c0.1,0.9,0.9,2.7,1.5,3.3l0.5-0.2
			C162.3,141.7,162.3,141.4,162.2,141.2z"/>
		<path class="st0" d="M139.2,81c-0.5,0.1-0.4,0.5-0.6,0.9c-0.4,1-1.5,2.6-0.7,2.8C138.6,84.8,140.2,81.8,139.2,81z"/>
		<path class="st0" d="M122.4,34.3c-0.5-1.3-1.9-1.6-1.4-0.5C121.5,35.3,122.9,35.7,122.4,34.3z"/>
	</g>
</g>
</svg>
