<?xml version="1.0" encoding="utf-8"?>
<!-- Generator: Adobe Illustrator 19.2.1, SVG Export Plug-In . SVG Version: 6.00 Build 0)  -->
<svg version="1.1" id="Isolation_Mode" xmlns="http://www.w3.org/2000/svg" xmlns:xlink="http://www.w3.org/1999/xlink" x="0px"
	 y="0px" viewBox="0 0 133.5 209.6" style="enable-background:new 0 0 133.5 209.6;" xml:space="preserve">
<style type="text/css">
	.st0{fill:#FFFFFF;}
</style>
<title>Vector Smart Object2</title>
<path class="st0" d="M46.2,209.6c4.2-2.7,7-6.4,10.1-10.6c3.3-4.7,7.1-9,11.4-12.8c2.2-1.8,4.2-3.5,6.1-5.1
	c12.3-10,23.6-19.1,25.8-39.8l0.1-1c2.6-24.1,3.8-34.9,23.4-50.9c12.8-10.4,5.8-26,0.5-38c-2.6-5.8-4.8-10.8-4.3-14.1
	c0.7-6.9,0-13.9-2-20.5c-1.7-5.6-4.3-10.7-8.1-13.6c-0.3-0.3-0.7-0.6-1.2-0.8c-0.7,0.6-0.9,2.9-1.3,6c-0.9,7.7-2.3,19.9-13.9,27
	c-7.9,4.9-17,8.4-25.4,11.7C55.1,51.9,44.2,56.2,41,62.9c-0.8,1.8-1.5,3.3-2.1,4.8C35,76.7,33.2,81,18.8,81.4
	c-1.8,0.1-3.5,0.4-5.1,1C7.9,84.7,3.1,88.8,0,94.2V89c3.2-4,7.4-7.1,12.2-8.9c2-0.7,4-1.1,6.1-1.2c12.6-0.3,14.3-4.2,17.8-12.4
	c0.6-1.5,1.4-3.1,2.1-4.8c3.5-7.5,14.8-11.9,27.6-16.9c8.3-3.3,17.3-6.8,25-11.5c10.8-6.6,12.1-18.2,13-25.5c0.4-3.5,0.7-6.1,2-7.2
	s3-1,5.4,0.9c4.3,3.4,7.3,8.9,9.1,15c2.1,6.9,2.8,14.2,2.1,21.4c-0.4,2.8,1.7,7.5,4.2,13c5.6,12.5,12.9,29-1,40.4
	c-19,15.4-20.1,26-22.7,49.5l-0.1,1c-2.3,21.5-13.9,30.9-26.6,41.1c-2.1,1.7-4.2,3.4-6.1,5c-4.2,3.7-7.9,7.9-11.1,12.4
	c-2.3,3.3-5,6.4-7.9,9.1h-4.7L46.2,209.6z M0,127.5v5.3c8.1,12.8,10.1,22.3,8.6,30.6c-1.2,6.4-4.5,12.1-8.6,18.1v5.1
	c5.4-7.5,10-14.5,11.5-22.6c1.6-8.9-0.4-19-9.3-32.8C1.4,130,0.7,128.8,0,127.5z"/>
<path class="st0" d="M109.4,0.9l-0.8-0.8c-0.1,0.5,1.6,7.1,1.9,8c0.3,1.3,0.8,2.8,1,3.9c0.4,2.6,0.7,5.2,0.6,7.8l-0.6,7.6
	c-0.1,0.6-0.2,1.2-0.4,1.9c-0.1,0.7-0.3,1.3-0.5,1.9c-0.9-2-1.1-4.3-2.7-7.9c-0.8-1.6-3.3-6.9-5.4-7.8c-0.6,0.7,1,2.4,1.5,3.3
	c1.9,3.2,6.4,13.5,5.5,16.2c-0.6,2.1-1.4,4.1-2.4,6c-0.9-2.2-1.3-4.5-1.4-6.9c-0.1-1,0.1-3.1-0.6-4c-2.1,0.9-0.3,8.7,0.5,10.9
	c0.9,2.3,1,1.4,0,3.6s-1.9,4.6-2.7,6.9c-0.4,1.2-2,6.2-2.4,6.9c-0.2-1.2-0.4-4.9-1.5-6.1c-0.9,0.3-0.4,1.6-0.4,2.3l0.3,3.6
	c0.1,1.9,0,3.9-0.3,5.8c-0.5,2.7-6.1,22-7.2,24.6c-0.3-1.1-0.6-2.4-0.9-3.6c-1.5-6-3.5-12.2-4.1-18.2c-0.1-0.7,0-1.2-0.1-1.8
	c-0.2-1.5,0.6-3.9-0.4-5.3c-0.5,0.8-0.8,1.7-0.8,2.6c-0.3,2.7-0.2,5.4,0.3,8c0.6,3.6,1.6,7.2,2.5,10.8c0.5,1.9,1,3.6,1.5,5.5
	s1.4,3.7,0.8,5.4c-1,2.7-2.5,7.8-4.1,10c-0.1-0.5-0.1-1-0.1-1.5c-0.4-3.6-1.2-7.2-2.3-10.7c-1.3-4.4-2.1-8-3.1-12.3
	c-1.5-6.8-3-11.7-1.6-18.2c0.2-1,1.5-5,1.1-5.8c-1.1,0.6-2.4,5.6-2.6,6.6c-1.1,4.9-0.3,9,0.8,14.1c0.3,1.2,0.6,2.4,0.8,3.6
	c0.2,1.2,0.4,2.3,0.7,3.5c1.6,6.6,5,15.1,5,21.6c0,2.4-2.2,4.5-3.6,6.5c0.1-1.5,0.4-3.1,0.4-4.7s-0.1-3-0.2-4.7
	c0-1.3-0.8-8.3-2.2-9.7c-0.4,0.5-0.5,1.2-0.3,1.9c0.6,3.8,1.4,10.5,1,14.3c-0.1,0.5,0,1.1-0.1,1.7c-0.5,3.3-0.8,4-3.4,6.7l-2.3,2.3
	c-0.1,0-0.4,0.4-0.5,0.4l-0.1,0.1l-0.4,0.1c1.3-1.9,1.7-7,1.9-9.3c0.1-1.1,0-2,0.1-3.1c0.1-9.7-3.3-22.3-5.4-32
	c-0.2-1.1-1.2-5.6-1.9-6.5c-0.6,1,0.5,5.7,0.8,7.3c0.6,3.6,1.6,7.3,2.3,10.9s1.5,7.2,2,10.9l0.8,9.1c0,0.5,0,1,0,1.7s0,1.3,0,1.8
	l-0.3,3.5c-0.3,2.2-1.2,7-2.9,8.5c-1.2,1-2.5,2.2-3.9,3.1c0.1-0.6,0.4-1.3,0.5-2c0.4-1.9,0.6-3.8,0.7-5.8c0.1-4-0.2-8-0.9-11.9
	c-0.2-1.3-0.5-2.7-0.9-4c-0.4-1.3-2-7.1-2.8-8.1c-1,0.8,1.3,7.6,1.6,9.1c0.7,3.7,1.1,7.5,1.4,11.3c0,0.4,0,0.8,0,1.1v3.3
	c-0.1,2.3-0.6,7-1.7,8.6c-0.8,0.7-1.7,1.4-2.6,1.9c-0.1-1,0-2.1,0.2-3.1l-0.1-3.1c-0.7-6.4-2.3-12.6-4.5-18.6
	c-1.3-3.3-9.4-24.1-11.9-25.5c0,1.4,1.8,5.1,2.6,6.8c3.2,6.7,6,13.6,8.4,20.6c1.5,4.4,2.7,9,3.6,13.5c0.4,2.2,0.6,4.4,0.6,6.6
	l-0.1,3.3c-0.1,0.6-2.7,2.4-3.4,2.8c0-0.3,0.1-0.7,0.1-1c0.3-2.4,0.2-4.9-0.3-7.3c-0.6-2.9-1.4-5.8-2.3-8.6
	c-0.7-2.3-6.1-16.3-7.9-17.6c-0.5,0.9,0.9,3.6,1.4,4.9c3.2,8.1,7.1,16.6,7.8,24.7c0.2,1.6,0.1,3.2-0.1,4.8c-0.4,2-1.7,2.7-3.6,4.4
	c-0.1-0.1-0.1-0.2-0.1-0.4l0.1-2c0-0.8-0.1-1.5-0.2-2.3c-0.3-2.8-3.2-12.4-5-14.2c-0.5,0.3-0.4,0.3-0.3,0.7l0.6,2.4
	c0.3,1,0.6,2,1,3.1c1.5,3.9,2.3,8,2.4,12.2c0.1,1-0.2,2.1-0.8,2.9c-0.9,0.9-1.6,1.9-2.4,2.8c-0.1-0.6,0-0.8-0.1-1.3
	c-1.6-10.2-7.9-19.8-14.6-29c-1.1-1.5-6.8-9.9-8.1-10.2c0.2,2.7,16,21.1,20.2,34.5c0.6,1.8,1,3.6,1.2,5.5c0.3,1.9-0.3,3.8-1.6,5.1
	c-0.3-1-0.5-2-0.7-3.1c-0.8-3.2-1.8-6.2-3-9.3c-0.8-2.1-1.6-4.1-2.6-6.2c-0.5-1-2.3-5.8-3.6-5.9c-0.5,0.8,0.7,2.6,1.2,3.6
	c0.5,1.2,1,2.4,1.5,3.6c2.4,6,4.8,12.1,6,18.1c0.3,0.6,0.2,1.2-0.2,1.7c-0.3,0.5-0.5,1.2-0.8,1.6c-0.5-1.3-1.3-4.5-2.3-7
	c-3-7.6-7-14.8-11.9-21.4c-3.8-5.1-7.8-10-12.1-14.7C14.7,104,2,91.8,0.6,91.4c-0.1,1.2,7.3,7.6,8.9,9.2c3.1,2.9,6,6,8.7,9.2
	c4.9,5.6,9.3,11.5,13.3,17.8c3.4,5.5,6.2,11.3,8.5,17.3c0.4,1.2,2,5.3,1.7,6.3c-0.2,0.6-0.5,1.2-0.7,1.9c-0.3,0.9-2,7.1-2.4,7.7
	c-0.4-1-0.6-2.4-0.9-3.5c-0.6-2-2.9-9.8-4.4-10.7c-0.4,0.5-0.2,0.8-0.1,1.5s0.3,1,0.4,1.6c1.1,3.1,2.2,6.3,3,9.5
	c0.4,1.5,0.8,3.1,1,4.7c0.2,1.4-1.6,5.9-2.2,7.3c-0.4-1-0.8-3.5-1.1-4.7c-1.4-4.9-3.2-9.8-5.4-14.4c-2.3-5.1-4.9-10-7.9-14.7
	l-2.5-3.7c-0.3-0.5-0.7-0.9-1.2-1.1c0,0.6,0.2,1.2,0.6,1.6c0.3,0.5,0.6,1,0.8,1.5c4.2,6.9,7.8,14.1,10.8,21.5c2,4.9,3.6,9.9,4.7,15
	c0.3,1.5,0.3,1.3-0.4,2.8c-0.8,1.9-1.8,3.7-3,5.4c-0.9-3.6-2.1-7.1-3.6-10.5c-3.2-7.5-7.2-14.7-12-21.3c-1.6-2.2-7.2-9.6-9.6-10.9
	c0,0.8,3.8,5.2,4.6,6.3c4.6,5.8,8.6,12,11.9,18.6c3,6,6,12,7.4,18.1c0.4,1.5,0.2,1.4-0.8,2.8c-0.6,1-1.2,1.9-1.9,2.7
	c-0.4-0.8-1.1-5.4-3.1-9.8c-0.6-1.3-4.2-9.5-5.6-9.8c-0.1,0-0.1-0.3-0.3,0.2c0,0.5,0.2,1,0.4,1.4c0.3,0.7,0.7,1.3,1,1.9
	c0.6,1.3,1.2,2.5,1.8,3.8c1.3,2.8,5.7,12.6,4.2,14.7c-1.6,2.3-3.3,4.5-5.2,6.5c-0.1-0.8-0.1-1.6,0-2.4c0.2-3.9-3.9-14.6-6.3-17
	c-0.6,0.9,0.5,2.9,0.9,4c2.1,5,4.5,10.4,3.9,15.3c-0.2,1.8,0.3,1.6-1.2,3.5c-0.9,1.1-1.8,2.3-2.7,3.4c-0.8,1.1-1.6,2.2-2.5,3.3
	c0-1.8-0.5-7.7-2.9-9.1c-0.7,0.7,0.6,3.1,0.8,4.4c0.5,2.1,0.6,4.3,0.3,6.5c-0.3,1.1-0.7,2.1-1.3,3h2.6c0.4-0.5,0.9-0.9,1.5-1.2
	c7.8-3.8,11.7-4.2,20.8-4.5c1.7-0.1,9-0.2,10.4-1c-1.5-0.8-13.4-0.2-15.2-0.1c-2.6,0.1-5.1,0.4-7.6,1c-1.3,0.3-2.6,0.7-3.8,1.1
	c-0.6,0.2-3.3,1.6-3.9,1.6c2.4-2.6,3.4-5.4,6.8-7.3c8.4-4.8,15.2-5.2,25.3-5.4c1,0,4.3,0,5.1-0.6c-0.9-0.5-2.9-0.4-3.8-0.4
	c-3.7-0.2-7.3-0.1-11,0.2c-4.8,0.4-10.4,1.6-14.9,4.5c0.2-0.6,0.5-1.1,1-1.5c1.6-2,1.3-2.1,3.9-3.3s4.3-2.3,7.2-3.1
	c7.2-1.9,20.2-1.8,28.6-2.9c3.4-0.5,11.6-1.9,14.1-4.3c-0.5-0.2-0.1-0.2-0.9,0l-5.6,1.7c-8,2.3-22,2.3-31.2,3.4
	c-7.3,0.8-7.2,1.6-12.5,4.1c1.1-1.8,3.7-2.7,5.7-3.8c6-3.2,12.9-4.5,19.7-3.8l3.3,0.2c5.2,0.2,11.8,0.5,16.5-1.2
	c1.4-0.5,6-1.9,6-3.2c-0.3-0.2-0.6-0.2-0.8,0c-4.2,1-4.3,2.5-11.3,3.1c-4,0.3-8.1,0.3-12.1-0.1c-10.9-0.5-14.9-0.2-24.3,5.4
	c0.1-0.3,3.7-5.6,4-5.9c2.5-1.3,5.1-2.5,7.7-3.5c4.9-1.6,10.7-2.1,15.6-2.5c5.2-0.4,10.2-1,15.5-1.5c2.3-0.2,14.5-1.9,15.3-4.1
	c-0.7-0.2-5.5,1.3-6.7,1.6c-2.2,0.5-4.4,0.8-6.6,1c-2.3,0.2-4.4,0.5-6.6,0.7c-6.7,0.6-13.2,0.9-19.9,1.9c-5.7,0.9-8.1,1.8-13.2,4.6
	c0.5-1.1,1.1-2.2,1.8-3.2c1.3-1.1,2.7-2,4.1-2.9c2.8-1,5.7-1.7,8.6-2l17-1.6c2.8-0.2,5.8-0.3,8.6-0.8c4.9-0.8,13.3-3.6,17.2-6
	c1.5-0.9,7.7-4.7,7.2-6.1c-6.1,3.9-8.2,5.8-15.6,8.3c-4.9,1.9-10.1,2.9-15.3,3.1c-4.2,0.2-19.4,1.6-23.1,2.4
	c-2.8,0.5-5.4,1.6-7.7,3.1c0.2-0.5,0.3-1,0.5-1.4c0.1-0.6,0.6-1.1,1.2-1.3c5.8-3.2,12.1-5.4,18.6-6.5c1.9-0.3,6-0.5,7.4-1.1
	c-0.4-0.4-1.1-0.6-1.7-0.4c-3.8,0.1-7.7,0.5-11.4,1.4c-2.2,0.5-4.4,1.2-6.5,2.1c-1.1,0.4-2.2,0.9-3.3,1.5c-0.9,0.5-2.3,1.4-3.2,1.7
	c0.3-1.1,0.7-2.2,1.2-3.1c0.9-0.5,3.1-1.2,4.2-1.8c2.7-1.3,5.6-2.5,8.5-3.4c10.8-3.1,34.1-5.5,42.5-11.4c1.6-1.1,7.1-4.7,6-6.2
	c-1.6,0.5-5.6,4.3-7.2,5.5s-5.6,2.5-7.7,3.2c-9.9,3.3-20.6,4.3-30.8,6.9c-5.4,1.3-10.6,3.4-15.4,6.1v-0.5v-0.1
	c0-0.2,0.1-0.3,0.2-0.5l0.8-2.7c0.2-0.5,2.9-2.7,3.7-3.1c5.4-3.3,11.6-5.1,18.1-6.5c1.4-0.3,8.3-1.2,8.6-2c-1.9-0.8-12,1.4-15,2.2
	c-2.6,0.7-5.1,1.5-7.6,2.6c-2.6,1.1-5,2.7-7.1,4.5c0.1-0.6,0.2-1.1,0.4-1.7c0.6-2.2,1.4-1.9,5-3.6c7.7-3.7,16.1-4.8,24.8-6.4
	s18.1-3.8,25-8.5c1.3-0.9,6.1-4.4,5.6-6c-0.7,0.1-2.1,2-2.8,2.6c-6.8,5.8-17.1,8.4-26.4,10.3c-2.4,0.5-5.1,1-7.5,1.3
	c-8.3,1.3-16,3.3-22.7,7.5c0.4-1.7,1-3.4,1.7-5c0.6-1.1,4.8-3.3,6.1-3.9c2-0.9,4.2-1.5,6.4-1.9c1.3-0.2,5.5-0.6,6.4-1.3
	c-1.1-0.6-3.3-0.3-4.5-0.2c-5.8,0.5-8.5,1.7-13.1,4.5c0.4-1,0.9-2,1.5-2.9c0.5-0.9,2.4-1.4,3.4-1.9c2.4-1.2,4.9-2,7.6-2.4
	c10-1.7,20.3-1.8,30.4-4.8c2.6-0.7,5.2-1.7,7.7-2.9c1.5-0.8,6.7-3.5,7.1-4.7h-0.3c-1.2,0.2-5.4,2.7-6.5,3.3c-2.2,1.1-4.5,2-6.9,2.7
	c-4.5,1.2-9,2.1-13.6,2.7c-2.3,0.4-4.6,0.6-6.8,0.9c-6.8,0.8-14.4,1.3-20.3,4.5c0.4-1.6,6-7,7.8-8.5c3.4-2.9,7.2-5.4,10.9-8.2
	c4.6-3.4,11.1-5.1,17.2-6.2c1.2-0.2,4.8-0.6,5.6-1.2c-0.9-0.9-6.8,0.1-8.6,0.5c-2.9,0.7-5.8,1.5-8.7,2.5c1.1-1.1,2.4-2.1,3.4-3.2
	c1.8-1.7,10.4-5,12.9-5.8c4.2-1.5,8.6-2.5,13-3c1.5,0,2.9-0.3,4.3-0.8c-2-1.2-10.4,0.5-13.4,1.3c-3.4,0.9-6.8,2-10,3.5
	c-1,0.5-2,1-3,1.4c-0.1,0.1-0.3,0.1-0.4,0.1c0.4-0.5,0.9-1.1,1.4-1.6c2.4-2.8,1.1-1.6,5.7-3.5c1.5-0.6,8.2-2.7,8.8-3.3
	c-0.9-0.8-4.6,0.4-5.7,0.7l-5.3,2.2c-0.1,0.1-0.3,0.1-0.4,0.1c4.4-6,2.1-6.6,11.2-9.8c2.8-1,14.7-3.7,15.2-5.5
	c-0.6-0.4-2.1,0.3-2.6,0.5c-6.3,2.3-12.2,2.7-18.4,6.1l2.8-7c4-3.5,13.9-6.7,14.6-7.9c-0.9-0.7-2.7,0.3-3.6,0.6
	c-1.2,0.4-2.4,0.9-3.5,1.4c-4.3,1.8-4.8,2.9-6.9,3.9l2.3-7c0.7-2.5,8.9-6.9,11.3-8.1c1.5-0.8,6.2-2.8,6.9-3.8
	c-1.2-0.6-3.2,0.6-4.4,1.1c-3,1.3-6,2.8-8.8,4.5c-1.2,0.8-3,2.3-4.1,2.9c0.5-1.4,0.9-2.8,1.3-4.3c0.4-1.2,0.1-1.1,1.3-2.2
	c5.3-4.8,7.4-4.8,13.2-8.3c3.4-2,6.4-4.8,8.7-8c1-1.3,1.9-2.7,2.6-4.2l1.5-3.3c0.3-0.3,0.3-0.8,0.1-1.1c-1.4,1-4.5,8.2-10,12.7
	c-2.6,2-5.4,3.7-8.4,5.2c-1.5,0.8-2.8,1.6-4.3,2.5s-2.5,2.1-3.7,2.9c0.4-1.4,0.8-2.7,1.1-4.1c0.5-2,0.5-2.2,2.4-4
	c1.4-1.3,3-2.6,4.5-3.8c1-0.8,4.3-2.8,4.3-3.8c-1.6-0.7-8.7,5.6-9.5,6.3c0.2-1.3,0.6-2.5,1-3.8c1.4-4,0.8-4.6,3.6-7.4
	c1.2-1.2,2.5-2.4,3.6-3.5c1.6-1.5,13.4-11.7,12.3-14.3c-1.4,1.3-2.7,2.9-4,4.3c-2.6,2.8-5.6,5.5-8.4,8.2c-1.4,1.3-2.8,2.8-4.2,4
	c0-0.9,2.7-7.4,3.3-8.8c1.2-2.8,2.3-5.8,3.1-8.8c0.5-1.6,0.4-3.1,1.5-4.4c2-2.6,3.4-5.5,4.2-8.7c0.2-0.7,0.3-1.5,0.4-2.3
	c0-0.6,0.3-1.6-0.4-2.2c-0.8,0.5-0.8,1.9-1,2.6c-0.6,2.8-1.7,5.5-3.2,8c-0.1-0.7,0.3-3.9,0.3-4.9c0.1-6.3-1-12.5-3.4-18.3
	c-0.2-0.6-0.4-1.1-0.7-1.7l-0.8-1.8l0,0L109.4,0.9z M6.8,209.6H5.4c-1.4-4.6-3.3-9.2-4.4-13.7c-0.7-2.5-0.9-5.1-0.8-7.7l0.4-5
	c-0.1-0.9,0.1-1.8,0.6-2.6c0.3,0.6,0.5,1.4,0.4,2.1l-0.1,5.8c-0.3,6.5,3.2,13.5,5,20C6.7,208.9,6.8,209.3,6.8,209.6z"/>
<path class="st0" d="M92.1,76.6c0.4-1.6,0.6-3.2,0.6-4.9c0.1-2.8,0.4-5.5,0.9-8.2c1.4-7,3.3-12.5,5.4-19.2c1.7-5.4,2.7-7.5,2.3-13
	c0-0.5,0-1.1-0.1-1.6c-0.2-1.4-0.1-4-0.6-5.2c-0.5,0.6-0.6,5.8-0.6,6.6c0.4,6.6-2.7,12.7-4.6,19.3c-1.9,6.4-3.8,12.6-3.9,19.4
	C91.5,71,91.1,75.3,92.1,76.6z"/>
<path class="st0" d="M69.6,45.7l-2.7,1.9c-2.7,1.9-4.2,6.7-4.5,8.9c-0.7,4.2-0.1,9.9,0.5,14.3c0.5,3.2,0.8,6.4,0.9,9.6
	c0,0.7,0.1,4.2,0.5,4.8c1.4-1.2,0.7-7.2,0.6-9.2c0-0.8-0.1-1.5-0.2-2.3l-0.8-7.1c-0.1-0.9-0.1-1.5-0.2-2.3c0-0.4,0-0.7,0-1.1
	c-0.1-0.4-0.1-0.8-0.1-1.2l0.3-4.7c0.2-1.9,1.6-7.1,4.1-8.8c1-0.7,5.6-3.4,5.9-4.2C72.6,43.7,70.3,45.2,69.6,45.7z"/>
<path class="st0" d="M58.2,134.4c1-0.2,1.9-0.5,2.8-1c8.9-4,10.3-3.8,20.7-6c4-0.8,7.9-1.8,11.8-3c3.4-1.1,9.2-3.7,11.5-6
	c-0.5-0.2,0-0.4-1.5,0.4c-3.3,1.7-6.8,3.2-10.3,4.5c-3.9,1.2-7.8,2.2-11.8,2.9c-3.9,0.8-7.9,1.5-11.8,2.7
	C67.5,129.3,58.6,132.5,58.2,134.4z"/>
<path class="st0" d="M0,117.7c2.8,4.7,6.5,9.5,9.5,13.7c1.3,1.7,2.5,3.4,3.6,5.1c1,1.8,2.3,3.6,3.6,5.2c1.1-1.8-11.5-18.5-12.8-20.4
	c-1.5-2.1-2.8-4.2-4-6.4L0,117.7L0,117.7z"/>
<path class="st0" d="M42.8,105.8c0.4-0.8-1.2-3.5-1.6-4.3c-2.9-5.6-7.9-17-6.8-23.1c0.3-1.4,0.7-5.1-0.5-6.1
	c-0.5,0.4-0.5,3.1-0.6,3.9c-0.9,4.1-0.6,8.4,0.9,12.4C35.3,91.9,39.9,103.7,42.8,105.8z"/>
<path class="st0" d="M37,209.6c4.7-0.3,13-1.1,16.2-3.3c0.8-0.5,2.2-1.4,1.8-2.2c-3.9,1.8-3.2,2.4-9.6,3.4c-3.1,0.5-6.3,0.8-9.4,0.9
	c-1.5,0.1-10.8,0.4-15.7,1.2L37,209.6L37,209.6z"/>
<path class="st0" d="M5.3,139.4c-0.7,2.2,11,18.4,13.7,23.1c0.7,1.3,1.4,2.6,2,3.9c0.5,1.4,1.1,2.7,1.8,3.9c0.5-0.6,0.3-1.1,0.1-1.8
	c-0.1-0.6-0.3-1.3-0.5-1.9c-1.4-4.8-8.7-14.9-11.9-19.6C9.6,145.8,6.2,139.7,5.3,139.4z"/>
<path class="st0" d="M6.3,85c0.2,1,5,5.8,6.1,7c3.9,4.3,7.4,8.9,10.5,13.9c0.9,1.6,2.7,5.6,3.9,6.7c0.6-0.6-0.4-2.4-0.7-3.3
	c-2.7-6.9-11.3-17.6-17.7-23.1l-1.4-1.1C6.1,84.8,6.6,85,6.3,85z"/>
<path class="st0" d="M43.6,90.3c0.5-1.7-4.8-7.9-3.9-18.6c0.2-2.6,1.1-9.8,0.4-10.8c-0.6,0.4-0.9,2.8-1,3.5
	c-0.2,1.2-0.3,2.3-0.5,3.6c-0.4,3.1-0.9,5.9-0.5,9.1c0.2,1.9,0.7,3.8,1.4,5.6C40,83.8,42.4,89.8,43.6,90.3z"/>
<path class="st0" d="M110.1,84.7c0.9,0.6,3-0.2,3.9-0.5c6.9-2.3,16.3-10.2,16.4-16.4c0-0.6-0.1-2.7-1.1-3.3c-0.8,1,1.8,4.7-5,11.4
	c-2,2-4.3,3.8-6.7,5.3C114.5,82.9,111.4,83.7,110.1,84.7z"/>
<path class="st0" d="M80.4,40.4c-4.8,3.3-6.4,8.1-7.9,12.5c-0.8,2.4-2.9,10.9-1.4,12.5c0.7-0.4,0.7-2.4,0.8-3.1
	c0.7-5.1,3.5-15.3,7.1-19.2c0.5-0.5,1-1,1.4-1.5s1.3-1,1.2-1.6C81.2,40,80.8,40.1,80.4,40.4z"/>
<path class="st0" d="M72.6,164.6c1.2,0.5,5.9-0.5,7.2-0.8c5.3-1.1,10.4-2.8,14.5-5.9c1.2-0.9,5.2-4.2,4.8-5.3
	c-0.8,0.1-4.4,3.5-6.1,4.6c-4,2.7-8.8,4.3-13.8,5.5C78,162.9,73,163.8,72.6,164.6z"/>
<path class="st0" d="M9.7,169.2c0.1-1,0.4-2.4-0.3-3c-1.2,0.8-1.5,7.4-1.5,9c0,1,0.1,2.1,0.1,3.1l0.3,3.1c0.2,2.2,0.8,4.3,1.5,6.3
	c0.2,0.6,0.5,1.1,0.8,1.6c0.2,0.6,0.7,1.2,1.4,1.5c0.5-0.3-0.5-2.2-0.8-3c-0.4-1-0.6-2.1-0.8-3.2c-0.2-1.1-0.3-2-0.4-3.1l-0.3-4.7
	L9.7,169.2z"/>
<path class="st0" d="M79.1,151.1c1.7,1.2,11.4-2.8,12.8-3.4c3.6-1.7,7.9-4.2,9.7-7.5c0.3-0.6,0.5-0.8,0.1-1.4
	c-1.9,1.1-1.9,3.7-10.6,7.7c-2,0.9-4,1.7-6,2.4C83.8,149.4,79.6,150.4,79.1,151.1z"/>
<path class="st0" d="M51.9,73.3c0.6-0.5,0.2-1.6-0.1-2.8c-0.2-1-0.4-1.9-0.6-2.9l-0.6-4.4c-0.2-3.2,0-6.9,2.4-9.7
	c0.5-0.6,2-2,1.8-2.6c-2.1,0.1-4.3,3.8-4.8,5c-1.4,3.3-1.2,7.8-0.4,11.5C50,68.4,50.8,72.2,51.9,73.3z"/>
<path class="st0" d="M37.6,198.7c0.8,0.5,2.4,0.2,3.4,0.1l10.1-1.1c2.3-0.3,4.6-0.9,6.9-1.8c1.2-0.5,2.3-1,3.4-1.7
	c0.6-0.4,1.2-0.7,1.7-1.1s1.1-0.7,0.9-1.3c-2.2,0.8-4.3,2.1-6.6,3c-2.1,0.8-4.4,1.3-6.6,1.7C48.5,196.7,38.8,197.7,37.6,198.7z"/>
<path class="st0" d="M113.5,94.6c1.3,0.2,10.3-5.1,11.8-6.1c1.8-1.2,3.3-2.6,4.7-4.2c0.5-0.7,1-1.4,1.3-2.2c0.3-0.7,0.9-1.6,0.4-2.3
	c-1.4,0.7-1.7,4.2-7.8,7.9c-1.9,1.2-3.5,2.2-5.5,3.3C117.2,91.6,113.3,93.6,113.5,94.6z"/>
<path class="st0" d="M88.2,53.3c0.8-0.8,0.5-4.2,0.6-5.3c0.4-9.9,6.5-13.2,6-15.3c-1.3,0.1-3.7,3.7-4.3,4.7
	c-1.1,1.6-1.9,3.3-2.4,5.1c-0.4,1.7-0.6,3.5-0.6,5.3C87.4,48.9,87.4,52.1,88.2,53.3z"/>
<path class="st0" d="M99.1,101.9c0.8,0.5,1.8,0.2,2.7,0c4.6-0.7,18.6-5.3,18.6-7.5c-0.9-0.3-3.8,1.4-5.3,2
	c-3.5,1.5-7.1,2.7-10.8,3.8C103.2,100.5,99.5,101,99.1,101.9z"/>
<path class="st0" d="M120.9,27.9l-0.6,0.9c-0.2,1.1-0.6,2.1-1.1,3c-0.8,1.4-1.7,2.7-2.7,3.9c-1.7,2-3.5,3.9-5.4,5.7
	c-0.9,0.8-1.7,1.3-1.3,2c2.8-0.1,9.3-7.8,10.8-11.2C121,31.3,122,28.6,120.9,27.9z"/>
<path class="st0" d="M116.6,73.4c1,0.1,2.6-1.3,3.5-1.9c3.7-2.5,5.5-7,6.4-10.7c0.3-1.2,1.1-3.1,0.3-3.7c-0.9,0.7-1.5,3.1-1.9,4.1
	c-0.5,1.4-1,2.8-1.6,4.2c-0.7,1.5-1.7,2.9-2.9,4.1C119.4,70.5,116.7,72.5,116.6,73.4z"/>
<path class="st0" d="M85.7,131.8c0.5,0.3,0.5,0.4,1.7,0.1c6.3-1.2,9.5-3,14.2-6.3c1.1-0.7,3.2-2.2,3.5-3.1c-1.1-0.3-3.8,1.8-4.9,2.5
	c-3,2.1-6.3,3.7-9.7,5C89.2,130.4,86.5,131.1,85.7,131.8z"/>
<path class="st0" d="M18.3,80.6c0,0.9,2.5,2.7,3.4,3.6l7,7.5c0.8,0.9,2.7,3.3,3.9,3.3c0.3-0.8-2-3-2.6-3.8c-1.8-2-5.4-6.2-7.4-7.9
	C21.8,82.7,19.4,80.3,18.3,80.6z"/>
<path class="st0" d="M121.9,44.4c-0.8,0.4-0.5,0.8-1,2c-0.9,2.3-2,3.5-3.3,5.4c-0.4,0.5-0.5,0.7-0.2,1.2c1,0.3,1.8-1,2.3-1.6
	C121,49.8,123.8,45.2,121.9,44.4z"/>
<path class="st0" d="M13.7,110.6c-1-1-3.2-3.8-4.2-5c-0.6-0.8-3.4-4.2-3.3-5.1c0,0,0,0,0.1,0c0.2,0.1,0.4,0.3,0.5,0.5
	c1.7,2.1,5.4,6.8,6.8,8.1c0.9,0.9,1.9,2.1,2.8,3.1c2.6,2.8,5.9,6.6,8.2,9.6c1.6,2,3,4.2,4.3,6.4c3.2,5.1,6.1,10.4,8.6,16
	c0.9,2,1.6,4.2,2.1,6.4l1,6.4c0.2,1,0.3,2.1,0.3,3.1c-0.6-0.2-1.8-8.1-2-9.1c-1.3-6.4-7-16.1-10.5-21.7c-2.6-4.4-5.7-8.6-9.2-12.4
	C17.9,115.3,14.9,111.9,13.7,110.6z"/>
<path class="st0" d="M93.3,88.9c0,0.2,0,0.3-0.1,0.5c-0.4-0.7-0.7-1.4-0.8-2.2c-0.2-0.7-0.4-1.5-0.6-2.2c-1.4-6.3-2.6-10.6-3.2-17
	l-0.3-4.9c0-0.3-0.1-0.3-0.1-0.6v-3.8c0-0.8,0-1.5,0-2.2c0-0.2,0-0.3,0-0.5l0.1-1.1c0-0.1,0-0.2,0.1-0.3c0.1-0.3,0-0.1,0.1-0.1
	c0.2,0.3,0.2,0.6,0.2,0.9c0,0.2,0,0.4,0,0.5l0.2,4.8c0,1,0.1,1.4,0.1,2.1l0.2,3.2c0.2,2.5,0.8,7.2,1.3,9.6c0.5,2.7,1.1,5.8,1.8,8.5
	l0.6,3.2c0,0.3,0.1,0.7,0.2,1c6.5-4.4,13.7-7.3,20.7-11.1c1.1-0.6,2.3-1.3,3.4-2l1.7-1.1c0.6-0.4,1.3-1,1.7-0.7
	c-0.2,0.7-3.2,2.6-3.8,3c-6,4-13.8,7.3-20.4,10.8C95.3,88,94.5,88.3,93.3,88.9z"/>
<path class="st0" d="M12.7,118.4c0.8,0.2,4.3,5.2,4.9,6.2c1.4,2.2,2.9,4.3,4.2,6.5l1,1.6c0.3,0.6,0.7,1.1,1.1,1.6
	c3.5,3.5,3.4,5.4,4.8,9.7c0.4,1.1,1,2.1,1.4,3.2c0.9,2.1,1.8,4.3,2.5,6.5c0.4,1.1,0.6,2.2,1,3.2c0.7,2.1,1.1,4.2,1.9,6.5
	c0.3,0.8,1.9,6.1,1.8,6.4c-1.3-0.9-4-11-4.6-12.8c-1-3.3-2.1-6.5-3.5-9.6c-0.5-1.1-1.1-2.1-1.5-3.2c-0.9-2.8-1.3-5.4-3.3-8
	c-0.5-0.6-1.1-1.1-1.5-1.6c-1.4-1.8-4.5-7.2-6.1-9.6c-1.2-1.9-2.1-3.1-3.3-4.8C13.3,119.6,12.6,118.9,12.7,118.4z"/>
<path class="st0" d="M39.1,88.8c0.4,0.6,2.2,4.8,2.6,5.8c1,2,2.1,3.9,3.3,5.8c4,6.4,6.1,10.1,7.8,17.2c0.2,1,0.4,1.9,0.6,2.9
	l1.2,8.6c0.1,0.5,0.1,1,0.2,1.5c0,0.9,0.4,3.6-0.3,4.2c-0.5-0.6-0.7-5.1-0.8-5.7c-0.1-1.1-0.4-3.2-0.5-4.4c-0.1-0.5-0.1-0.9-0.2-1.4
	c-0.5-3.9-1.5-7.8-2.9-11.5c-2.8-7.1-6.9-11.6-9.3-17.2c-0.4-1-0.8-1.9-1.1-2.9C39.5,91.1,38.7,89.2,39.1,88.8z"/>
<path class="st0" d="M13.8,143.4c-1.1-1.2-4.8-5.5-6.1-7c-2.3-2.7-5.2-6.1-7.8-9.7v-1.6c1.8,2.5,3.7,4.9,5.7,7.3
	c3.6,4.4,7.2,8.5,10.8,12.8c0.5,0.6,3.1,3.7,3,4.3c-0.6-0.3-1.1-0.8-1.5-1.4l-2.8-3.3C14.8,144.6,14.3,143.8,13.8,143.4z"/>
<path class="st0" d="M41.9,64.2l0.1,3.9c0,0.3,0,0.4,0.1,0.7c0.8,8.8,5.2,17.4,8.8,25.4c0.3,0.7,2.1,4.3,1.6,5.2
	c-0.5-0.9-0.9-1.8-1.2-2.7c-0.4-0.9-0.8-1.8-1.3-2.6c-3.7-7.4-7.5-15.3-8.6-23.5c-0.4-2.6-0.4-5.2-0.1-7.8c0.1-0.6,0.4-5,1.2-5.1
	L41.9,64.2z"/>
<path class="st0" d="M88.1,35.4c0.2,0.2,0.1,0,0.1,0.3c-0.1,0.5-2.1,4.3-2.3,4.8c-0.7,1.6-1.2,3.3-1.5,5c-0.9,4-1.4,8-1.7,12.1
	c0,0.3,0,0.4-0.1,0.6L82.3,62c0,0.4,0,0.8,0,1.2l0.1,2.5c0.1,1.7,1.2,9.4,0.8,10.1c-0.5-0.5-0.9-4.4-1-5.1c0-0.5-0.1-0.8-0.2-1.3
	c-0.2-1.5-0.4-2.1-0.5-3.8l-0.1-2.6c0-0.8-0.1-1.8,0-2.5c0-0.2,0.1-0.4,0.1-0.6c0-0.2,0-0.4,0-0.6l0.9-8.9c0.5-3.5,1.3-6.9,2.6-10.2
	C85.3,39.4,87.1,35.4,88.1,35.4z"/>
<path class="st0" d="M23.4,171.7C23.4,171.7,23.4,171.7,23.4,171.7c0.1,0,0.1,0,0.1,0c0.4,0.3-0.3-0.2,0.1,0.1l0.6,0.7
	c0.2,0.3,0.4,0.6,0.5,0.9c1.7,3,3.2,5.3,4.1,8.7c0.3,1.1,0.4,2.3,0.5,3.5c2.5-2.5,8-3.9,11.2-4.6c0.9-0.2,8.8-1.6,9.8-1.6
	c0.5-0.1,1-0.1,1.4,0.1c-0.5,0.5-7.2,1.7-8.4,2c-1,0.2-1.9,0.3-2.9,0.5c-1.9,0.4-3.8,0.9-5.6,1.5c-1.5,0.5-2.9,1.2-4.2,2
	c-0.5,0.2-1,0.5-1.5,0.8c0.1,0.6-0.1,1.2-0.4,1.6c-0.2-0.6-0.3-1.3-0.3-2c-0.2-5-2.3-7.9-4.5-12.2C23.8,173.3,23,172,23.4,171.7z"/>
<path class="st0" d="M12.6,84.3c-0.7-0.4-3.4-2-3.6-2.8c0.3-0.3,1.6,0.6,2,0.8c4.9,2.8,9.5,6.3,13.5,10.3c2.5,2.3,5.5,4.6,7.7,7.3
	c1.8,2.2,3.5,4.5,5.1,6.8c0.3,0.3,0.4,0.6,0.4,1c-2.4-2.4-4-5.2-6.4-7.6c-1.3-1.3-2.5-2.5-3.8-3.6s-2.6-2.2-3.7-3.3
	c-2.3-2.4-4.8-4.5-7.5-6.5C15.1,86,13.8,85.1,12.6,84.3z"/>
<path class="st0" d="M55.9,50.7c0.2,0.4-1.3,5.5-1.4,7s-0.3,3.2-0.3,4.7c0,0.4,0,0.8,0.1,1.2c0,1.2,0.1,2.4,0.2,3.6
	c0,0.2,0,0.4,0,0.6l0.5,4.1c0.3,2,0.9,5,1.3,7c0.2,1.2,2,8.8,1.5,9.4c-0.5-0.6-1.2-4-1.4-4.8c-1.2-4.8-2.2-9.7-2.8-14.7l-0.3-3.6
	c-0.1-1,0-3.1,0-4.1l0.2-2.3c0-0.4,0.1-0.7,0.1-1.2C53.8,56.5,55,51.2,55.9,50.7z"/>
<path class="st0" d="M78,50.2c-0.4,1.6-0.8,3.2-1.4,4.7c-0.5,1.5-0.9,3.1-1.2,4.7c-0.4,2.1-0.7,4.3-0.8,6.5c0,0.2,0,0.4,0,0.6
	c-0.1,0.7,0,1.6,0,2.4c0.1,5.2,0.7,10.3,1.8,15.4c0.2,0.7,0.8,3.1,0.4,3.5c-0.4-0.4-1.2-4.1-1.4-4.7l-0.5-2.4l-1.1-8.3
	c-0.1-2-0.1-4,0-6c0-0.2,0-0.4,0-0.6s0-0.4,0.1-0.6l0.4-3.6c0.3-2.4,0.9-4.8,1.6-7.1C76,54.1,77.3,50.4,78,50.2z"/>
<path class="st0" d="M130.7,75.4c-3.6,6.3-12.8,11.5-19,14.6c-0.5,0.3-7.2,3.6-8,3.3c0.2-0.3,0.5-0.6,0.9-0.7l6.7-3.5
	c2.6-1.3,5.1-2.8,7.6-4.3c3.5-2.2,8.8-5.9,10.9-9.7c0.6-1.3,1.4-2.6,2.4-3.7C132.7,72,131,74.8,130.7,75.4z"/>
<path class="st0" d="M67.7,88c0.4,0.2,0.6,0.6,0.7,1.1c1.1,4.3,1.8,8.7,2.1,13.1l0.3,9.7c0,1.3-0.2,2.3-0.2,3.4
	c-0.1,2-1.2,8.4-2.4,9.1c0-0.8,0.1-1.5,0.4-2.3c0.2-0.7,0.4-1.5,0.6-2.3l0.5-3.4c0-0.2,0-0.4,0-0.6s0-0.3,0.1-0.5
	c0.2-2.7,0.1-5.3,0.1-8l-0.1-1.1c0-0.4,0-0.8,0-1.2l-0.4-4.6c0-0.2,0-0.4,0-0.6c-0.2-2.1-0.6-5.3-1-7.4c-0.1-0.8-0.3-1.5-0.4-2.3
	c-0.1-0.4-0.1-0.8-0.2-1.1C67.6,88.8,67.6,88.4,67.7,88z"/>
<path class="st0" d="M71.3,162.1c-0.6,0.1-3.8,0.8-4,0.4c0.2-0.3,0.6-0.5,0.9-0.5c0.4-0.1,0.6-0.2,1-0.3l8.2-2
	c0.7-0.2,1.4-0.4,2-0.5c1.4-0.3,2.7-0.8,4.1-1.2s2.8-0.9,4.1-1.4c2.8-1,5.6-2.2,8.2-3.6c1.3-1,2.7-2,4.1-2.9c0.2,0.9-2.9,3-3.6,3.5
	c-3.7,2.6-12.1,5.2-16.6,6.5C77.3,160.8,73.6,161.7,71.3,162.1z"/>
<path class="st0" d="M20.7,144.7c1.6,1.3,7.9,13.7,9.2,17.1c2,4.7,3.4,9.7,4.1,14.8c0.1,0.4,0.1,0.7,0.1,1.1c0.1,0.3,0.1,0.7,0,1
	c-0.4-0.3-1.1-3.6-1.2-4.2c-0.3-1.4-0.6-2.8-1.1-4.3c-0.8-2.9-1.9-5.7-3-8.5c-1.1-2.7-2.6-5.9-4.1-8.5c-0.8-1.6-3.1-5.8-3.8-7.4
	C20.8,145.4,20.6,145.1,20.7,144.7z"/>
<path class="st0" d="M98.5,26.6c0.3,0.4,0,1.6,0,2.1c-0.3,2.1-0.8,4.3-1.3,6.4c-0.6,2.9-1.4,5.7-2.1,8.6c-0.8,3.3-1.2,5.3-1.8,8.6
	l-0.5,3.2c0,0.2,0,0.3,0,0.5c-0.1,0.8-0.3,4.4-0.6,4.8c-0.4-0.4-0.4-3-0.3-3.7c0-0.2,0.1-0.4,0.1-0.5c0.1-2.2,0.4-4.3,0.8-6.4
	c0.1-0.7,0.3-1.4,0.4-2.1c0.5-2.4,2.4-10.3,3.1-12.9C96.6,33.7,97.9,27.3,98.5,26.6z"/>
<path class="st0" d="M0,119c0.7,1.1,1.4,2.1,1.8,2.8c2.4,3.6,5.2,7.4,7.9,10.9c0.5,0.6,2.5,3,2.4,3.6c-0.7,0.1-2.7-2.7-3.2-3.3
	c-3.2-3.9-6.1-7.9-8.8-12.1V119z"/>
<path class="st0" d="M92.8,120.4c0.7-0.3,1.4-0.5,2.1-0.5c-0.8,1.3-6.7,2.9-8.2,3.2c-2.3,0.5-5.8,0.9-8.2,1.2
	c-1.4,0.1-2.8,0.4-4.1,0.6c-0.6,0.1-1.4,0.3-2,0.5c-2.2,0.5-4.2,1.4-6.1,2.5c-1.3,0.8-2.7,1.6-4.1,2.3c0-0.8,3.3-2.7,3.9-3.1
	c1.3-0.8,2.7-1.5,4.1-2c2-0.7,4.1-1.2,6.2-1.5l5.7-0.7c2.2-0.2,4.4-0.6,6.6-1.1L92.8,120.4z"/>
<path class="st0" d="M14.1,115.3c0.1,0,0.1,0,0.2,0c0.9,0.4,6.9,9.5,7.7,10.6s1.7,2.3,2.5,3.5c1.6,2.2,2.9,4.6,4.2,6.9l1.9,3.5
	c0.3,0.6,0.7,1.1,1,1.7c0.2,0.3,0.3,0.6,0.4,0.9c0.2,0.3,0.2,0.6,0,0.9l-0.4-0.3c-0.5-0.4-3.6-6-4.2-6.9c-1.4-2.4-2.8-4.7-4.4-6.9
	c-2.5-3.3-4.7-6.9-7-10.3l-1.1-1.7c-0.2-0.3-0.4-0.6-0.5-0.9s-0.2-0.3-0.2-0.4C14,115.5,14,115.6,14.1,115.3z"/>
<path class="st0" d="M57.7,94.4c0.8,1.3,1.5,2.6,2.1,4c1.1,2.6,1.6,5.4,1.6,8.2l0.3,3.6c0.4,3.5,1.5,4.2,2,7.7
	c0.4,2.9,0.1,3.6-0.2,6.1c-0.1,1-0.3,2.1-0.6,3.1c-0.2-0.3-0.3-0.7-0.2-1c-0.1-0.3-0.1-0.7,0-1c0-0.7,0-1.3,0.1-2
	c0-0.3,0.1-0.7,0.1-1c0.1-1,0.1-2,0-3.1c-0.2-2.3-1.1-4.1-1.8-6.1c-0.3-1-0.5-2-0.6-3.1l-0.1-4.7c-0.3-5.4-2.5-8.3-2.8-10.2
	C57.5,94.7,57.6,94.5,57.7,94.4z"/>
<path class="st0" d="M48.6,52.9c0.1,0.2,0.1,0,0,0.3l-0.7,1.7c-0.3,0.6-0.5,1.2-0.6,1.9l-0.2,3.8c0,4.6,2,11,3.5,15.3
	c0.4,1.2,1,2.6,1.5,3.8c0.1,0.3,1.7,3.4,1.4,3.8c-0.2-0.1-0.4-0.2-0.5-0.4c-2-2.7-5-11.3-5.7-14.7c-0.6-2.5-1-5-1.1-7.6
	c0-1.3,0.1-2.6,0.3-3.8C46.6,56.2,47.6,52.9,48.6,52.9z"/>
<path class="st0" d="M67.3,133.1c1.2-0.5,2.4-0.8,3.6-0.9c6.2-1.2,12.1-2.5,18.2-4.2l5.5-1.6c0.6-0.3,1.2-0.4,1.8-0.3
	c-0.2,0.8-6.3,2.6-7.2,2.9c-1.2,0.3-2.4,0.7-3.7,1l-3.7,0.9c-3.6,1-7.3,1.5-11,2.2c-0.6,0.1-1.2,0.2-1.8,0.3
	C68.6,133.3,67.5,133.5,67.3,133.1z"/>
<path class="st0" d="M0,106.8c1,2.5,2.1,4.9,3.4,7.3c0.6,1.2,1.4,2.4,2,3.6c1,1.9,2.1,3.5,3.1,5.5c0,0.1,1.1,2.2,0.4,1.5
	c-1.2-1.3-4-5.9-4.9-7.4c-1.4-2.3-2.6-4.6-3.7-7.1L0,109.4L0,106.8L0,106.8z"/>
<path class="st0" d="M37.6,111.8c0.6,0.1,2.5,2.8,2.9,3.4c3.7,5.4,6.5,11.3,8.4,17.5c0.2,0.6,0.3,1.1,0.4,1.7
	c0.2,1.1,0.3,2.3,0.2,3.5c0,0.6-0.2,1.3-0.6,1.8c-0.3-0.4,0.1-2.4-0.1-3.5c-0.2-1.2-0.4-2.4-0.8-3.5c-2-6.2-4.8-12-8.4-17.5
	C39.1,114.5,37.7,112.7,37.6,111.8z"/>
<path class="st0" d="M39.5,165.4c-0.1-0.7,2.6-2.6,3.2-3c2.7-1.9,5.7-3.4,8.9-4.3c0.7-0.2,1.2-0.3,1.8-0.5c2.9-0.9,7.6-1.8,10.7-2.5
	c0.6-0.1,3.3-0.7,3.6-0.5c0.4,0.4-2.8,1.1-3.2,1.2c-3.6,1-7.2,1.8-10.8,2.7c-3.8,0.9-7.4,2.5-10.7,4.7
	C41.9,164,40.7,164.7,39.5,165.4z"/>
<path class="st0" d="M20.9,153.3c1.3,0.2,7,11.8,7.7,13.5c1.6,3.3,2.9,6.7,3.9,10.3c0.1,0.6,0.7,3.1,0.3,3.4s-0.6-1.1-0.7-1.4
	c-0.1-0.5-0.3-1.2-0.4-1.7c-0.8-3.9-5.5-13.3-7.4-17.1c-0.6-1.1-1.2-2.3-1.8-3.5C22,156,20.7,154,20.9,153.3z"/>
<path class="st0" d="M63.5,46.7c0.1,0.3,0,0.7-0.2,0.9c-0.5,0.9-1.1,1.8-1.7,2.6c-1.5,2.1-2.5,4.5-2.8,7.1c-0.3,1.2-0.5,2.4-0.6,3.5
	l-0.5,5.3c-0.1,1.1-0.1,2.5-0.1,3.6v1.8c0,0.8,0,1.1,0,1.8c0.1,0.6,0,1.2-0.3,1.7c-0.2-0.6-0.4-1.1-0.4-1.8c0-0.3,0-0.6-0.1-0.9
	s-0.1-0.5-0.1-0.9c-0.3-6.2-0.1-11.3,1.8-17.5c0.4-1.2,0.9-2.4,1.7-3.5C61.3,49.2,62.4,47.9,63.5,46.7z"/>
<path class="st0" d="M70.4,145.2c-0.7,1.1-5.9,2-6.9,2.2c-5.7,1-7.5,1-14,3.7c-2.8,1.2-4.2,2.3-6.5,3.5c-0.3,0.1-0.3,0.1-0.5,0.1
	c0.6-1.3,5.6-3.9,6.9-4.5c3.9-1.8,8-2.9,12.2-3.4c1.8-0.2,3.5-0.5,5.3-0.9l2.6-0.6C69.8,145.1,70.1,145.1,70.4,145.2z"/>
<path class="st0" d="M17.6,129.4c-1.1,0-7.6-9.7-8.6-11.2c-0.4-0.6-7.6-10.8-6.9-11.5c0.2-0.2,0.5,0.1,0.7,0.4
	c0.2,0.2,0.3,0.5,0.5,0.7l2.8,4.3c3.1,4.7,6.7,9.8,9.9,14.4C16.1,126.8,17.8,128.9,17.6,129.4z"/>
<path class="st0" d="M80.3,178.4c-0.4,0.9-4,1.6-5,1.9c-1.9,0.4-3.3,0.5-5.2,0.7c-0.3,0-0.5,0-0.9,0.1c-1.5,0.2-6.1,0.4-7.8,0.5
	l-5.2,0.1c-0.5,0-3,0.1-3.4-0.3c0.3-0.4,2.1-0.5,2.5-0.5l3.9-0.1c0.2,0,0.2,0,0.4,0h0.9l3.4-0.2c1.1,0,2.4-0.2,3.4-0.2
	c0.4,0,0.5,0,0.9-0.1s0.5,0,0.9,0c2.6-0.2,5.2-0.5,7.7-1l2.6-0.7C79.9,178.3,80,178.2,80.3,178.4z"/>
<path class="st0" d="M5,84.3L5.3,84c0.4,0.9,0.7,1.8,0.8,2.8c0.1,1,0.5,1.9,1,2.8c1.3,2,2.7,3.9,4.4,5.5c2.3,2.3,7.7,7.5,9.4,10.4
	c0.3,0.5,0.3,0.5,0.2,0.7c-0.4,0-2.1-2.1-2.5-2.5C14.5,99,9,94.8,6.2,89.8c-0.7-1.3-1.1-2.7-1.2-4.1C4.9,85.2,4.9,84.7,5,84.3z"/>
<path class="st0" d="M79.6,143.3c-0.6,0.1-1.3,0.3-1.5-0.1c1-0.5,2-0.8,3.1-1c3.2-0.8,6.3-1.8,9.4-3.1c2.1-0.9,4.2-2,6.3-3.2
	c1-0.6,2-1.3,3.1-2c0.5-0.3,2.2-1.5,2.7-1.7c0.3-0.1,0.1-0.1,0.4,0c-0.1,0.9-5.2,4.2-6.1,4.8c-4.8,3-10.2,5.1-15.8,6.2
	C80.7,143.2,80.2,143.3,79.6,143.3z"/>
<path class="st0" d="M75,42.1c-0.1,0.6-0.4,1.2-0.8,1.7c-1,1.5-1.8,3.1-2.4,4.8c-0.8,2.1-1.4,4.3-1.9,6.4c-0.3,1.1-0.5,2.2-0.6,3.3
	c-0.3,1.6-0.4,3.2-0.4,4.8c0,1.1,0.1,2.9,0.2,4c0.1,0.3,0.1,0.5,0,0.8c-0.7-0.2-0.9-2.6-1-3.1c-0.2-3.2,0-6.4,0.8-9.5
	c0.7-3.3,1.7-6.5,3.2-9.5C72.4,45.3,74,42.2,75,42.1z"/>
<path class="st0" d="M0,199.3c0.3,0.9,0.6,1.8,0.9,2.6c0.5,1.5,1.5,4.5,2.4,7.7H2.3c-0.2-0.5-0.3-1-0.4-1.6c-0.4-1.6-1.3-4-1.8-5.9
	L0,199.3L0,199.3z"/>
<path class="st0" d="M54.8,105.3c1.4,1.4,1.7,4.9,2,6.4s2.1,1.9,2.5,11c0,0.1,0,0.3,0,0.4l0.1,2.7c0,1,0.3,4.2-0.1,4.7
	c-0.6-0.6-0.6-3.3-0.8-4.5c0-0.1,0-0.2,0-0.4l-0.1-1.6c-0.1-0.8,0-2.3-0.1-3.2c-0.4-2.6-0.4-5.4-2-8c-0.8-1.3-0.6-4.6-1.4-6.4
	l-0.4-0.8c-0.3-0.7-0.3-0.5-0.1-0.8L54.8,105.3z"/>
<path class="st0" d="M76.6,91c0.9,0.2,1.5,5.3,1.7,6.4s0.3,1.2,0.5,2.5c0,0.3,0,0.5,0,0.8c0,0.8,0,1.6-0.1,2.5l-1,7.4
	c-0.1,0.9-0.8,6.3-1.2,6.4c-0.9,0.3,0.6-8.8,0.7-9.6c0.3-2.8,1-6.2,0.3-9c-0.3-1.2-0.5-4.3-0.8-5.7C76.5,92.1,76.5,91.6,76.6,91z"/>
<path class="st0" d="M60.3,136.1c1.6-0.3,3-0.4,4.4-0.6c2-0.3,3.6-0.4,5.9-0.9c0.9-0.2,1.9-0.4,2.9-0.3c-0.3,0.6-3.6,1.3-4.5,1.5
	l-4.6,0.7c-4.3,0.6-8.1,1-12.2,3.7c-0.9,0.7-1.9,1.3-3,1.8c0.1-0.4,0.4-0.8,0.7-1c0.9-0.8,1.9-1.6,2.9-2.2
	C55.2,137.4,57.7,136.5,60.3,136.1z"/>
<path class="st0" d="M17.2,168.3c0.7,0.9,1.3,1.8,1.7,2.9c2,4,6.1,12.8,6.1,17.1c0,0.5-0.1,2.4-0.8,2.8c-0.3-0.6,0.2-1.5,0-2.8
	c-0.8-5-3-9.7-5-14.3c-0.4-1-1.5-3.3-1.8-4.3S16.8,168.7,17.2,168.3z"/>
<path class="st0" d="M55.8,201.5c-0.2,0.7-2.1,1.8-2.8,2.2c-4.2,2.4-10.6,2.6-15.1,2.5l-5.3-0.1c-0.3,0.1-0.6,0-0.8-0.2
	c0.4-0.3,1-0.4,1.5-0.4c1.3-0.1,3.5-0.1,4.5-0.1c1.5,0,3.1-0.1,4.5-0.2c2.5-0.1,5-0.5,7.5-1.1c3.1-1,2.8-1.2,5.3-2.4
	C55.2,201.6,55.5,201.5,55.8,201.5z"/>
<path class="st0" d="M54.9,168.6c0.4-0.5,2.3-0.7,2.8-0.7c1-0.1,1.9-0.3,2.9-0.4c0.5-0.1,0.9-0.1,1.4-0.2l4.4-0.6
	c2.7-0.4,6-0.9,8.6-1.2c0.6-0.1,2.8-0.5,2.8,0s-2.4,0.8-2.7,0.9c-1,0.2-1.9,0.4-2.9,0.5s-1.9,0.3-2.9,0.4l-4.3,0.6
	c-0.5,0.1-1,0.1-1.4,0.2l-6.5,0.8c-0.2,0-0.5,0-0.8,0C55.9,169,55.4,168.9,54.9,168.6z"/>
<path class="st0" d="M10.9,158.2c0.3,0.1,0.6,2.3,0.7,2.7c0.2,0.9,0.5,1.9,0.8,2.8c1.2,3.4,3.4,8,5,11.3c0.8,1.6,1.5,3.2,2,4.9
	c0.2,0.2,0.2,0.5,0,0.7c-0.7-0.5-5.1-9.8-5.7-11.3c-0.8-1.9-1.6-3.7-2.3-5.6C11.2,162.9,10,158.6,10.9,158.2z"/>
<path class="st0" d="M0,207c0.3,0.8,0.7,1.7,1,2.6H0.1L0,209.3V207z"/>
<path class="st0" d="M84.9,82.2c0.5,0.9,0.9,1.9,1.1,2.9c0.3,1,0.8,1.9,1.1,2.9c0.7,1.8,1.2,3.7,1.5,5.6c0.4,3.2,0,4.3-0.4,7.1
	c-0.1,0.5-0.2,0.9-0.3,1.4s-0.1,0.9-0.1,1.4c0,0.5-0.1,1-0.3,1.4c-0.8-0.9,0-4.7,0.1-5.7c0.6-4.6,0.1-7-1.4-11.4
	C85.9,87,84.3,82.9,84.9,82.2z"/>
<path class="st0" d="M23.4,98.4c-0.5,0-1.6-1.2-2-1.6c-0.5-0.6-5.2-4.9-6.2-5.9c-1.3-1.3-2.8-2.5-4.1-3.8L8,84.3
	c-0.3-0.3-0.9-0.8-0.4-1s0.7,0.2,1,0.5l1,0.9c0.6,0.6,1.4,1.2,2.1,1.8c2,1.8,8.9,8.1,10.4,9.9c0.5,0.5,0.9,1,1.3,1.6
	C23.4,98.1,23.5,98.3,23.4,98.4z"/>
<path class="st0" d="M11.2,180.7c0.6,0.2,2.5,4.8,2.8,5.6c2,4.4,2.9,6.7,2.6,11.4c0,0.7-0.7,5.2-1.4,5.7c-0.1-0.4-0.1-0.9,0-1.4
	c0-0.5,0.1-1,0.2-1.4c0.4-1.9,0.4-3.8,0.3-5.7c-0.2-3.5-2.4-8-3.8-11.4l-0.7-2.1C11.2,181.2,11.1,181,11.2,180.7z"/>
<path class="st0" d="M122.2,49.8c0.3-0.8,0.8-1.5,1.3-2.1c0.2,0.4,0.2,0.8-0.1,1.2c-0.5,1.2-1.1,2.4-1.8,3.5
	c-2.2,3.3-4.9,6.4-7.8,9.1c-0.8,0.8-3.8,3.3-4.6,3c0-0.2-0.1-0.1,0.1-0.4c0.6-0.6,1.2-1.1,1.9-1.5c0.8-0.6,1.5-1.3,2.2-2
	s1.4-1.4,2.1-2.1C118,55.8,120.3,52.9,122.2,49.8z"/>
<path class="st0" d="M111.3,70.4c1.2-0.7,1.8-1.2,2.2-0.5c-0.2,0.5-2.6,1.8-3.4,2.3c-3.3,1.9-7,4.1-10.3,6.1
	c-0.8,0.5-1.5,0.9-2.3,1.4c-0.4,0.2-0.8,0.5-1.1,0.7s-0.8,0.5-1.1,0.3C95.6,79.2,108.4,72,111.3,70.4z"/>
<path class="st0" d="M46.4,191.3c0.3-0.5,1.9-0.5,2.6-0.5c2-0.1,11.1,0.1,12,0c0.4,0,0.9-0.1,1.4-0.1c1.3-0.1,2.7-0.2,4-0.5
	c0.3-0.1,1.3-0.4,1.3-0.1c0,1-5,1.5-5.9,1.6l-4.7,0.1c-1.8,0-3.5,0-5.3-0.1c-0.2,0-0.4,0-0.6,0C49.7,191.7,46.8,191.8,46.4,191.3z"
	/>
<path class="st0" d="M4.8,176.4c0.4,0.3-0.1,2.9-0.2,3.8l-0.3,6.4c0,1.2,0.1,1.7,0.1,2.5c0.2,2.4,0.5,4.7,0.9,7.1
	c0.1,0.4,0.2,0.3-0.1,0.7c-1.3-1.3-1.8-8.5-1.8-10.3l0.1-3.8C3.5,181.5,4.1,176.8,4.8,176.4z"/>
<path class="st0" d="M34.3,199c-0.4,0.4-1.9,0.4-2.4,0.5c-1.4,0.2-2.8,0.5-4.1,0.8c-3.7,0.9-7.3,2-10.8,3.4
	c-0.6,0.3-1.2,0.5-1.9,0.7c-0.3,0.1-0.4,0.2-0.7,0c0.6-1.3,8.3-3.8,9.9-4.2c2.1-0.6,4.2-1.1,6.3-1.4c0.8-0.1,1.7-0.2,2.5-0.2
	C33.5,198.7,34.2,198.6,34.3,199z"/>
<path class="st0" d="M90.2,49.5c-1.1-1.2,1.5-8.9,1.8-9.8c0.4-1.2,3.5-9.6,4.5-9.6c0.5,0-0.5,2.1-0.6,2.4c-1.7,4-3.2,8-4.3,12.2
	c-0.2,0.8-0.4,1.6-0.6,2.4C90.8,47.9,90.6,48.7,90.2,49.5z"/>
<path class="st0" d="M102.1,114.1c-3.5,0.8-7.2,1-10.2,1.7c-1,0.2-4.7,1.4-5,1.3c0-0.4,0.8-0.7,1.1-0.9c2.9-1.2,5.9-2,9-2.3
	c3.1-0.3,6.1-0.9,9-1.8c0.4-0.2,0.8-0.2,1.2-0.1C107,112.8,102.8,114,102.1,114.1z"/>
<path class="st0" d="M95.1,95.6c-0.8,0.4-1.6,0.7-2.4,1c-0.6,0.2-1.9,0.8-2.3,0.5c0.2-0.5,3.9-2.1,4.7-2.5c3.2-1.6,6.3-3.2,9.5-4.7
	c0.8-0.4,1.6-0.7,2.4-1s1.9-0.9,2.4-0.5c-0.4,0.5-3.9,2.1-4.7,2.5c-1.5,0.8-3.3,1.6-4.7,2.4C98.2,94.2,96.7,94.8,95.1,95.6z"/>
<path class="st0" d="M97.2,59.1c0.6,0.7-0.1,4.1-0.2,5c-0.6,3.7-2,8.9-1.2,12.6c0.2,0.8,0.3,1.6,0.3,2.5c-0.9-0.2-1.3-4-1.3-5
	c0-1.6,0.1-1.8,0.1-3.2c0.1-1.8,1.3-7.2,1.7-9.4C96.6,60.9,96.7,59.5,97.2,59.1z"/>
<path class="st0" d="M84.6,174.8l-0.3,0.3l-2.5,1c-2.7,1.1-5.4,1.8-8.3,2.2c-0.3,0-0.4,0-0.6,0.1c-1.1,0.2-5.5,0.1-6.4,0.1
	c-0.9,0-1.7-0.1-2.6-0.3c0.4-0.2,0.8-0.3,1.3-0.3l2.6-0.1c0.4-0.1,1.7,0,2.6-0.1l1.9-0.1c0.2,0,0.4,0,0.6,0c1.3-0.1,2.6-0.4,3.9-0.7
	c2-0.5,4.9-1.5,6.5-1.9C83.7,174.7,84.2,174.7,84.6,174.8z"/>
<path class="st0" d="M6.6,174.9c0.1,0.1,0.2,0.3,0.2,0.5v1.9c0,0.5-0.1,0.8-0.1,1.3c0,0.6,0,1.3,0.1,1.9c0,0.2,0,0.4,0,0.6
	c0,0.4,0,0.9,0.1,1.3c0.1,1.7,0.4,3.4,0.7,5.1c0.5,2.2,1.1,4.3,1.8,6.4c0.2,0.4,0.2,0.8,0.2,1.2c-1-0.2-2.6-5.9-3-7.5
	c-0.4-1.7-0.6-3.4-0.7-5.1l0.1-5.2c0.1-0.4,0.1-0.8,0.2-1.3C6.2,175.7,6.3,175.2,6.6,174.9z"/>
<path class="st0" d="M66.1,142.8c-0.8,0-2.6,0.1-3-0.5c0.3-0.4,2-0.4,2.5-0.4c0.4,0,0.8,0,1.2-0.1l2.5-0.2c2.8-0.2,5.4-0.6,8.1-0.9
	l0.6-0.1c1-0.1,1.6-0.2,2.5-0.4c0.6-0.1,2.3-0.5,2.3,0s-2.1,0.8-2.4,0.9l-8.1,1.1c-0.2,0-0.4,0.1-0.6,0.1c-1.1,0-2.6,0.3-3.7,0.3
	L66.1,142.8z"/>
<path class="st0" d="M76.1,71c0.5,0.3,0.8,1.7,0.9,2.2c0.6,2.2,1.2,4.6,1.8,6.8c0.5,1.9,1.3,4.9,1.7,6.8c0.1,0.6,0.7,2.1,0,2.1
	c-0.5,0-0.7-1.4-0.9-2.1c-0.6-2.2-1.2-4.5-1.8-6.8l-1.7-6.8C76,72.7,75.6,71.4,76.1,71z"/>
<path class="st0" d="M117.5,88.9c-0.7,0.1-0.5-0.2,0-0.6l3.1-1.9c2.7-1.7,8-5.1,10.1-7.4c0.3-0.4,1.3-1.8,1.5-1.9
	c0.8,0.8-1.6,3.3-2.5,4c-2.5,2.1-5.2,4-8.1,5.7C120.3,87.7,118.9,88.4,117.5,88.9z"/>
<path class="st0" d="M126,53.4c0.1,0.5,0.1,1.1-0.1,1.6c-1.1,4.1-2.1,8-5.4,11.3c-1,1-2.1,1.9-3.2,2.7c-0.7,0.4-0.6,0.4-0.8,0.2
	c0.6-1,2.8-2.9,3.8-4c1.9-2.3,3.3-5,4.1-7.9C124.6,56.6,125.4,53.9,126,53.4z"/>
<path class="st0" d="M0,94.4c0.9,2,1.9,4.3,2.2,5.2c0.7,1.5,1.3,2.6,2,4.1c0.5,0.9,1.6,2.7,1.9,3.5c0.1,0.2,0.1,0.4,0,0.5
	c-0.8-0.1-2.6-3.4-3-4.2c-0.7-1.3-1.4-2.6-2-4c-0.4-1-0.8-1.9-1.2-2.8L0,94.4L0,94.4z"/>
<path class="st0" d="M72.3,43.6c0.2,0.4-0.8,1.6-1.1,2.1c-2.2,3.8-3.8,8-4.6,12.3c0,0.7-0.2,1.4-0.6,2c-0.6-0.7,0-3.3,0.2-4.3
	c0.7-2.9,1.7-5.7,3.1-8.4C69.6,46.8,71.4,43.5,72.3,43.6z"/>
<path class="st0" d="M114.1,62.6c0.4-0.7,0.9-1.3,1.5-1.8c0.5-0.5,1.1-1.1,1.5-1.8c0.9-1.2,1.8-2.3,2.6-3.5s1.6-2.3,2.4-3.5l1.7-2.7
	c0.4-0.4,0.6-0.3,0.6,0.1c-0.1,1.3-3.1,5.7-4.1,7.1c-1.1,1.6-3.6,4.9-5.3,5.9C114.5,62.7,114.3,62.7,114.1,62.6z"/>
<path class="st0" d="M103.4,61.3c-0.4,0.4-1.3,1.7-1.9,1.8c-0.3-0.4,0.4-1.3,0.7-1.6c0.9-1.2,2-2.4,3.1-3.4c2.3-2.1,4.8-4,7.5-5.5
	c0.6-0.3,0.8-0.4,1.1-0.1c-0.7,0.8-1.6,1.4-2.5,1.9C108.5,56.4,105.8,58.7,103.4,61.3z"/>
<path class="st0" d="M95.7,90.2c-0.6,0.4-3.4,2.6-3.5,1.7c-0.1-0.4,1.3-1.3,1.6-1.5c3.3-2.6,7-4.6,11-5.9c0.3-0.1,0.6-0.2,0.9-0.3
	c0.3-0.2,0.6-0.2,0.8,0c-0.3,0.6-2.8,1.5-3.5,1.8C100.5,87.2,98,88.6,95.7,90.2z"/>
<path class="st0" d="M105.8,7.2c0.2-0.1,0.3,0,0.5,0.2c0.3,0.5,0.6,0.9,0.8,1.5c0.3,0.7,0.5,1.3,0.8,2c0.5,1.4,1.2,2.7,2.1,3.9
	c0.8,1.3,1.5,2.6,2,4c0.2,0.7,0.9,3.3,0.3,4c-0.3-0.6-0.5-1.3-0.6-2c-0.5-2.4-1.4-3.7-2.7-5.8c-1.1-1.8-2-3.8-2.5-5.8
	C106.1,8.6,105.9,7.9,105.8,7.2z"/>
<path class="st0" d="M5.5,199.2c0.6,0.2,1.8,3.2,2,3.8c0.6,1.6,1,3.2,1.2,4.9l0.1,1.7h-1c-0.2-2.9-0.8-5.8-1.9-8.5
	C5.7,200.6,5.1,199.6,5.5,199.2z"/>
<path class="st0" d="M61.1,88.3c-0.6-0.2-1.1-4.1-1.2-4.9l-0.7-7c0-0.4-0.2-3.9,0.5-3.9c0.4,0,0.3,1.8,0.3,1.9c0,1.4,0.2,2.7,0.3,4
	c0,0.7,0.1,1.3,0.2,2l0.5,4c0.1,0.7,0.2,1.3,0.2,2C61.3,86.9,61.5,88.1,61.1,88.3z"/>
<path class="st0" d="M44.8,56c0.2,0.1,0.3,0.3,0.2,0.5L44.7,58c-0.4,2.6-0.6,5.2-0.5,7.9c0.1,0.6,0.1,1.3,0.1,1.9
	c0,1,0.4,3.5-0.2,3.9c-0.6-0.6-0.7-3.3-0.8-4s0-1.3-0.1-2c-0.1-1.3,0-2.7,0.1-4C43.3,60.4,43.8,56.5,44.8,56z"/>
<path class="st0" d="M110.5,25c-0.3-0.6-0.5-1.2-0.6-1.8c-0.2-0.6-0.5-1.3-0.7-1.9c-1-2.5-2.3-5-3.4-7.5c-0.2-0.6-1.4-3.6-0.7-3.6
	c0.3,0.2,0.4,0.5,0.5,0.9c0.4,1.1,2.5,5.4,3,6.6s1.1,2.4,1.6,3.8C110.3,22,111.3,24.7,110.5,25z"/>
<path class="st0" d="M33.2,91.5c-0.8-1.1-1.6-2.3-2.2-3.5c-1.2-2.2-2.2-4.5-3-6.9c-0.2-0.6-0.3-1.1-0.4-1.7c0-0.1-0.1-2,0.4-1.2
	c0.2,0.6,0.4,1.1,0.5,1.7c0.5,1.8,1.2,3.5,2,5.2c0.5,1.2,1.1,2.3,1.7,3.5l1.4,2.6c0.3,0.6,0.3,0.6,0.1,0.9
	C33.5,91.9,33.3,91.7,33.2,91.5z"/>
<path class="st0" d="M105.4,106c-0.7,0.2-5.4,1.9-6,1.9c-0.4,0-0.6-0.2-0.1-0.6c0.8-0.6,5.6-2.2,6.8-2.5c1.1-0.3,2.3-0.6,3.4-0.8
	c0.4,0,0.5,0,0.9-0.1c0.3-0.1,0.6-0.1,0.9,0c0.3,0,0.6,0.1,0.9,0.2c0.3,0.1,0.6,0.4,0.2,0.6c-0.3,0.1-0.6,0.1-0.9,0
	C110.2,104.6,106.5,105.6,105.4,106z"/>
<path class="st0" d="M103.5,53.9c-0.2-0.6-0.2-1.2-0.2-1.9c0-0.4,0.1-0.6,0.1-0.9s0-0.6,0-0.9c0-1.8-0.3-3.7-0.8-5.4
	c-0.1-0.6-0.3-1.3-0.5-1.8c-0.1-0.3-0.1-0.6-0.2-0.9c-0.1-0.5-0.3-2.6,0.3-2.6c0.3,0,0.4,1.3,0.5,1.7c0.1,0.6,0.3,1.2,0.4,1.8
	c0.5,1.5,0.8,3,1,4.5C104.3,48.8,104.4,53,103.5,53.9z"/>
<path class="st0" d="M98,103.7c-0.6,0.7-2.6,1.2-3.4,1.4c-2.2,0.6-4.6,1.2-6.7,2c-0.5,0.2-2.8,1.3-3.3,1c0.2-1.1,5.6-2.8,6.6-3.1
	l5.2-1.3C96.9,103.6,97.5,103.5,98,103.7z"/>
<path class="st0" d="M116.5,11.8L116.5,11.8h0.1c0.2,0.1-0.1-0.2,0.1,0.1c0.3,0.7,0.5,1.6,0.4,2.4c0,0.3-0.1,0.5-0.1,0.8
	c-0.2,2.3-0.7,4.6-1.6,6.7c-0.3,0.6-1.5,3.3-2.3,2.9c0.1-0.6,0.4-1.2,0.8-1.7c0.3-0.5,0.5-1.1,0.7-1.6c0.8-2.1,1.3-4.3,1.6-6.5
	c0-0.3,0.1-0.5,0.1-0.8s0-0.3,0-0.4s0-0.2,0-0.4C116.3,13,116.1,12,116.5,11.8z"/>
<path class="st0" d="M12.1,176.9c-1.8-0.3-1.6-8.5-1.6-9.9c0-0.6,0-1.1,0-1.7l0.1-1.3c0-0.2,0-0.3,0.2-0.4c0,0,0,0,0,0
	c0.7-0.2,0.6,2.8,0.6,3.2c0,2.5-0.1,6.7,0.6,9.3C12.2,176.4,12.3,176.7,12.1,176.9z"/>
<path class="st0" d="M70,187c-0.2,0.6-2.4,1.1-3.4,1.4c-1.4,0.4-2.8,0.7-4.3,0.8l-2.6,0.1c-0.7,0-2.8,0.1-3.5-0.3
	c0.4-0.5,1.8-0.4,2.5-0.5c0.2,0,0.6,0,0.9,0c2.3-0.1,4.6-0.4,6.9-0.9C67.2,187.4,69.5,186.7,70,187z"/>
<path class="st0" d="M99.8,44.2c0.5,0.2,0.5,1.8,0.6,2.5c0.2,1.4,0.5,2.9,0.8,4.3c0.3,1.1,0.5,2.3,0.7,3.4c0.1,0.8,0.4,3-0.1,3.4
	c-0.3-0.5-0.5-1.1-0.5-1.7c-0.1-0.6-0.2-1.1-0.3-1.7c-0.3-1.7-0.8-3.4-1.2-5.2C99.7,48.4,99.2,44.8,99.8,44.2z"/>
<path class="st0" d="M19.7,182.5c1.6,0.7,2.6,6.4,2.8,8.1l0.1,2.4c0,0.6-0.3,2.1-0.9,2.2c-0.4-0.4,0.1-0.7,0.1-1.5
	c-0.1-3.3-0.7-6.5-1.8-9.5C19.8,183.6,19.3,182.9,19.7,182.5z"/>
<path class="st0" d="M70.5,155.3c0.6-0.5,8.6-2.1,10.5-2.5c0.6-0.1,1.2-0.4,1.5,0.1c-0.3,0.6-2.3,1-3,1.1c-1,0.2-2,0.5-3,0.7
	s-2.1,0.5-3,0.6c-0.7,0.1-2.6,0.6-3,0.1C70.4,155.5,70.4,155.4,70.5,155.3z"/>
<path class="st0" d="M12.1,193.5c0.9,0.7,1.6,4.1,1.8,5.4c0,0.3,0,0.5,0.1,0.8c0.1,1.1,0.1,2.1,0,3.2c0,0.3-0.1,0.5-0.1,0.8
	c0,0.6,0.1,2-0.4,2.4c-0.3-0.5-0.4-1-0.3-1.5c0-0.3,0-0.5,0-0.8c0-0.3-0.1-0.5-0.1-0.8c0-1.3,0-2.6-0.1-3.9c0-0.3-0.1-0.5-0.1-0.8
	C12.7,196.8,11.7,194,12.1,193.5z"/>
<path class="st0" d="M10.7,97.6c-0.5,0.1-1.9-1-2.5-1.4c-1.8-1.1-3.5-2.5-5-4c-0.7-0.7-1.2-1.6-1.5-2.6c0-0.9,0.7,0.1,0.9,0.4
	c0.9,1.4,2.1,2.6,3.5,3.5c1.2,0.9,2.8,2,3.8,3C10.2,96.7,10.9,97.2,10.7,97.6z"/>
<path class="st0" d="M84,38.1c0.4,0.4-0.1,1-0.4,1.4c-1.3,2.1-2.4,4.5-3.1,6.9c-0.1,0.5-0.3,0.9-0.4,1.4c0,0.2-0.2,1.3-0.6,1.1
	c-0.8-0.5,0.7-4.7,1-5.5C81.1,42,82.6,38.8,84,38.1z"/>
<path class="st0" d="M28.7,116.5c0.5,0.4,1,0.9,1.3,1.5l2.9,3.6c1.1,1.3,1.9,2.7,2.5,4.2c0.1,0.3,0.2,0.4-0.1,0.6
	c-0.8-0.8-1.4-1.7-2-2.7c-1.6-1.9-3.1-3.9-4.5-6C28.6,117.4,28.5,116.9,28.7,116.5z"/>
<path class="st0" d="M107.9,7.2c2,2,3.6,3.2,4.4,6.2c0.1,0.6,0.5,1.6,0.1,2.1c-0.5-0.8-0.8-1.6-1.1-2.5c-0.4-0.9-0.9-1.7-1.5-2.5
	c-0.7-0.9-4.2-4.1-3.6-4.9C106.8,5.7,107.5,6.7,107.9,7.2z"/>
<path class="st0" d="M10.8,153.6c0.6,0.5,1.7,4.4,2.1,5.5c0.8,2,1.8,3.5,2.3,4.8c0.1,0.1,0.1,0.3,0.1,0.5l0,0l-0.1,0.1
	c-1-0.5-2.9-4.5-3.3-5.4c-0.3-0.9-0.6-1.8-0.8-2.8l-0.4-2.1C10.6,154,10.7,153.7,10.8,153.6z"/>
<path class="st0" d="M48.5,199.8c0.3-0.4,1.9-0.5,2.7-0.6c2.4-0.3,4.7-0.9,6.9-1.8c0.3-0.1,0.5-0.2,0.7-0.3s0.5-0.2,0.7,0
	c-0.4,1.1-4.6,2.4-5.4,2.5C53.4,199.8,48.9,200.6,48.5,199.8z"/>
<path class="st0" d="M121.4,41.4c0.2,0.4,0.2,0.8,0,1.2c-0.1,0.4-0.3,0.8-0.5,1.2c-1.4,2.2-3,4.2-4.9,6c-0.3,0.4-0.7,0.7-1.2,0.8
	c0-0.5,0.2-0.9,0.5-1.2c1.5-2,3.2-3.4,4.7-5.7C120.3,42.8,120.8,42,121.4,41.4z"/>
<path class="st0" d="M115,31l2.7-3.7c0.6-0.6,0.7-0.1,0.6,0.2c-0.3,0.8-0.7,1.6-1.3,2.4c-1.1,1.6-3.1,4.2-4.9,5.2
	c-0.5,0.3-1.5,0.4-0.8-0.2l0.4-0.4c0.5-0.5,1.2-0.9,1.8-1.6S114.5,31.5,115,31z"/>
<path class="st0" d="M90.1,99.8c0.3-1.2,3.7-2.7,5.1-3l4.6-1c0.2-0.1,0.5,0,0.6,0.2c0,0,0,0,0,0c-0.8,1.1-5.1,1.5-7.7,2.7
	C91.6,99.2,90.6,100.1,90.1,99.8z"/>
<path class="st0" d="M114.4,9.2l0.4,0.4c0,0.3,0.3,0.9,0.4,1.3c0.2,1.3,0.1,2.6-0.2,3.8c-0.2,0.7-1.1,4.6-1.9,5
	c-0.3-0.4-0.3-0.9,0-1.3c0.5-1.7,1.5-5.1,1.4-6.7l-0.1-1.3C114,10,114.1,9.5,114.4,9.2z"/>
<path class="st0" d="M100.1,71.4c-0.3,0.2-0.7,0.4-1,0.6c-0.6,0.3-0.7-0.2-0.6-0.4c1.3-1,2.7-1.9,4.2-2.8l3.1-1.9
	c0.5-0.3,0.6-0.2,0.8,0.3l-0.2,0.2c-1.3,1-2.8,1.9-4.2,2.7C101.5,70.6,100.8,71,100.1,71.4z"/>
<path class="st0" d="M126.1,69.8c-0.1-0.2-0.1-0.4,0-0.6l0.9-1.7c0.4-0.7,0.7-1.5,1-2.3c0.4-1.1,0.7-2.2,0.9-3.4
	c0-0.2,0.1-0.4,0.1-0.6c0.2-0.5,0.3-0.3,0.4-0.3c0.5,0.2,0.2,1.9,0.2,2.2C129.3,65.3,127.4,69.8,126.1,69.8z"/>
<path class="st0" d="M120.3,25c0.7,0.6-0.1,2.8-0.4,3.5s-2.1,4.3-3.4,4.5c-0.2-0.2-0.2-0.3-0.1-0.5l1-1.5c0.4-0.6,0.8-1.3,1.1-2
	c0.3-0.6,0.6-1.3,0.8-2c0.1-0.3,0.2-0.7,0.3-1C119.7,25.6,119.9,25.2,120.3,25z"/>
<path class="st0" d="M27.8,86.1c-0.9-1.1-1.8-2.3-2.5-3.6c-0.3-0.6-0.6-1.2-0.8-1.8c-0.1-0.3-0.6-1.8,0.1-1.4c0.4,0.5,0.7,1.1,1,1.8
	c0.3,0.6,0.7,1.1,1,1.7s2,2.9,1.8,3.5C28.1,86.4,27.9,86.3,27.8,86.1z"/>
<path class="st0" d="M104.2,115.3c0.4-0.1,1.7-0.7,1.7-0.1c0,0.9-4.6,1.9-5.6,2.1s-1.4,0.4-1.8,0c0.5-0.5,1.2-0.8,1.9-0.9
	c0.7-0.2,1.2-0.3,1.9-0.5S103.5,115.5,104.2,115.3z"/>
<path class="st0" d="M41.6,108.9c0.6,0.3,1.3,2.4,1.6,3.1c0.4,0.8,1.5,2.6,1.1,3.1c-1-0.1-2.3-3.4-2.7-4.6
	C41.4,109.8,41.2,109.2,41.6,108.9z"/>
<path class="st0" d="M32.2,112.7c0.6,0.8,1.2,1.6,1.8,2.4c0.3,0.5,1.4,1.8,1.2,2.2c-0.6,0.6-2.7-2.7-2.7-2.9
	c-0.2-0.4-0.4-0.7-0.6-1.1C31.7,113,31.6,112.1,32.2,112.7z"/>
<path class="st0" d="M104.5,26c0,0.1-0.4,0.8-0.9-0.4c-1.5-3.4-0.6-4.7-0.1-4.1c0.2,0.2,0.1,1,0.4,1.9
	C104.2,24.3,104.4,25.1,104.5,26z"/>
</svg>
