<?xml version="1.0" encoding="utf-8"?>
<!-- Generator: Adobe Illustrator 16.0.0, SVG Export Plug-In . SVG Version: 6.00 Build 0)  -->
<!DOCTYPE svg PUBLIC "-//W3C//DTD SVG 1.1//EN" "http://www.w3.org/Graphics/SVG/1.1/DTD/svg11.dtd">
<svg version="1.1" id="Layer_1" xmlns="http://www.w3.org/2000/svg" xmlns:xlink="http://www.w3.org/1999/xlink" x="0px" y="0px"
	 width="24px" height="16px" viewBox="0 0 24 16" enable-background="new 0 0 24 16" xml:space="preserve">
<g>
	<defs>
		<rect id="SVGID_1_" y="-4" width="24" height="24"/>
	</defs>
	<clipPath id="SVGID_2_">
		<use xlink:href="#SVGID_1_"  overflow="visible"/>
	</clipPath>
	<path clip-path="url(#SVGID_2_)" d="M4,2h18V0H4C2.9,0,2,0.9,2,2v11H0v3h14v-3H4V2z M23,4h-6c-0.55,0-1,0.45-1,1v10
		c0,0.55,0.45,1,1,1h6c0.55,0,1-0.45,1-1V5C24,4.45,23.55,4,23,4 M22,13h-4V6h4V13z"/>
</g>
</svg>
