<?xml version="1.0" encoding="utf-8"?>
<!-- Generator: Adobe Illustrator 19.0.0, SVG Export Plug-In . SVG Version: 6.00 Build 0)  -->
<svg version="1.1" id="Layer_1" xmlns="http://www.w3.org/2000/svg" xmlns:xlink="http://www.w3.org/1999/xlink" x="0px" y="0px"
	 viewBox="-467 269 24 24" style="enable-background:new -467 269 24 24;" xml:space="preserve">
<path d="M-462.5,280h-2v-2h-1.5v6h1.5v-2.5h2v2.5h1.5v-6h-1.5V280z M-460,279.5h1.5v4.5h1.5v-4.5h1.5V278h-4.5V279.5z M-454.5,279.5
	h1.5v4.5h1.5v-4.5h1.5V278h-4.5V279.5z M-445.5,278h-3.5v6h1.5v-2h2c0.8,0,1.5-0.7,1.5-1.5v-1C-444,278.7-444.7,278-445.5,278z
	 M-445.5,280.5h-2v-1h2V280.5z"/>
</svg>
