<?xml version="1.0" encoding="utf-8"?>
<!-- Generator: Adobe Illustrator 16.0.0, SVG Export Plug-In . SVG Version: 6.00 Build 0)  -->
<!DOCTYPE svg PUBLIC "-//W3C//DTD SVG 1.1//EN" "http://www.w3.org/Graphics/SVG/1.1/DTD/svg11.dtd">
<svg version="1.1" id="Layer_1" xmlns="http://www.w3.org/2000/svg" xmlns:xlink="http://www.w3.org/1999/xlink" x="0px" y="0px"
	 width="10.25px" height="18px" viewBox="0 0 10.25 18" enable-background="new 0 0 10.25 18" xml:space="preserve">
<g>
	<defs>
		<rect id="SVGID_1_" x="-6.25" y="-3" width="24" height="24"/>
	</defs>
	<clipPath id="SVGID_2_">
		<use xlink:href="#SVGID_1_"  overflow="visible"/>
	</clipPath>
	<path clip-path="url(#SVGID_2_)" d="M5.55,7.9c-2.27-0.59-3-1.2-3-2.15c0-1.09,1.01-1.85,2.7-1.85c1.78,0,2.44,0.85,2.5,2.1h2.21
		C9.89,4.28,8.84,2.7,6.75,2.19V0h-3v2.16c-1.94,0.42-3.5,1.68-3.5,3.61c0,2.31,1.91,3.46,4.7,4.13c2.5,0.6,3,1.479,3,2.409
		c0,0.69-0.49,1.79-2.7,1.79c-2.06,0-2.87-0.92-2.98-2.1h-2.2c0.12,2.19,1.76,3.42,3.68,3.83V18h3v-2.15
		c1.95-0.369,3.5-1.5,3.5-3.55C10.25,9.46,7.82,8.49,5.55,7.9"/>
</g>
</svg>
