<?xml version="1.0" encoding="utf-8"?>
<!-- Generator: Adobe Illustrator 19.0.0, SVG Export Plug-In . SVG Version: 6.00 Build 0)  -->
<svg version="1.1" id="Isolation_Mode" xmlns="http://www.w3.org/2000/svg" xmlns:xlink="http://www.w3.org/1999/xlink" x="0px"
	 y="0px" viewBox="0 0 195.2 116.8" style="enable-background:new 0 0 195.2 116.8;" xml:space="preserve">
<style type="text/css">
	.st0{fill:#1717FF;}
</style>
<path class="st0" d="M158.2,17.5c-15.5-4.8-31.6-2.1-44.2,6c-37.2,29.8-45.9-0.1-56.7-11C53.5,8.4,48.6,5.2,43,3.4
	C26.4-1.7,8.8,7.4,3.2,23.8l0,0c0,0,0,0,0,0c0,0,0,0,0,0l0,0C-1.5,40.4,7.8,57.9,24.5,63c5.7,1.8,11.4,1.9,16.8,0.6
	c15.1-2.8,39.2-22.5,53,23.1c5.8,13.9,17.5,25.2,33,30.1c27.6,8.6,56.8-6.6,65.8-34l0,0c0,0,0,0,0,0c0,0,0,0,0,0l0,0
	C201.2,55.2,185.7,26.1,158.2,17.5z"/>
</svg>
