<?xml version="1.0" encoding="utf-8"?>
<!-- Generator: Adobe Illustrator 19.0.0, SVG Export Plug-In . SVG Version: 6.00 Build 0)  -->
<svg version="1.1" xmlns="http://www.w3.org/2000/svg" xmlns:xlink="http://www.w3.org/1999/xlink" x="0px" y="0px"
	 viewBox="0 0 3000 3000" style="enable-background:new 0 0 3000 3000;" xml:space="preserve">
<style type="text/css">
	.st0{fill:#4600F5;}
	.st1{fill:none;}
	.st2{fill:#AD00FF;}
	.st3{fill:#BC48FF;}
	.st4{fill:#FFFFFF;}
</style>
<g id="Background_1_">
</g>
<g id="Logo">
	<g>
		<polygon class="st0" points="987.3,1005 987.3,1301 1181.8,1117.3 		"/>
		<polygon class="st0" points="1181.8,1117.3 987.3,1301 1181.8,1301 		"/>
		<polygon class="st0" points="987.3,1301 1181.8,1484.7 1181.8,1301 		"/>
		<polygon class="st0" points="987.3,1597 1181.8,1484.7 987.3,1301 		"/>
		<polygon class="st1" points="1243.7,857 1243.7,857 1243.7,857 		"/>
		<polygon class="st0" points="987.3,1005 1181.8,1117.3 1243.7,857 		"/>
		<polygon class="st2" points="1243.7,857 1500,933.6 1500,709 		"/>
		<polygon class="st0" points="1762,860.2 1762,860.2 1762,860.2 		"/>
		<polygon class="st0" points="1500,709 1500,933.6 1762,860.2 		"/>
		<polygon class="st0" points="1762,860.2 1818.2,1117.3 2012.7,1005 		"/>
		<polygon class="st0" points="1818.2,1117.3 2012.7,1301 2012.7,1005 		"/>
		<polygon class="st2" points="2012.7,1597 2012.7,1301 1818.2,1484.7 		"/>
		<polygon class="st0" points="1181.8,1117.3 1340.9,1025.5 1243.7,857 		"/>
		<polygon class="st3" points="1243.7,857 1340.9,1025.5 1500,933.6 		"/>
		<polygon class="st1" points="1762,1741.8 1762,1741.8 1762,1741.8 		"/>
		<polygon class="st0" points="1500,1893 1762,1741.8 1500,1668.4 		"/>
		<polygon class="st0" points="2012.7,1597 1818.2,1484.7 1762,1741.8 		"/>
		<polygon class="st0" points="1659.1,1576.5 1762,1741.8 1818.2,1484.7 		"/>
		<polygon class="st0" points="1500,1668.4 1762,1741.8 1762,1741.8 1659.1,1576.5 		"/>
		<polygon class="st1" points="1243.7,1745 1243.7,1745 1243.7,1745 		"/>
		<polygon class="st0" points="1500,1668.4 1243.7,1745 1500,1893 		"/>
		<polygon class="st2" points="987.3,1597 1243.7,1745 1181.8,1484.7 		"/>
		<polygon class="st3" points="1181.8,1484.7 1243.7,1745 1340.9,1576.5 		"/>
		<polygon class="st0" points="1340.9,1576.5 1243.7,1745 1500,1668.4 		"/>
		<polygon class="st0" points="1818.2,1117.3 1818.2,1301 2012.7,1301 		"/>
		<polygon class="st3" points="2012.7,1301 1818.2,1301 1818.2,1484.7 		"/>
		<polygon class="st0" points="1762,860.2 1500,933.6 1659.1,1025.5 1762,860.2 		"/>
		<polygon class="st0" points="1762,860.2 1659.1,1025.5 1818.2,1117.3 		"/>
		<g>
			<path class="st4" d="M1595.2,1446.7c-27.2,18-60.8,27.5-100.2,27.5c-123.5,0-180.3-90.4-180.3-192.2
				c0-101.8,56.9-192.2,180.3-192.2c123.5,0,180.3,91,180.3,192.8c0,47.9-13,93.3-36.8,126.4l53.4,50.8l-43.1,40.7L1595.2,1446.7z
				 M1547.6,1400.2l-51-46.5l43.4-39.7l49.7,46c13-23.3,18.5-48.7,18.5-78c0-70.3-33.1-128.8-113.2-128.8
				c-80.1,0-113.2,58.4-113.2,128.8c0,70.6,33.1,129,113.2,129C1516.1,1411,1533.9,1406.5,1547.6,1400.2z"/>
		</g>
	</g>
</g>
</svg>
