<?xml version="1.0" encoding="utf-8"?>
<!-- Generator: Adobe Illustrator 19.0.0, SVG Export Plug-In . SVG Version: 6.00 Build 0)  -->
<svg version="1.1" xmlns="http://www.w3.org/2000/svg" xmlns:xlink="http://www.w3.org/1999/xlink" x="0px" y="0px"
	 viewBox="0 0 739.3 461.3" style="enable-background:new 0 0 739.3 461.3;" xml:space="preserve">
<style type="text/css">
	.st0{display:none;}
	.st1{display:inline;fill:url(#SVGID_1_);}
	.st2{opacity:0.56;fill:#D2EBFF;}
	.st3{fill:#073A93;}
	.st4{fill:#1858B5;}
	.st5{fill:#489BFF;}
	.st6{opacity:0.45;fill:#063272;}
	.st7{fill:#E6E6E6;}
	.st8{fill:#F49290;}
	.st9{fill:#FFB5B1;}
	.st10{fill:#D2EBFF;}
	.st11{fill:#89CAF7;}
	.st12{fill:#ACCFE5;}
	.st13{fill:#FFFFFF;}
</style>
<g id="BACKGROUND" class="st0">
	<linearGradient id="SVGID_1_" gradientUnits="userSpaceOnUse" x1="369.6667" y1="533.3333" x2="369.6667" y2="135.2718">
		<stop  offset="0" style="stop-color:#A9C0EF"/>
		<stop  offset="1" style="stop-color:#CDDDF9"/>
	</linearGradient>
	<rect x="-5.3" y="-11.7" class="st1" width="750" height="500"/>
</g>
<g id="OBJECTS">
	<g>
		<ellipse class="st2" cx="330.4" cy="398.5" rx="317.9" ry="54.4"/>
		<g>
			<polygon class="st3" points="311.4,275.5 419.7,260.1 514.8,260.1 599.9,276.7 453.6,350.5 			"/>
			<path class="st3" d="M510.1,353.4c0,0-191.5-105.3-214.1-70.8c-32.6,49.8,17.2,74.9,195.1,122.5L510.1,353.4z"/>
			<g>
				<path class="st4" d="M562.9,406.1L562.9,406.1c4.7-11.5-0.7-24.6-12.2-29.3l-44.2-18.3l-17.2,41.5l44.2,18.3
					C545.1,422.9,558.2,417.5,562.9,406.1z"/>
				<path class="st5" d="M503.8,365.1l33.5,13.9c7.8,3.2,11.5,12.1,8.3,19.9c-3.2,7.8-12.1,11.5-19.9,8.2l-33.5-13.9L503.8,365.1z"
					/>
				<path class="st6" d="M492.3,392.9l44.2,18.3c10.3,4.2,21.8,0.3,27.5-8.8c-0.3,1.2-0.6,2.4-1.1,3.6
					c-4.7,11.5-17.9,16.9-29.3,12.2l-44.2-18.3L492.3,392.9z"/>
				<path class="st7" d="M506.9,393.6l7.1-17.1c0.4-0.9,1.3-1.3,2.2-0.9l0,0c0.9,0.4,1.3,1.3,0.9,2.2l-7.1,17.1
					c-0.4,0.9-1.3,1.3-2.2,0.9l0,0C507,395.4,506.6,394.5,506.9,393.6z"/>
				<path class="st7" d="M517.3,397.9l7.1-17.1c0.4-0.9,1.3-1.3,2.2-0.9l0,0c0.9,0.4,1.3,1.3,0.9,2.2l-7.1,17.1
					c-0.4,0.9-1.3,1.3-2.2,0.9l0,0C517.4,399.8,517,398.8,517.3,397.9z"/>
				<path class="st7" d="M528.8,402.6l7.1-17.1c0.4-0.9,1.3-1.3,2.2-0.9l0,0c0.9,0.4,1.3,1.3,0.9,2.2l-7.1,17.1
					c-0.4,0.9-1.3,1.3-2.2,0.9l0,0C528.8,404.5,528.4,403.5,528.8,402.6z"/>
			</g>
			<path class="st5" d="M579.5,211.2c-2.9-10.1-17.6-27.3-30.6-62.4c-13.5-36.5-71.3-40.5-71.3-40.5l-22.4,12l-22.4-12
				c0,0-57.7,3.9-71.3,40.5c-13,35.1-27.7,52.3-30.6,62.4c-2.9,10.1,13,75.6,58.6,84.9h64h3.5h64
				C566.6,286.8,582.5,221.3,579.5,211.2z"/>
			<g>
				<g id="XMLID_30_">
					<path class="st8" d="M480.1,108.6v18c0,0-4.1,20.1-23.7,23.4c-20.4-4.5-23.5-23.4-23.5-23.4v-18H480.1z"/>
				</g>
				<g>
					<path id="XMLID_29_" class="st3" d="M411.6,73.3c0,0-6.7-42,9.3-47.1c4.4-1.4,1.2-15.2,25.5-15.4c33.2-0.2,59.3-4.7,55,63.1
						L411.6,73.3z"/>
					<circle class="st9" cx="421.2" cy="77.9" r="11.5"/>
					<circle class="st9" cx="491" cy="77.9" r="11.5"/>
					<path class="st9" d="M494.6,58.5L494.6,58.5L494.6,58.5C494.6,58.5,494.6,58.5,494.6,58.5c-0.6-0.2-9.7-3.2-11.5-15.2l-5,1.4
						c-13.9,3.9-28.7,3.7-42.5-0.4l-4-1c-1.7,12-11.3,15.1-11.9,15.2c0,0-0.1,0-0.1,0l-0.3,18.6c0,10.8,4.6,23.9,11.9,34.1
						c5.9,8.2,15.6,13,25.7,13s19.8-4.8,25.7-13c7.3-10.1,11.9-23.2,11.9-34.1L494.6,58.5L494.6,58.5z"/>
				</g>
			</g>
			<path class="st10" d="M526.1,212.3H386.7c-1.6,0-2.9,1.3-2.9,2.9v91c0,1.6,1.3,2.9,2.9,2.9h139.4c1.6,0,2.9-1.3,2.9-2.9v-91
				C528.9,213.6,527.6,212.3,526.1,212.3z"/>
			<circle class="st11" cx="455.9" cy="259.7" r="15.1"/>
			<path class="st3" d="M396.5,353.4c0,0,191.5-105.3,214.1-70.8c32.6,49.8-17.2,74.9-195.1,122.5L396.5,353.4z"/>
			<g>
				<path class="st4" d="M343.7,406.1L343.7,406.1c-4.7-11.5,0.7-24.6,12.2-29.3l44.2-18.3l17.2,41.5L373,418.2
					C361.6,422.9,348.4,417.5,343.7,406.1z"/>
				<path class="st5" d="M414.5,393.2L381,407.1c-7.8,3.2-16.7-0.5-19.9-8.2c-3.2-7.8,0.5-16.6,8.3-19.9l33.5-13.9L414.5,393.2z"/>
				<path class="st6" d="M414.3,392.9l-44.2,18.3c-10.3,4.2-21.8,0.3-27.5-8.8c0.3,1.2,0.6,2.4,1.1,3.6
					c4.7,11.5,17.9,16.9,29.3,12.2l44.2-18.3L414.3,392.9z"/>
				<path class="st7" d="M399.7,393.6l-7.1-17.1c-0.4-0.9-1.3-1.3-2.2-0.9l0,0c-0.9,0.4-1.3,1.3-0.9,2.2l7.1,17.1
					c0.4,0.9,1.3,1.3,2.2,0.9l0,0C399.6,395.4,400.1,394.5,399.7,393.6z"/>
				<path class="st7" d="M389.3,397.9l-7.1-17.1c-0.4-0.9-1.3-1.3-2.2-0.9l0,0c-0.9,0.4-1.3,1.3-0.9,2.2l7.1,17.1
					c0.4,0.9,1.3,1.3,2.2,0.9l0,0C389.2,399.8,389.7,398.8,389.3,397.9z"/>
				<path class="st7" d="M377.8,402.6l-7.1-17.1c-0.4-0.9-1.3-1.3-2.2-0.9l0,0c-0.9,0.4-1.3,1.3-0.9,2.2l7.1,17.1
					c0.4,0.9,1.3,1.3,2.2,0.9l0,0C377.8,404.5,378.2,403.5,377.8,402.6z"/>
			</g>
		</g>
		<g>
			<g>
				<g>
					<path class="st3" d="M104.3,276.9c0,0-50.7-81-35-92.7c15.7-11.7,31.1,35.9,39.1,28.3c8-7.6-28-75.8-11-90.4
						c17-14.7,15.7,35.1,30.2,44.3c14.4,9.2-7.8-67.8,9.5-79.8c17.3-12,25.6,26.3,25.6,26.3s19.2-76.3,44.9-61.3
						c25.8,15-39.5,91.7-24.2,89.1c15.3-2.6,31.1-28.6,44.4-11.1c13.3,17.5-73.8,61.9-59.8,60.8c14-1.1,38.7-18.5,43-3
						c4.3,15.4-70.7,43.3-62.9,48.6c7.8,5.3,47-24.9,53.1-2.6C207.3,255.5,119.8,291,104.3,276.9z"/>
					<path class="st10" d="M98.1,308.5c9.5-15.8,17.4-32.9,23.5-50.9c3.2-9.5,6-19.2,8.6-28.7c1.2-4.3,2.4-8.6,3.7-12.9
						c14-47.9,33.7-94.1,58.7-137.4l1,0.6c-24.9,43.1-44.6,89.3-58.6,137.1c-1.3,4.3-2.5,8.6-3.7,12.9c-2.7,9.5-5.4,19.3-8.6,28.8
						c-6.1,18.1-14.1,35.3-23.6,51.1L98.1,308.5z"/>
					<path class="st10" d="M153.5,158.6c-0.1-0.1-0.2-0.2-0.2-0.3c-5.7-17.4-9.6-35.5-11.5-53.8c0-0.3,0.2-0.6,0.5-0.6
						c0.3,0,0.6,0.2,0.6,0.5c1.9,18.2,5.7,36.2,11.4,53.5c0.1,0.3-0.1,0.6-0.4,0.7C153.8,158.7,153.6,158.7,153.5,158.6z"/>
					<path class="st10" d="M146.3,179.7c-0.1,0-0.1-0.1-0.1-0.1c-0.2-0.3-0.1-0.6,0.1-0.8c15.7-11.5,32-23.4,49.4-32.9
						c3.2-1.7,6.6-3.5,10.4-4.4c0.3-0.1,0.6,0.1,0.7,0.4c0.1,0.3-0.1,0.6-0.4,0.7c-3.6,0.9-7,2.6-10.1,4.3
						c-17.4,9.5-33.6,21.3-49.3,32.8C146.8,179.8,146.5,179.8,146.3,179.7z"/>
					<path class="st10" d="M135,214.2c-0.1,0-0.1-0.1-0.2-0.2c-6.6-10-15-23.3-21.1-37.7c-4.1-9.8-7.2-20.2-10.1-30.3
						c-0.1-0.3,0.1-0.6,0.4-0.7c0.3-0.1,0.6,0.1,0.7,0.4c3,10,6,20.4,10.1,30.2c6,14.4,14.4,27.6,21,37.5c0.2,0.3,0.1,0.6-0.2,0.8
						C135.4,214.3,135.2,214.3,135,214.2z"/>
					<path class="st10" d="M134.8,214.7c-0.2-0.1-0.3-0.4-0.2-0.7c0.1-0.3,0.4-0.5,0.7-0.3c1.6,0.6,3.4,0.4,5.1,0
						c4.6-0.9,9.2-2.6,13.6-4.2c0.8-0.3,1.6-0.6,2.5-0.9c13-4.7,26.5-8.3,39.6-11.8c0.3-0.1,0.6,0.1,0.7,0.4
						c0.1,0.3-0.1,0.6-0.4,0.7c-13.1,3.5-26.6,7.1-39.5,11.8c-0.8,0.3-1.6,0.6-2.4,0.9c-4.4,1.6-9,3.3-13.7,4.3
						c-1.8,0.3-3.9,0.6-5.7-0.1C134.9,214.7,134.8,214.7,134.8,214.7z"/>
					<path class="st10" d="M120.9,260.2c-15.2-10.4-32.5-38.5-42.8-59.4c-0.1-0.3,0-0.6,0.3-0.8c0.3-0.1,0.6,0,0.8,0.3
						c10.2,20.8,27.5,48.7,42.4,59c0.3,0.2,0.3,0.5,0.1,0.8C121.5,260.3,121.2,260.4,120.9,260.2z"/>
					<path class="st10" d="M121.9,260.7c-0.1-0.1-0.3-0.2-0.4-0.3c-0.2-0.2-0.3-0.6-0.1-0.8c0.2-0.2,0.6-0.3,0.8-0.1
						c2.1,1.7,5.4,1.2,8.5,0.3l55.3-15.2c0.3-0.1,0.6,0.1,0.7,0.4c0.1,0.3-0.1,0.6-0.4,0.7L131,260.9
						C127.8,261.8,124.4,262.4,121.9,260.7z"/>
				</g>
				<g>
					<path class="st5" d="M97.5,275.4c0,0-87.8-38-81.5-56.6c6.3-18.6,46.1,12,48.3,1.1C66.6,209-1.7,173.3,4,151.5
						s32.9,20,50.1,19.5S9.1,119.5,16.6,99.7c7.4-19.7,36,7.2,36,7.2s-27.5-73.8,2.3-76.1c29.7-2.3,19.5,98.1,30.6,87.2
						s9.4-41.2,30.3-34.3c20.9,6.9-25.7,93-14.9,84.1c10.9-8.9,21.5-37.2,33.8-26.9c12.3,10.3-33.8,75.8-24.3,75.8
						c9.4,0,24.6-47.2,42.3-32.3C170.5,199.3,118.4,278.2,97.5,275.4z"/>
					<path class="st10" d="M110.4,305c-1.2-18.4-4.4-37-9.5-55.3c-2.7-9.6-6-19.2-9.2-28.6c-1.4-4.2-2.9-8.5-4.3-12.7
						c-15.6-47.5-25.6-96.8-29.5-146.6l1.1-0.1c3.9,49.7,13.8,99,29.4,146.4c1.4,4.3,2.8,8.5,4.3,12.7c3.2,9.3,6.5,19,9.2,28.6
						c5.2,18.4,8.4,37.1,9.6,55.6L110.4,305z"/>
					<path class="st10" d="M71,149.9c-0.1,0-0.2,0-0.3-0.1c-14.6-11.1-28-23.9-40-37.8c-0.2-0.2-0.2-0.6,0.1-0.8
						c0.2-0.2,0.6-0.2,0.8,0.1c11.9,13.9,25.3,26.6,39.8,37.7c0.3,0.2,0.3,0.6,0.1,0.8C71.4,149.8,71.2,149.9,71,149.9z"/>
					<path class="st10" d="M77.1,171.3c-0.1,0-0.1,0-0.2,0c-0.3-0.1-0.5-0.4-0.3-0.7c6.5-18.4,13.1-37.4,22.1-55.2
						c1.7-3.3,3.5-6.7,6.1-9.5c0.2-0.2,0.6-0.3,0.8,0c0.2,0.2,0.3,0.6,0,0.8c-2.5,2.8-4.3,6.1-5.9,9.3c-9,17.7-15.6,36.7-22.1,55
						C77.5,171.2,77.3,171.3,77.1,171.3z"/>
					<path class="st10" d="M87.3,206.2c-0.1,0-0.1,0-0.2,0c-11.1-4.5-25.6-10.7-38.8-19.2c-9-5.8-17.4-12.6-25.6-19.2
						c-0.2-0.2-0.3-0.6-0.1-0.8c0.2-0.2,0.6-0.3,0.8-0.1c8.1,6.6,16.5,13.4,25.5,19.2c13.1,8.4,27.5,14.6,38.6,19.1
						c0.3,0.1,0.4,0.5,0.3,0.7C87.7,206.1,87.5,206.2,87.3,206.2z"/>
					<path class="st10" d="M87.4,206.8c-0.3,0-0.5-0.2-0.6-0.4c-0.1-0.3,0.1-0.6,0.4-0.7c1.7-0.4,3-1.6,4.2-2.9
						c3.3-3.4,6.1-7.3,8.8-11.2c0.5-0.7,1-1.4,1.5-2.1c8-11.3,17.1-21.9,25.9-32.2c0.2-0.2,0.6-0.3,0.8-0.1c0.2,0.2,0.3,0.6,0.1,0.8
						c-8.8,10.3-17.9,20.9-25.9,32.1c-0.5,0.7-1,1.4-1.5,2.1c-2.7,3.9-5.5,7.9-8.9,11.3c-1.3,1.3-2.8,2.7-4.8,3.2
						C87.5,206.8,87.5,206.8,87.4,206.8z"/>
					<path class="st10" d="M101.8,252.2c-18.4,0-48.7-13.3-69-24.7c-0.3-0.2-0.4-0.5-0.2-0.8c0.2-0.3,0.5-0.4,0.8-0.2
						c20.2,11.3,50.3,24.6,68.5,24.6c0.3,0,0.6,0.3,0.6,0.6S102.1,252.2,101.8,252.2z"/>
					<path class="st10" d="M102.9,252c-0.2,0-0.3,0-0.5,0c-0.3,0-0.5-0.3-0.5-0.6c0-0.3,0.3-0.6,0.6-0.5c2.8,0.2,5.1-2.1,7.2-4.6
						l37.1-43.9c0.2-0.2,0.6-0.3,0.8-0.1c0.2,0.2,0.3,0.6,0.1,0.8L110.6,247C108.4,249.6,105.9,252,102.9,252z"/>
				</g>
			</g>
			<g>
				<path class="st10" d="M58.7,288.9l14,86.8c2,12.3,12.6,21.4,25.1,21.4h42.7c12.5,0,23.1-9,25.1-21.4l14-86.8H58.7z"/>
				<path class="st12" d="M179.6,288.9h-23.8H58.7l1.9,12h93.2l-12.1,74.8c-2,12.3-12.6,21.4-25.1,21.4h23.8
					c12.5,0,23.1-9,25.1-21.4l12.1-74.8l0,0L179.6,288.9z"/>
				<path class="st10" d="M180.9,264H57.3c-6.9,0-12.6,5.7-12.6,12.6l0,0c0,6.9,5.7,12.6,12.6,12.6h123.6c6.9,0,12.6-5.7,12.6-12.6
					l0,0C193.6,269.7,187.9,264,180.9,264z"/>
			</g>
		</g>
		<g>
			<path class="st2" d="M736.3,41.8H540.2c-1.7,0-3,1.4-3,3v56.4c0,1.7,1.4,3,3,3h196.1c1.7,0,3-1.4,3-3V44.8
				C739.3,43.2,738,41.8,736.3,41.8z"/>
			<g>
				<path class="st3" d="M583.6,94.9h-30.5c-0.7,0-1.3-0.6-1.3-1.3V71.1c0-0.7,0.6-1.3,1.3-1.3h30.5c0.7,0,1.3,0.6,1.3,1.3v22.6
					C584.8,94.3,584.3,94.9,583.6,94.9z"/>
				<path class="st3" d="M579.7,67h-3.1V62c0-4.6-3.7-8.3-8.3-8.3S560,57.4,560,62V67h-3.1V62c0-6.3,5.1-11.4,11.4-11.4
					c6.3,0,11.4,5.1,11.4,11.4V67z"/>
				<path class="st13" d="M571.8,79c0-1.9-1.6-3.5-3.5-3.5s-3.5,1.6-3.5,3.5c0,1.3,0.7,2.4,1.8,3l-1.2,6.9h5.8l-1.2-6.9
					C571.1,81.5,571.8,80.3,571.8,79z"/>
			</g>
			<g>
				<circle class="st3" cx="621.4" cy="74.9" r="5.7"/>
				<circle class="st3" cx="643.3" cy="74.9" r="5.7"/>
				<circle class="st3" cx="665.1" cy="74.9" r="5.7"/>
				<circle class="st3" cx="686.9" cy="74.9" r="5.7"/>
				<circle class="st3" cx="708.7" cy="74.9" r="5.7"/>
			</g>
		</g>
	</g>
</g>
<g id="DESIGNED_BY_FREEPIK">
</g>
</svg>
