<?xml version="1.0" encoding="utf-8"?>
<!-- Generator: Adobe Illustrator 19.0.0, SVG Export Plug-In . SVG Version: 6.00 Build 0)  -->
<svg version="1.1" id="Isolation_Mode" xmlns="http://www.w3.org/2000/svg" xmlns:xlink="http://www.w3.org/1999/xlink" x="0px"
	 y="0px" viewBox="0 0 202.5 111.6" style="enable-background:new 0 0 202.5 111.6;" xml:space="preserve">
<style type="text/css">
	.st0{fill:#FF4200;}
</style>
<path class="st0" d="M62.1,109.4c16.2-1.6,29.9-10.3,38.4-22.7c22.8-41.9,42.4-17.7,56.6-11.8c5,2.3,10.7,3.4,16.6,2.9
	c17.3-1.7,30-16.9,28.8-34.1l0,0c0,0,0,0,0,0c0,0,0,0,0,0l0,0c-2.1-17.2-17.5-29.6-34.8-28c-5.9,0.6-11.3,2.7-15.7,6
	c-12.8,8.5-27.4,36-57.8-0.7C83.4,10.2,68.2,4.3,52,5.9C23.3,8.7,2.2,34,4.6,62.7l0,0c0,0,0,0,0,0c0,0,0,0,0,0l0,0
	C7.8,91.3,33.3,112.1,62.1,109.4z"/>
</svg>
