<?xml version="1.0" encoding="utf-8"?>
<!-- Generator: Adobe Illustrator 19.0.0, SVG Export Plug-In . SVG Version: 6.00 Build 0)  -->
<svg version="1.1" id="Isolation_Mode" xmlns="http://www.w3.org/2000/svg" xmlns:xlink="http://www.w3.org/1999/xlink" x="0px"
	 y="0px" viewBox="0 0 198.3 119.7" style="enable-background:new 0 0 198.3 119.7;" xml:space="preserve">
<style type="text/css">
	.st0{fill:#1717FF;}
</style>
<path class="st0" d="M157.9,16.1c-15.6-4.6-31.6-1.6-44.1,6.7c-36.7,30.3-45.9,0.6-56.9-10.1c-3.8-4-8.6-7.2-14.3-8.8
	C25.9-1,8.4,8.3,3.2,24.8l0,0c0,0,0,0,0,0c0,0,0,0,0,0l0,0c-4.5,16.7,5.1,34,21.8,38.9c5.7,1.7,11.5,1.7,16.8,0.3
	C56.9,61,80.7,40.9,95.1,86.3c6,13.8,17.9,25,33.5,29.6c27.7,8.1,56.7-7.5,65.2-35l0,0c0,0,0,0,0,0c0,0,0,0,0,0l0,0
	C201.6,53.2,185.6,24.3,157.9,16.1z"/>
</svg>
